<svg xmlns="http://www.w3.org/2000/svg" width="32" height="32" viewBox="0 0 32 32" fill="none">
  <g opacity="0.7" clip-path="url(#clip0_6528_494)">
    <path fill-rule="evenodd" clip-rule="evenodd" d="M16 3.55029C9.12748 3.55029 3.55 9.12777 3.55 16.0003C3.55 22.8729 9.12748 28.4503 16 28.4503H20.8C21.7113 28.4503 22.45 27.7116 22.45 26.8003C22.45 25.8891 21.7113 25.1503 20.8 25.1503H16C11.0405 25.1503 6.85001 20.9598 6.85001 16.0003C6.85001 11.0408 11.0405 6.8503 16 6.8503C20.9595 6.8503 25.15 11.0408 25.15 16.0003V17.7163C25.15 18.0587 24.9932 18.4232 24.7277 18.7055C24.4624 18.9877 24.1248 19.1503 23.8 19.1503C23.4753 19.1503 23.1377 18.9877 22.8723 18.7055C22.6068 18.4232 22.45 18.0587 22.45 17.7163V16.0003C22.45 12.4398 19.5606 9.5503 16 9.5503C12.4395 9.5503 9.55001 12.4398 9.55001 16.0003C9.55001 19.5608 12.4395 22.4503 16 22.4503C17.6012 22.4503 19.0785 21.8654 20.2053 20.8918C21.091 21.8525 22.4108 22.4503 23.8 22.4503C26.4241 22.4503 28.45 20.3171 28.45 17.7163V16.0003C28.45 9.12777 22.8726 3.55029 16 3.55029ZM12.85 16.0003C12.85 14.2568 14.2565 12.8503 16 12.8503C17.7435 12.8503 19.15 14.2568 19.15 16.0003C19.15 17.7438 17.7435 19.1503 16 19.1503C14.2565 19.1503 12.85 17.7438 12.85 16.0003Z" fill="black"/>
  </g>
  <defs>
    <clipPath id="clip0_6528_494">
      <rect width="32" height="32" fill="white"/>
    </clipPath>
  </defs>
</svg>
