<svg xmlns="http://www.w3.org/2000/svg" width="22" height="23" viewBox="0 0 22 23" fill="none">
  <path fill-rule="evenodd" clip-rule="evenodd" d="M17.6666 6.29167C18.7899 3.59593 16.8092 0.625 13.8888 0.625C12.7613 0.625 11.7402 1.08102 11 1.81869C10.2597 1.08102 9.23866 0.625 8.11107 0.625C5.19069 0.625 3.21007 3.59593 4.33329 6.29167C4.34886 6.32903 4.36494 6.36607 4.38152 6.40278H2.81477C1.35224 6.40278 0.166626 7.58839 0.166626 9.05093V11.4583H9.79626V6.40278H12.2037V11.4583H21.8333V9.05093C21.8333 7.58839 20.6477 6.40278 19.1851 6.40278H17.6184C17.635 6.36607 17.6511 6.32903 17.6666 6.29167ZM12.2037 6.40278V4.71759C12.2037 3.78689 12.9581 3.03241 13.8888 3.03241C15.0914 3.03241 15.9069 4.25573 15.4444 5.36574C15.1827 5.99372 14.5692 6.40278 13.8888 6.40278H12.2037ZM9.79626 6.40278H8.11107C7.43076 6.40278 6.81717 5.99372 6.55552 5.36574C6.09301 4.25573 6.90856 3.03241 8.11107 3.03241C9.04128 3.03241 9.79545 3.78608 9.79626 4.7161L9.79626 6.40278Z" fill="white"/>
  <path d="M19.9074 13.8657H12.2037V22.2917H16.7777C18.5062 22.2917 19.9074 20.8905 19.9074 19.162V13.8657Z" fill="white"/>
  <path d="M9.79626 22.2917V13.8657H2.09257L2.09261 19.1621C2.09262 20.8905 3.49381 22.2917 5.22224 22.2917H9.79626Z" fill="white"/>
</svg>
