<svg xmlns="http://www.w3.org/2000/svg" width="57" height="35" viewBox="0 0 57 35" fill="none">
  <path opacity="0.6" d="M41.036 8.19436L44.2151 21.4665C44.5636 22.9212 43.4609 24.3193 41.965 24.3193H13.2929C10.5616 24.3193 8.12093 22.6137 7.18202 20.0489L6.9216 19.3375C6.78343 18.96 7.06284 18.5602 7.46478 18.5602H26.1899C26.4116 18.5602 26.5914 18.3804 26.5914 18.1587C26.5914 16.4956 25.2432 15.1474 23.5801 15.1474H9.9353C7.20401 15.1474 4.76336 13.4418 3.82445 10.877L3.59006 10.2367C3.45188 9.85922 3.7313 9.45938 4.13324 9.45938H21.9239C22.1456 9.45938 22.3254 9.27962 22.3254 9.05788C22.3254 7.39479 20.9772 6.04659 19.3141 6.04659H6.60376C3.87246 6.04659 1.43182 4.341 0.492904 1.77616L0.284542 1.20697C0.146369 0.829525 0.425783 0.429688 0.827726 0.429688H31.1918C35.874 0.429688 39.9453 3.6409 41.036 8.19436Z" fill="black"/>
  <path d="M52.2925 12.1449L56.7511 31.2928C57.0889 32.7438 55.9874 34.1313 54.4976 34.1313H24.5923C21.7599 34.1313 19.2527 32.2992 18.3923 29.6006L18.0893 28.6502C17.9109 28.0905 18.3285 27.519 18.916 27.519H46.2237C47.7218 27.519 48.825 26.1169 48.4725 24.6608L44.4837 8.1851C44.3515 7.63907 44.7652 7.11328 45.327 7.11328H45.9546C48.98 7.11328 51.6064 9.19834 52.2925 12.1449Z" fill="black"/>
</svg>
