<svg xmlns="http://www.w3.org/2000/svg" width="16" height="24" viewBox="0 0 16 24" fill="none">
  <path fill-rule="evenodd" clip-rule="evenodd" d="M0 5.06668C0 3.44875 0 2.63979 0.31487 2.02182C0.591838 1.47824 1.03378 1.0363 1.57736 0.759328C2.19533 0.444458 3.00429 0.444458 4.62222 0.444458H11.3778C12.9957 0.444458 13.8047 0.444458 14.4226 0.759328C14.9662 1.0363 15.4082 1.47824 15.6851 2.02182C16 2.63979 16 3.44875 16 5.06668V18.9333C16 20.5513 16 21.3602 15.6851 21.9782C15.4082 22.5218 14.9662 22.9637 14.4226 23.2407C13.8047 23.5556 12.9957 23.5556 11.3778 23.5556H4.62222C3.00429 23.5556 2.19533 23.5556 1.57736 23.2407C1.03378 22.9637 0.591838 22.5218 0.31487 21.9782C0 21.3602 0 20.5513 0 18.9333V5.06668ZM2.22222 4.20742C2.22222 3.66811 2.22222 3.39846 2.32718 3.19247C2.4195 3.01127 2.56682 2.86396 2.74801 2.77164C2.954 2.66668 3.22365 2.66668 3.76296 2.66668H12.237C12.7763 2.66668 13.046 2.66668 13.252 2.77164C13.4332 2.86396 13.5805 3.01127 13.6728 3.19247C13.7778 3.39846 13.7778 3.66811 13.7778 4.20742V17.1259C13.7778 17.6652 13.7778 17.9349 13.6728 18.1409C13.5805 18.3221 13.4332 18.4694 13.252 18.5617C13.046 18.6667 12.7763 18.6667 12.237 18.6667H3.76296C3.22365 18.6667 2.954 18.6667 2.74801 18.5617C2.56682 18.4694 2.4195 18.3221 2.32718 18.1409C2.22222 17.9349 2.22222 17.6652 2.22222 17.1259V4.20742ZM8 22.2222C8.73638 22.2222 9.33333 21.6253 9.33333 20.8889C9.33333 20.1525 8.73638 19.5556 8 19.5556C7.26362 19.5556 6.66667 20.1525 6.66667 20.8889C6.66667 21.6253 7.26362 22.2222 8 22.2222Z" fill="white"/>
</svg>
