<svg xmlns="http://www.w3.org/2000/svg" width="246" height="418" viewBox="0 0 246 418" fill="none">
  <path opacity="0.07" fill-rule="evenodd" clip-rule="evenodd" d="M257.492 272.754C242.647 258.515 229.843 262.277 211.797 254.823L211.762 254.788C206.099 252.432 200.787 248.987 196.249 244.451C191.712 239.915 188.229 234.606 185.872 228.946C183.41 223.039 182.214 216.78 182.214 210.592L182.249 210.557C182.249 204.334 183.48 198.075 185.907 192.204C188.264 186.543 191.712 181.269 196.249 176.698C200.787 172.163 206.099 168.682 211.762 166.361C217.672 163.935 223.933 162.705 230.124 162.705V162.74C236.351 162.74 242.612 163.971 248.486 166.397C254.15 168.752 259.426 172.198 263.999 176.734C268.572 181.304 272.019 186.578 274.376 192.239C281.693 209.889 277.05 221.597 291.331 236.786C298.472 244.943 308.919 250.077 320.598 250.077C332.875 250.077 343.814 244.416 350.92 235.52C363.654 221 359.538 209.467 366.609 192.38C368.966 186.719 372.413 181.41 376.986 176.874C381.524 172.339 386.8 168.893 392.499 166.537C398.373 164.111 404.635 162.881 410.861 162.881V162.845C417.052 162.845 423.313 164.076 429.223 166.537C431.404 167.416 433.479 168.471 435.52 169.702C438.967 171.706 442.203 174.167 445.158 177.12C461.409 193.364 463.344 218.503 450.997 236.892C449.238 239.634 447.128 242.201 444.771 244.592C440.233 249.127 434.921 252.573 429.258 254.929L429.223 254.964C411.177 262.418 398.408 258.656 383.564 272.895C367.523 288.295 372.378 301.058 364.815 319.376C362.458 325.037 359.011 330.346 354.473 334.882C349.935 339.417 344.624 342.863 338.96 345.219L338.925 345.254C333.086 347.68 326.824 348.875 320.598 348.875C320.563 348.91 320.563 348.91 320.528 348.875C314.302 348.875 308.04 347.68 302.201 345.254L302.166 345.219C296.502 342.863 291.191 339.417 286.653 334.882C282.713 330.944 279.582 326.443 277.296 321.626L277.225 321.486L277.155 321.38L277.085 321.24L277.014 321.134L276.944 320.993L276.909 320.888L276.839 320.747C276.628 320.255 276.416 319.798 276.205 319.306C268.642 300.917 273.532 288.154 257.492 272.754ZM75.2072 273.176C60.3628 258.937 47.5585 262.699 29.5482 255.245L29.5131 255.21C23.8497 252.854 18.5732 249.409 14.0003 244.873C9.4625 240.337 6.0152 235.028 3.65838 229.368C1.19603 223.461 0 217.202 0 211.014L0.0352108 210.979C0.0352108 204.756 1.26631 198.497 3.69348 192.626C6.0503 186.965 9.4976 181.691 14.0354 177.12C18.5731 172.585 23.8848 169.104 29.5482 166.783C35.4578 164.322 41.7192 163.092 47.9103 163.092L47.9455 163.127C54.1717 163.127 60.4331 164.357 66.3076 166.783C71.971 169.139 77.2827 172.585 81.8204 177.12C86.3934 181.691 89.8406 186.965 92.1974 192.661C99.7252 210.838 94.5543 222.757 110.595 238.685C126.002 253.979 138.454 249.549 156.641 257.073C162.304 259.429 167.616 262.875 172.153 267.41L172.47 267.727L172.787 268.043C177.36 272.614 180.807 277.888 183.164 283.549C190.691 301.761 185.52 313.645 201.561 329.572C216.968 344.867 229.421 340.437 247.607 347.961C253.27 350.317 258.582 353.762 263.12 358.298C267.693 362.869 271.14 368.142 273.497 373.803C275.924 379.675 277.155 385.933 277.155 392.121H277.12C277.12 398.38 275.924 404.638 273.497 410.44C271.14 416.1 267.693 421.409 263.12 425.98C258.582 430.516 253.306 433.961 247.607 436.317L247.572 436.352C241.732 438.778 235.506 439.974 229.245 439.974C229.21 440.009 229.21 440.009 229.174 439.974C222.948 439.974 216.687 438.743 210.848 436.352L210.812 436.317C205.149 433.961 199.872 430.516 195.3 425.98C190.762 421.445 187.279 416.135 184.958 410.475C177.36 392.157 182.249 379.394 166.209 364.029C151.364 349.789 138.56 353.551 120.55 346.098H120.515C114.851 343.742 109.575 340.296 105.002 335.761L104.685 335.444L104.369 335.128C99.8308 330.592 96.3835 325.283 94.0267 319.622C86.3934 301.339 91.2477 288.576 75.2072 273.176ZM258.16 91.8934C272.406 106.731 268.642 119.529 276.1 137.566L276.135 137.601C278.492 143.262 281.939 148.536 286.477 153.106C291.015 157.642 296.326 161.123 301.99 163.443C307.899 165.904 314.161 167.1 320.352 167.1L320.387 167.065C326.613 167.065 332.875 165.834 338.749 163.408C344.413 161.052 349.689 157.607 354.262 153.071C358.8 148.536 362.282 143.227 364.604 137.566C367.066 131.659 368.262 125.401 368.262 119.212L368.227 119.177C368.227 112.954 366.996 106.696 364.569 100.824C362.212 95.1633 358.764 89.8893 354.227 85.3186C349.654 80.7478 344.377 77.3021 338.714 74.9464C320.493 67.4223 308.603 72.5908 292.668 56.558C277.366 41.1581 281.798 28.7116 274.235 10.5341C271.879 4.87336 268.431 -0.400543 263.894 -4.97129C259.321 -9.54204 254.044 -12.9877 248.381 -15.3434C242.506 -17.7694 236.245 -19 230.054 -19V-18.9649C223.792 -18.9649 217.566 -17.7694 211.727 -15.3434C206.064 -12.9877 200.752 -9.54204 196.179 -4.97129C191.641 -0.435703 188.194 4.87336 185.837 10.5341L185.802 10.5693C183.375 16.4057 182.179 22.629 182.179 28.8874C182.144 28.9225 182.144 28.9226 182.179 28.9577C182.179 35.181 183.375 41.4394 185.802 47.2759L185.837 47.311C188.194 52.9717 191.641 58.2457 196.179 62.8164C200.717 67.352 206.028 70.7977 211.692 73.1534C229.984 80.7479 242.753 75.8606 258.16 91.8934ZM172.224 85.8459C190.691 104.305 190.691 134.226 172.224 152.684C153.756 171.143 123.821 171.143 105.353 152.684C86.8858 134.226 86.8858 104.305 105.353 85.8459C123.821 67.3871 153.756 67.3871 172.224 85.8459Z" fill="black"/>
</svg>
