<svg xmlns="http://www.w3.org/2000/svg" width="540" height="20" viewBox="0 0 540 20" fill="none">
<path d="M521.023 12.3758C521.874 12.4235 522.694 12.4813 523.561 12.514C524.567 12.5517 525.604 12.5643 526.734 12.5467C526.007 12.4939 525.264 12.4411 524.366 12.3758C525.898 12.3758 527.307 12.3758 528.421 12.3758C528.7 12.2778 528.885 12.2125 529.118 12.1295C527.694 12.0743 526.301 12.0215 524.908 11.9687C524.954 11.9335 524.985 11.8959 525.032 11.8607C526.053 11.8883 527.059 11.9185 528.375 11.9536C527.895 11.9034 527.647 11.8758 527.338 11.8456C529.69 11.6395 528.468 11.4611 526.951 11.2626C528.87 11.3933 530.511 11.5064 532.12 11.6194C532.12 11.5139 532.12 11.436 532.12 11.3154C531.548 11.2701 530.681 11.2023 529.799 11.1345C529.845 11.1118 529.892 11.0892 529.938 11.0666C531.517 11.147 533.095 11.2274 534.674 11.3078C534.721 11.2903 534.751 11.2727 534.798 11.2551C533.281 11.1596 531.764 11.0641 530.247 10.9711C530.294 10.946 530.325 10.9209 530.371 10.8957C531.811 10.9661 533.266 11.0365 534.705 11.1043C534.751 11.0817 534.782 11.0591 534.829 11.0365C533.513 10.9611 532.198 10.8832 530.681 10.7952C531.006 10.7349 531.377 10.6646 531.826 10.5816C531.826 10.549 531.826 10.4887 531.826 10.4258C532.616 10.4434 533.405 10.461 534.287 10.4811C534.395 10.4585 534.612 10.4082 534.829 10.358L534.813 10.363C534.426 10.064 533.173 10.0866 531.563 10.1243C532.383 10.1921 532.925 10.2399 533.761 10.3102C532.414 10.3002 531.176 10.3856 531.114 10.064C531.099 10.0137 530.371 9.97101 529.861 9.9107C529.83 9.88808 529.752 9.82023 529.706 9.775C531.47 9.79259 533.529 9.8127 535.587 9.8328C535.603 9.81521 535.618 9.80013 535.634 9.78254C534.782 9.75239 533.947 9.72224 533.095 9.69208C533.095 9.67198 533.08 9.65188 533.08 9.62926C533.745 9.6167 534.426 9.60665 535.247 9.59157C534.535 9.54383 533.947 9.50362 533.219 9.45587C533.575 9.41064 533.823 9.37546 534.055 9.34531C533.699 9.29505 533.297 9.23475 532.739 9.15182C533.885 9.17192 534.782 9.187 535.928 9.2071C535.603 9.13172 535.479 9.10156 535.169 9.02618C536.299 9.02618 537.228 9.02618 538.157 9.02618C538.157 9.00356 538.157 8.98094 538.157 8.95833C537.29 8.94576 536.423 8.9332 535.541 8.92064C535.541 8.90305 535.525 8.88546 535.525 8.86787C536.856 8.84525 538.188 8.82515 539.673 8.80002C539.302 8.74474 538.992 8.69699 538.543 8.62914C539.101 8.63668 539.457 8.64171 539.828 8.64422C538.822 8.53114 538.157 8.25724 536.237 8.45576C536.733 8.47586 537.12 8.49094 537.491 8.50602C537.383 8.52612 537.274 8.54371 537.166 8.56382C535.216 8.56633 533.823 8.37786 532.569 8.14417C532.631 8.12658 532.708 8.10898 532.77 8.09391C533.049 8.12909 533.297 8.1693 533.591 8.19945C533.931 8.23463 534.287 8.26227 534.628 8.29745C535.015 8.33263 535.386 8.37283 535.85 8.41807C535.943 8.32509 536.052 8.21704 536.237 8.02858C536.686 8.10648 536.918 8.18438 537.243 8.19443C537.955 8.22207 538.915 8.26478 539.395 8.20699C539.859 8.15422 539.921 7.97832 539.998 7.85268C540.029 7.80493 539.611 7.74713 539.163 7.70944C539.209 7.7597 539.255 7.80996 539.317 7.86775C538.76 7.8577 538.265 7.85017 537.646 7.84011C537.646 7.70693 537.646 7.57124 537.646 7.43806C537.445 7.37021 537.212 7.28226 536.903 7.20436C536.609 7.12898 536.222 7.06615 535.881 6.99579C535.928 7.06113 535.959 7.12647 536.005 7.18929C535.742 7.25211 535.463 7.31493 535.216 7.37021C534.566 7.31996 534.04 7.27723 533.328 7.22195C533.126 7.27974 532.91 7.33754 532.677 7.40287C529.319 7.06113 525.666 7.01841 522.106 6.89528C522.555 6.89528 523.019 6.89528 523.468 6.89528C523.499 6.87518 523.546 6.85256 523.577 6.83246C522.679 6.69677 521.1 6.89779 520.233 6.75205C520.28 6.73194 520.311 6.71184 520.357 6.69174C520.976 6.68671 521.596 6.67917 522.199 6.67415C522.246 6.59625 522.277 6.54599 522.292 6.49322C521.75 6.68923 520.806 6.52589 520.048 6.55604C518.98 6.60128 517.757 6.53091 516.596 6.51584C516.318 6.51081 515.776 6.52589 515.776 6.53343C515.745 6.70179 515.11 6.62389 514.677 6.62138C513.594 6.61384 512.495 6.60379 511.411 6.59373C511.349 6.59373 511.272 6.57866 511.21 6.56861C511.349 6.53092 511.489 6.49323 511.659 6.45051C511.365 6.43041 511.164 6.41784 510.962 6.40276C511.411 6.34246 511.891 6.31481 512.293 6.32989C513.563 6.37763 514.522 6.26958 515.358 6.13891C515.962 6.04342 515.853 6.02583 516.519 6.08614C516.952 6.12635 517.37 6.16404 517.324 6.02332C516.674 5.97558 516.024 5.92784 515.358 5.87758C515.389 5.85748 515.404 5.83486 515.435 5.81476C516.287 5.81476 517.122 5.81476 518.113 5.81476C517.742 5.91276 517.509 5.97055 517.277 6.03086C517.834 6.08614 518.392 6.14143 519.026 6.20425C519.305 6.13137 519.583 6.05348 519.893 5.97307C519.444 5.94794 519.104 5.92784 518.763 5.91025C518.779 5.89768 518.794 5.88511 518.81 5.87255C519.367 5.87255 519.908 5.87255 520.481 5.87255C520.435 5.9027 520.373 5.93034 520.326 5.95799C521.719 6.00322 523.081 6.04845 524.459 6.09117C524.443 6.11629 524.428 6.14143 524.428 6.16656C524.01 6.16656 523.577 6.15399 523.205 6.17158C522.958 6.18414 522.787 6.24194 522.586 6.27963C523.577 6.36507 522.602 6.42538 522.493 6.49825C522.694 6.5661 522.896 6.63143 523.252 6.75205C523.391 6.64902 523.515 6.58117 523.561 6.51081C523.623 6.42789 523.639 6.34497 523.67 6.25451C524.397 6.26707 524.908 6.27712 525.403 6.28718C525.388 6.30477 525.388 6.32235 525.372 6.33994C524.923 6.35753 524.474 6.37512 523.964 6.39271C525.016 6.45302 525.945 6.50579 526.734 6.55354C526.904 6.50328 527.028 6.46558 527.167 6.42538C527.353 6.45553 527.663 6.47815 527.709 6.51333C527.848 6.61887 527.895 6.72944 527.988 6.85257C527.09 6.84251 526.301 6.83497 525.511 6.82744C525.713 6.94051 526.842 7.0159 527.91 6.94303C528.297 6.9179 528.499 6.8023 528.978 6.67415C529.443 6.71938 530.139 6.78974 530.836 6.86011C530.836 6.8199 530.836 6.78471 530.836 6.80733C531.811 6.84 532.786 6.87267 533.792 6.90533C533.776 6.91036 533.699 6.94554 533.622 6.97821C533.931 6.938 534.241 6.89779 534.659 6.84502C534.813 6.85758 535.123 6.88021 535.432 6.90533C535.123 6.83497 534.829 6.76461 534.365 6.65405C534.968 6.6641 535.402 6.67164 535.819 6.67666C536.036 6.41281 535.665 6.19671 534.009 6.0962C534.287 6.09117 534.55 6.08614 534.953 6.0786C534.597 6.0183 534.334 5.97307 534.055 5.93035C535.819 5.88009 537.568 5.83234 539.503 5.77706C539.116 5.6866 538.977 5.65142 538.714 5.5886C539.132 5.59362 539.395 5.59614 539.642 5.60117C539.704 5.58358 539.751 5.56599 539.813 5.5484C539.147 5.4906 538.513 5.3926 537.832 5.38506C536.33 5.36495 535.897 5.22927 535.974 4.99808C535.99 4.94531 535.974 4.89254 535.974 4.85736C534.581 4.67644 533.266 4.50305 531.95 4.32966C531.966 4.31961 531.966 4.30705 531.981 4.297C532.445 4.32715 532.894 4.35479 533.358 4.38495C533.42 4.27438 533.467 4.17135 533.529 4.05325C533.08 4.07084 532.647 4.08843 532.043 4.11105C532.43 4.03315 532.677 3.98289 533.111 3.89494C532.538 3.91002 532.167 3.92258 531.78 3.93012C531.532 3.93515 531.068 3.94268 531.052 3.93263C530.65 3.67129 529.133 3.76176 528.065 3.64617C528.499 3.62104 528.777 3.60596 528.824 3.60596C528.282 3.51801 527.725 3.43006 527.167 3.3396C526.27 3.19134 525.109 3.18632 524.18 3.27176C522.803 3.3974 521.843 3.22401 520.497 3.20642C521.054 3.15616 521.41 3.1235 522.106 3.05816C520.822 3.09837 519.955 3.12601 519.196 3.14862C518.794 3.04308 518.454 2.96016 518.082 2.86216C518.423 2.80939 518.825 2.74656 519.243 2.68374C518.314 2.68626 517.602 2.74154 517.478 2.88478C516.921 2.91493 516.472 2.94006 516.024 2.96519C516.055 2.98529 516.085 3.00791 516.101 3.02801C514.987 2.95011 513.872 2.87221 512.773 2.7918C512.789 2.7717 512.789 2.75159 512.804 2.734C514.12 2.734 515.451 2.734 516.766 2.734C516.766 2.72395 516.751 2.71139 516.751 2.70133C515.141 2.67621 513.532 2.65108 511.922 2.62846C512.046 2.58574 512.185 2.56564 512.324 2.56815C513.841 2.58323 515.374 2.59579 516.89 2.62092C517.664 2.63349 518.423 2.66867 519.196 2.6938C519.413 2.734 519.614 2.77421 519.831 2.81442C519.908 2.80436 519.986 2.7918 520.063 2.78175C519.893 2.74154 519.723 2.69883 519.552 2.65862C521.859 2.55308 523.995 2.69128 524.072 2.96016C524.521 2.93252 524.97 2.90488 525.697 2.85965C525.202 2.82195 524.892 2.79934 524.505 2.76919C524.815 2.72144 525.124 2.67872 525.48 2.62595C524.892 2.60836 524.397 2.5958 523.902 2.58072C523.809 2.60585 523.685 2.65862 523.608 2.65611C522.896 2.63349 522.199 2.59831 521.487 2.57318C520.651 2.54302 519.816 2.52041 518.98 2.49277C519.011 2.46262 519.042 2.43246 519.073 2.4023C520.574 2.44502 522.091 2.48774 523.592 2.52795C523.05 2.46261 522.54 2.35457 521.936 2.33698C520.094 2.28421 518.237 2.26158 516.38 2.23646C515.59 2.22641 514.832 2.37969 513.965 2.24149C513.625 2.1862 513.036 2.17866 512.371 2.13846C512.03 2.15102 511.365 2.17866 510.699 2.2063C510.529 2.08569 510.374 1.98769 510.235 1.88717C510.173 1.88717 510.111 1.88969 510.049 1.88969C510.003 1.96759 509.956 2.048 509.91 2.15353C508.672 2.09825 507.588 2.0681 506.319 2.16107C505.329 2.23395 503.92 2.12589 502.728 2.04548C503.75 2.05554 504.771 2.06307 505.793 2.07312C505.808 2.05302 505.839 2.0304 505.855 2.0103C504.973 1.9701 504.09 1.90979 503.193 1.89471C499.432 1.83692 495.671 1.79922 491.909 1.73892C490.284 1.71379 488.69 1.64091 487.08 1.61327C486.198 1.5982 485.301 1.64343 484.403 1.64594C482.654 1.64845 480.905 1.65097 479.156 1.63589C477.268 1.6183 475.379 1.57809 473.476 1.55045C470.612 1.51025 467.749 1.47255 464.824 1.43235C464.916 1.39465 465.025 1.35193 465.118 1.31424C464.994 1.29665 464.916 1.28157 464.855 1.28157C463.57 1.33183 462.44 1.41978 460.939 1.33184C459.453 1.24389 457.704 1.29916 456.079 1.27906C454.237 1.25644 452.395 1.20368 450.553 1.1886C447.442 1.16598 444.331 1.16096 441.22 1.15091C440.121 1.14839 439.038 1.14588 437.939 1.14839C437.49 1.14839 437.041 1.15844 436.608 1.20116C439.069 1.23132 441.545 1.26398 444.006 1.29414C444.006 1.31173 444.006 1.32932 444.006 1.34439C442.551 1.34439 441.096 1.34439 439.626 1.34439C439.611 1.3645 439.58 1.3846 439.564 1.4047C440.74 1.43988 441.917 1.48763 443.109 1.51024C445.09 1.54794 447.071 1.58312 449.052 1.5982C450.507 1.60825 451.962 1.5806 453.417 1.57055C453.633 1.56804 453.881 1.55799 454.051 1.57055C455.97 1.72132 458.044 1.70625 460.072 1.74394C460.18 1.74645 460.273 1.76655 460.335 1.77409C459.964 1.8143 459.561 1.85451 459.174 1.89722C459.252 1.92235 459.329 1.94748 459.391 1.97261C452.333 1.9324 445.291 1.89219 438.233 1.85199C438.233 1.83188 438.233 1.81178 438.233 1.79168C441.236 1.79168 444.238 1.79168 447.226 1.79168C438.156 1.61076 429.07 1.61326 420 1.74896C420 1.76906 419.985 1.78917 419.985 1.80676C423.483 1.80676 426.981 1.80676 430.479 1.80676C430.479 1.8344 430.463 1.86204 430.463 1.88969C428.002 1.88969 425.526 1.89722 423.065 1.88717C421.084 1.87712 419.103 1.84445 417.122 1.82435C416.054 1.8143 414.986 1.80173 413.918 1.79922C411.039 1.78917 408.176 1.78666 405.297 1.77158C404.941 1.76907 404.6 1.70624 404.043 1.64844C405.916 1.69368 407.433 1.72886 408.934 1.76404C408.934 1.75399 408.949 1.74143 408.949 1.73137C408.284 1.70122 407.634 1.66855 406.968 1.6384C407.015 1.61327 407.061 1.58562 407.108 1.5605C407.603 1.57557 408.083 1.60321 408.578 1.6007C409.723 1.59568 410.869 1.57306 412.122 1.55799C412.122 1.45245 412.122 1.33937 412.122 1.19362C413.438 1.25896 414.723 1.32429 416.023 1.38962C416.023 1.40721 416.007 1.4248 416.007 1.44239C415.079 1.44239 414.134 1.44239 413.206 1.44239C413.19 1.46501 413.159 1.48511 413.144 1.50773C413.593 1.53537 414.042 1.58814 414.49 1.58814C417.106 1.58563 419.722 1.57809 422.322 1.55547C424.458 1.53537 426.578 1.48009 428.714 1.4625C430.045 1.44993 431.361 1.43234 432.692 1.57809C433.28 1.64091 434.58 1.50019 435.555 1.45245C435.54 1.42983 435.525 1.40973 435.509 1.38712C435.277 1.36701 435.045 1.3469 434.72 1.31675C435.06 1.27152 435.308 1.23634 435.726 1.18106C435.323 1.15844 435.06 1.14588 434.565 1.12075C435.153 1.04536 435.617 0.985053 436.02 0.932285C435.741 0.912181 435.277 0.879514 434.797 0.846849C434.828 0.826745 434.843 0.80413 434.874 0.784026C436.267 0.784026 437.645 0.784026 439.038 0.784027C439.038 0.80413 439.053 0.824237 439.053 0.844341C438.45 0.869468 437.831 0.897109 437.227 0.922239C440.09 1.05039 442.969 1.09814 445.864 0.929777C445.461 0.919725 445.074 0.912183 444.672 0.902132C445.043 0.791567 445.043 0.79157 448.68 0.844341C448.309 0.851879 447.922 0.856901 447.551 0.864441C447.195 0.871979 446.839 0.882032 446.483 0.88957C446.498 0.912185 446.498 0.934799 446.514 0.957414C448.371 0.957414 450.213 0.957415 452.24 0.957415C451.915 0.919722 451.699 0.89711 451.374 0.859417C451.683 0.816698 451.931 0.781519 452.163 0.748852C452.163 0.728748 452.178 0.708641 452.178 0.688538C450.708 0.670948 449.238 0.650852 447.845 0.633262C447.907 0.615673 448.077 0.572948 448.355 0.50259C447.597 0.532743 447.009 0.555364 446.591 0.570442C446.421 0.625725 446.297 0.706133 446.142 0.708645C445.09 0.716182 443.836 0.771469 442.985 0.696083C440.663 0.487516 438.512 0.731258 436.283 0.713668C433.822 0.691051 431.361 0.693564 428.9 0.683515C427.259 0.675975 425.51 0.603102 423.994 0.675975C422.833 0.731259 421.997 0.716181 420.821 0.645823C421.27 0.593052 421.579 0.560383 421.889 0.525202C421.873 0.507613 421.858 0.490027 421.858 0.474951C419.18 0.515156 416.503 0.552849 413.701 0.593054C414.134 0.630747 414.583 0.670952 415.017 0.711159C414.939 0.731261 414.877 0.756386 414.846 0.753872C413.082 0.693564 411.24 0.670952 409.584 0.560387C408.114 0.462385 406.659 0.432226 405.142 0.422174C405.003 0.422174 404.863 0.452329 404.6 0.484995C405.111 0.500072 405.482 0.512644 405.838 0.522695C405.838 0.540285 405.854 0.557871 405.854 0.572946C404.26 0.585512 402.604 0.653362 401.071 0.600591C397.682 0.485 394.4 0.585513 391.073 0.645822C389.819 0.668437 388.287 0.789052 387.203 0.527717C387.064 0.495049 386.414 0.487514 386.213 0.515155C384.975 0.686028 383.845 0.459868 382.638 0.495047C382.08 0.510125 381.461 0.462386 380.873 0.444796C380.842 0.469924 380.827 0.495049 380.796 0.520179C381.926 0.572947 383.055 0.62572 384.185 0.678489C384.185 0.68854 384.185 0.698594 384.185 0.711158C383.675 0.711158 383.164 0.718694 382.653 0.708642C382.111 0.69859 381.585 0.675977 381.028 0.686026C384.232 1.00013 387.714 0.758895 391.073 0.854385C390.392 0.861922 389.711 0.86695 389.03 0.879514C388.38 0.892077 387.73 0.914691 387.08 0.932282C387.095 0.949872 387.095 0.969975 387.111 0.987565C390.02 1.01269 392.93 1.03531 395.84 1.06044C395.84 1.08305 395.84 1.10818 395.84 1.1308C395.577 1.14336 395.314 1.15593 395.051 1.16598C395.035 1.18357 395.02 1.20116 394.989 1.22127C395.484 1.23132 395.995 1.24388 396.49 1.2489C397.094 1.25393 397.697 1.2489 398.347 1.29413C397.125 1.31926 395.917 1.35444 394.695 1.36701C392.961 1.38209 391.212 1.39716 389.479 1.37706C388.952 1.37204 387.358 1.48008 388.008 1.16849C388.039 1.15593 387.59 1.09059 387.405 1.09311C386.894 1.10065 385.934 1.13834 385.934 1.15341C385.981 1.29413 385.516 1.23383 385.176 1.2288C384.232 1.21624 383.303 1.20116 382.359 1.19865C382.065 1.19865 381.755 1.23383 381.368 1.25896C383.458 1.29665 385.393 1.33183 387.327 1.36701C387.312 1.39214 387.296 1.41475 387.296 1.43988C384.495 1.39968 381.616 1.48762 378.907 1.21623C379.542 1.21623 380.177 1.21623 380.796 1.21623C379.588 1.12075 378.49 1.02023 377.081 1.10065C375.688 1.17854 374.171 1.21372 372.716 1.09813C372.438 1.07551 372.082 1.08054 371.463 1.06546C372.066 1.13582 372.422 1.17854 372.763 1.21875C372.716 1.2288 372.654 1.23885 372.608 1.2489C371.509 1.19613 370.333 1.07552 369.358 1.11572C368.537 1.14839 367.794 1.14337 367.052 1.13583C365.272 1.11824 363.507 1.06797 361.743 1.05038C359.824 1.03028 357.889 1.04034 355.97 1.02275C355.072 1.01521 354.205 0.982543 353.385 1.07301C353.276 1.08557 353.029 1.05793 352.565 1.0328C353.184 1.00013 353.493 0.985053 353.818 0.967464C353.803 0.94736 353.803 0.929769 353.787 0.909666C347.859 1.10567 341.931 1.01772 335.988 1.0328C335.988 1.00516 335.973 0.977513 335.973 0.949872C336.824 0.949872 337.66 0.949872 338.666 0.949872C337.195 0.663407 335.756 0.972489 334.363 0.897103C334.58 0.922232 334.812 0.947358 335.028 0.972485C335.013 0.995101 335.013 1.01521 334.997 1.03782C331.159 0.99259 327.305 0.947357 323.467 0.902126C323.482 0.892075 323.513 0.882025 323.529 0.871973C323.157 0.899614 322.786 0.947357 322.399 0.949871C320.975 0.959923 319.551 0.959925 318.127 0.952385C316.703 0.944847 315.279 0.907154 313.87 0.919717C311.951 0.934795 310.063 0.997619 308.144 1.01772C307.37 1.02526 306.488 1.00515 305.807 0.944846C304.274 0.809154 302.85 0.836791 301.009 0.957408C301.659 0.990075 301.937 1.00516 302.231 1.01772C302.216 1.03029 302.2 1.04285 302.185 1.0529C301.519 1.03782 300.854 1.02023 300.049 1.00013C300.343 0.954898 300.513 0.929769 300.684 0.904639C300.451 0.874486 300.219 0.816693 300.003 0.821719C299.058 0.839309 298.114 0.889562 297.17 0.894587C296.675 0.897099 296.18 0.816691 295.653 0.79659C293.765 0.726229 291.877 0.663403 289.973 0.603095C289.292 0.580479 288.596 0.572939 287.915 0.547812C287.744 0.540274 287.636 0.484995 287.713 0.505097C286.847 0.505097 286.197 0.515147 285.577 0.502583C284.633 0.482479 283.705 0.429713 282.76 0.419661C282.389 0.414635 282.002 0.484995 281.754 0.567919C282.435 0.567919 283.116 0.567919 283.798 0.567919C283.798 0.580483 283.813 0.590531 283.813 0.603094C283.457 0.615658 283.101 0.628224 282.652 0.643301C283.565 0.721199 284.386 0.789048 285.19 0.856894C285.16 0.884537 285.129 0.91469 285.098 0.942332C283.565 0.942332 282.049 0.942331 280.625 0.942331C280.717 0.949869 280.95 0.964945 281.337 0.995098C279.34 0.964945 277.498 0.924742 275.672 0.912178C274.728 0.904638 273.768 0.962438 272.839 0.954899C271.183 0.939821 269.651 1.08054 268.026 1.05038C266.323 1.01771 264.636 0.947357 262.918 0.904638C261.463 0.866946 259.993 0.844331 258.538 0.811664C256.185 0.758895 253.848 0.701096 251.465 0.598071C252.022 0.585505 252.595 0.570428 253.152 0.557864C253.167 0.542786 253.183 0.527711 253.183 0.512635C251.31 0.484994 249.422 0.457347 247.487 0.429705C247.58 0.40709 247.75 0.371914 247.889 0.339247C247.27 0.261349 246.651 0.185959 246.032 0.108061C246.14 0.0879579 246.249 0.0703702 246.62 1.00641e-05C244.778 0.0477547 243.231 0.0904755 241.451 0.135706C242.178 0.175911 242.689 0.203555 243.2 0.231196C243.215 0.246273 243.231 0.263863 243.262 0.278941C241.962 0.326685 240.661 0.376938 239.361 0.424683C239.284 0.399554 239.222 0.374428 239.145 0.349301C239.609 0.291504 240.073 0.233704 240.63 0.163344C240.166 0.140728 239.64 0.0980112 239.083 0.0929854C238.371 0.0854456 237.643 0.110579 236.931 0.12063C237.504 0.175913 238.123 0.236216 238.696 0.288986C237.736 0.61063 236.405 0.392017 235.244 0.386992C234.687 0.384478 234.145 0.356836 233.573 0.339247C233.294 0.123142 229.471 0.0954988 228.063 0.346784C230.493 0.145756 232.598 0.397041 234.842 0.472427C231.607 0.507606 228.341 0.469911 225.122 0.540271C225.122 0.562887 225.137 0.585504 225.137 0.605608C227.227 0.605608 229.316 0.605608 231.39 0.605608C231.39 0.618172 231.406 0.628227 231.406 0.640791C231.112 0.653354 230.818 0.665912 230.524 0.68099C230.508 0.701093 230.493 0.721201 230.477 0.741304C231.824 0.882023 233.48 0.675964 235.028 0.869453C234.532 0.706118 233.929 0.593044 235.26 0.59053C235.879 0.59053 236.498 0.580479 237.102 0.565401C238.541 0.527708 239.145 0.645811 239.036 0.909661C238.108 0.929764 237.071 0.952381 236.034 0.974997C241.25 1.00766 246.28 1.24388 251.403 1.40218C249.313 1.60321 247.038 1.44992 244.871 1.49013C242.751 1.53033 240.569 1.46249 238.2 1.43987C239.098 1.35695 239.857 1.28659 240.63 1.21372C240.584 1.18859 240.538 1.16095 240.491 1.13582C237.783 1.5429 234.594 1.41726 231.514 1.43987C231.499 1.29916 233.077 1.465 232.536 1.2489L232.567 1.25392C231.7 1.29412 230.833 1.33433 229.858 1.37956C230.013 1.40469 230.137 1.42479 230.26 1.4449C229.192 1.31674 227.83 1.68864 226.855 1.38208C226.809 1.36951 226.577 1.35695 226.499 1.367C225.199 1.50018 223.791 1.43736 222.429 1.43484C220.912 1.43484 219.395 1.41223 217.863 1.40972C215.123 1.40218 212.384 1.40469 209.644 1.39715C209.103 1.39464 208.483 1.45495 208.05 1.30669C207.926 1.26146 206.765 1.27402 206.177 1.31172C204.877 1.39464 203.747 1.31172 202.602 1.23633C201.735 1.43485 200.683 1.30418 199.708 1.30418C199.692 1.28408 199.677 1.26146 199.677 1.24136C200.667 1.24136 201.642 1.24136 202.633 1.24136C203.453 1.2313 204.274 1.22126 205.094 1.21372C205.419 1.21121 205.775 1.22125 206.084 1.20869C206.286 1.19864 206.425 1.15592 206.595 1.12577C206.409 1.10064 206.255 1.05792 206.053 1.05038C205.512 1.02525 204.707 1.09561 204.676 0.914689C204.676 0.909665 204.521 0.899607 204.444 0.902121C203.345 0.904633 202.169 0.954896 201.178 0.899613C199.305 0.79156 197.51 0.992588 195.622 0.884537C194.879 0.841818 193.811 0.974999 192.82 1.03279C195.606 1.05792 198.315 1.08305 201.008 1.10818C201.008 1.13079 201.008 1.15341 201.008 1.17351C198.717 1.17351 196.442 1.171 194.151 1.17351C192.588 1.17603 191.04 1.18607 189.477 1.1911C185.283 1.20366 181.088 1.21372 176.909 1.22879C175.052 1.23382 173.21 1.24638 171.353 1.25141C171.012 1.25141 170.672 1.24387 169.944 1.23382C170.734 1.14084 171.229 1.08304 171.647 1.0353C170.888 0.997607 170.114 0.949866 169.325 0.929765C169 0.922225 168.629 1.00515 168.288 1.00515C167.158 1.00012 166.028 0.982531 164.898 0.957402C164.279 0.942324 163.676 0.874478 163.088 0.879504C160.967 0.897093 158.847 0.947352 156.711 0.959917C155.411 0.967455 154.095 0.937298 152.81 0.902119C152.222 0.887041 151.634 0.768942 151.108 0.781506C150.257 0.801609 149.467 0.892071 148.957 0.929764C148.167 0.879507 147.594 0.814173 147.006 0.811659C143.864 0.794069 140.722 0.789039 137.58 0.784013C135.352 0.781501 133.123 0.784013 131.157 0.784013C131.219 0.781501 131.56 0.768939 132.039 0.748838C131.157 0.721196 130.445 0.693555 129.718 0.678477C129.579 0.675965 129.408 0.711141 129.254 0.72873C129.377 0.748834 129.501 0.768941 129.857 0.82925C127.319 0.791558 125.028 0.756371 122.737 0.721192C122.722 0.706115 122.706 0.693555 122.691 0.678477C123.589 0.665913 124.486 0.65335 125.338 0.640786C125.106 0.593041 124.78 0.527703 124.425 0.454831C122.443 0.660884 120.431 0.806634 118.063 0.718684C118.125 0.628222 118.202 0.532727 118.28 0.437237C118.202 0.4297 118.125 0.424678 118.048 0.41714C117.738 0.520165 117.413 0.623194 117.104 0.726222C116.02 0.726222 114.736 0.716166 113.451 0.72873C111.841 0.746319 110.232 0.78653 108.622 0.811657C106.563 0.846838 104.536 0.844322 102.57 0.698576C102.199 0.670935 101.641 0.718679 101.162 0.731245C101.162 0.751346 101.162 0.771448 101.177 0.79155C101.703 0.806627 102.214 0.821711 102.74 0.836788C102.74 0.846838 102.725 0.859396 102.725 0.869448C101.75 0.851858 100.728 0.861912 99.8151 0.809141C97.5863 0.678474 95.373 0.703601 93.0978 0.839294C93.9491 0.854372 94.8004 0.869455 95.6362 0.884533C95.6362 0.907148 95.6516 0.927246 95.6516 0.949861C92.8966 0.949861 90.1571 0.949861 87.4021 0.949861C87.3866 0.98504 87.3711 1.01771 87.3711 1.05289C88.1605 1.07299 88.9808 1.12827 89.7237 1.10817C91.3179 1.06294 92.8038 1.01771 94.4134 1.12325C95.1564 1.17099 96.1933 1.08556 97.1065 1.06043C97.3232 1.0554 97.5399 1.05791 97.7566 1.05791C99.3508 1.05791 100.945 1.03028 102.524 1.06294C105.232 1.11571 107.848 0.985041 110.541 0.997607C111.702 1.00263 112.878 0.919712 114.055 0.907147C115.448 0.889557 116.856 0.902117 118.326 0.902117C117.274 1.18356 116.748 1.21371 114.813 1.09812C115.618 1.05289 116.237 1.02022 116.856 0.985045C116.84 0.974993 116.825 0.967452 116.825 0.9574C115.664 0.987553 114.503 1.01771 113.343 1.04787C113.343 1.07048 113.343 1.09058 113.343 1.1132C114.132 1.15089 114.937 1.18858 115.989 1.23884C112.754 1.23884 109.798 1.23884 106.826 1.23884C106.826 1.38458 106.099 1.28658 105.557 1.27151C105 1.25643 104.458 1.24135 103.901 1.23381C103.499 1.22879 103.112 1.23381 102.771 1.23381C101.92 1.27151 100.759 1.38458 100.31 1.32679C99.552 1.22879 99.0258 1.30668 98.4376 1.3092C96.472 1.31925 94.5218 1.33182 92.5716 1.35946C89.8166 1.39966 87.077 1.45494 84.3375 1.50017C82.8981 1.5253 81.4896 1.53787 80.53 1.2891C80.4062 1.25392 79.9728 1.25392 79.493 1.22879C79.8954 1.31172 80.174 1.36448 80.7003 1.47002C79.9883 1.49264 79.4775 1.52782 78.9668 1.52028C76.3975 1.49013 73.8282 1.45243 71.2589 1.41222C70.2993 1.39714 69.3552 1.36699 68.411 1.35192C66.6466 1.32679 64.8821 1.30669 63.0558 1.33182C63.4118 1.36197 63.7832 1.38961 64.325 1.43484C63.8761 1.59063 63.4272 1.74643 62.9629 1.89972C63.938 1.87961 64.6654 1.69869 65.7953 1.76151C65.9965 1.77156 66.2906 1.73136 66.693 1.70121C66.0894 1.65346 65.687 1.62331 65.2845 1.59064C69.8195 1.42982 74.1842 1.77659 78.6572 1.56551C78.6572 1.58813 78.6572 1.60822 78.6572 1.63084C77.0166 1.66099 75.3759 1.68864 73.7353 1.71879C73.7508 1.74141 73.7663 1.76151 73.7817 1.78413C74.0913 1.77659 74.4008 1.76152 74.6949 1.76403C75.0974 1.76905 75.4998 1.78915 75.9177 1.80423C81.598 1.80423 87.2782 1.80423 92.9431 1.80423C90.2809 1.85951 87.6033 1.86705 84.9257 1.87962C83.4553 1.88464 82.0004 1.90726 80.53 1.89469C78.9977 1.88213 77.4655 1.83439 75.9332 1.80172C75.7165 1.80172 75.4533 1.78664 75.2831 1.80172C73.7198 1.94244 72.1876 1.93741 70.5469 1.82182C70.0981 1.79166 69.3706 1.88716 68.767 1.92736C67.7145 1.96003 66.5073 1.94495 65.3465 1.96505C64.5107 1.98013 63.7058 2.04797 62.8701 2.08064C62.5141 2.0932 61.833 2.12587 62.2819 1.98013C61.1056 1.92233 61.1056 1.92233 58.8149 2.09823C58.2887 2.03541 57.9172 1.96254 57.4684 1.94244C56.4469 1.89972 55.3944 1.86453 54.3574 1.85951C53.568 1.85448 52.6548 1.955 51.9738 1.91479C50.6891 1.84192 49.4819 1.92485 48.2592 1.90475C47.2531 1.88715 46.2625 1.84443 45.241 1.84443C46.9281 2.13341 49.1104 1.86203 50.9059 2.01531C50.0391 2.18367 49.8998 2.18618 48.9711 2.0731C47.7948 2.13844 46.9281 2.20377 46.0304 2.2289C41.7896 2.34951 37.5487 2.4651 33.3078 2.56562C31.6208 2.60582 29.9027 2.59577 28.2002 2.61588C27.1787 2.62844 26.1572 2.65357 24.7642 2.68121C25.6 2.73398 26.0953 2.76413 26.6525 2.80183C25.1202 2.94506 23.7272 3.10839 22.2104 3.20137C20.74 3.29183 19.1149 3.31696 17.5671 3.36219C16.3134 3.39989 15.0443 3.42753 13.8215 3.51045C15.7407 3.49035 17.66 3.46773 19.8732 3.44511C19.4863 3.49286 19.347 3.51045 19.1613 3.53307C20.1209 3.55568 21.3746 3.5205 21.9008 3.61096C23.139 3.82204 24.207 3.6386 25.3833 3.64112C24.5165 3.91753 22.7366 3.85974 21.6841 3.83713C19.9971 3.79943 18.2946 3.812 16.6229 3.7743C16.0038 3.75923 15.3848 3.74666 14.7657 3.73158C14.7347 3.76676 14.7192 3.79943 14.6882 3.83461C15.7562 3.85974 16.8242 3.87733 17.8766 3.91502C18.4957 3.93764 19.0684 3.99292 19.6875 4.02559C19.8733 4.03564 20.1209 4.01554 20.3376 4.01554C21.6686 4.01051 23.0926 3.93261 24.176 4.19646C22.3961 4.19646 20.6781 4.21907 19.0065 4.19143C17.3195 4.16379 15.6633 4.08589 14.162 4.03563C13.9608 3.91251 13.7441 3.78687 13.4191 3.58584C12.0725 3.96528 10.3081 3.84215 8.46625 3.87984C8.57459 3.77681 8.48175 3.66876 8.76032 3.62102C9.53424 3.47778 9.08539 3.44763 8.32697 3.41748C8.06384 3.40742 7.83167 3.37978 7.66138 3.36722C7.10419 3.46773 6.50061 3.57578 5.86603 3.68886C5.94342 3.6964 6.25299 3.73409 6.34583 3.74414C7.02686 3.68635 7.56854 3.64112 8.38886 3.57327C8.18762 3.72907 8.07929 3.80948 7.95545 3.90497C6.87207 3.92759 5.75769 3.95522 4.64331 3.97281C3.45154 3.99292 3.08008 4.11605 3.77655 4.31205C3.37415 4.29446 3.06458 4.27938 2.75501 4.26682C2.70856 4.27436 2.67761 4.2819 2.63117 4.29195C3.01813 4.34472 3.35864 4.41256 3.79199 4.44523C4.38013 4.49046 5.03021 4.52815 5.6648 4.5382C7.10425 4.56333 8.55914 4.56836 9.99854 4.58093C10.8962 4.58846 11.8094 4.59097 12.7226 4.60103C15.3383 4.63369 17.954 4.66636 20.5543 4.70657C22.6283 4.73672 24.7178 4.78195 26.7917 4.81462C27.7978 4.83221 28.8038 4.83975 29.8098 4.90257C28.0609 4.91765 26.2964 4.93272 24.6094 4.9478C24.4391 4.97544 24.2534 5.03073 24.0212 5.03827C22.4735 5.08099 20.8948 5.09857 19.3625 5.15134C18.1397 5.19406 16.9789 5.27698 15.7717 5.33729C14.2858 5.41016 12.7845 5.4755 11.2832 5.54084C11.2058 5.54335 11.0975 5.54084 11.0201 5.5333C10.1688 5.4353 9.31751 5.33729 8.31146 5.2217C7.19708 5.28703 6.0827 5.39509 5.78864 5.65391C6.33032 5.73432 6.87207 5.8097 7.39832 5.8876L7.38281 5.8851C8.31146 5.91525 9.24011 5.94541 10.1069 5.97305C9.73541 6.01828 9.20923 6.08361 8.57465 6.16151C8.86871 6.23438 9.14728 6.30474 9.50324 6.38767C9.13178 6.41782 8.72937 6.45049 8.34241 6.48315C9.59613 6.50074 10.8034 6.51833 11.9952 6.53592C11.9952 6.55854 11.9951 6.58367 12.0106 6.60628C11.6701 6.61131 11.3141 6.61885 10.9736 6.62387C9.47229 6.64146 7.98645 6.65654 6.48511 6.67664C5.52551 6.68921 4.55042 6.69172 3.63727 6.73192C2.52289 6.78218 1.4549 6.87013 5.6986e-07 6.9631C1.4704 7.14654 2.56928 7.28223 3.52893 7.40285C2.50739 7.53854 1.4704 7.67927 0.495301 7.80742C3.04913 7.91548 5.5874 8.01096 8.07935 8.12907C10.6022 8.24968 13.125 8.31502 15.7253 8.36025C18.2172 8.40548 20.6781 8.32004 23.1235 8.37281C23.139 8.40046 23.139 8.42809 23.1545 8.45574C17.9385 8.58138 12.7226 8.70451 7.70783 8.82512C7.50659 8.86533 7.30548 8.90805 7.0733 8.95328C10.2307 8.898 13.4036 8.8779 16.6694 9.0161C15.4002 9.08395 14.3323 9.14426 13.2488 9.19703C12.7845 9.21964 12.1808 9.25985 11.8404 9.22718C9.95209 9.04123 8.04834 9.22467 6.14459 9.22216C7.75427 9.25231 9.37946 9.28246 10.9891 9.31262C10.9891 9.32769 11.0046 9.34026 11.0046 9.35534C9.14728 9.37042 7.27448 9.38801 5.41718 9.40308C5.41718 9.43072 5.40167 9.45836 5.40167 9.486C7.11969 9.52872 8.83771 9.57145 10.6641 9.61668C10.4009 9.68452 10.2307 9.72975 10.0604 9.77247C11.7166 9.79258 13.2953 9.81519 14.9978 9.83529C14.7502 9.86545 14.5954 9.88555 14.1156 9.94837C17.8148 9.92324 21.0341 10.0338 23.9284 10.4007C20.8948 10.373 17.8612 10.3454 14.8121 10.3203L14.8275 10.3203C14.518 10.358 14.2084 10.3957 13.8989 10.4334C17.4432 10.4987 20.9876 10.5615 24.5475 10.6268C24.5475 10.652 24.532 10.6746 24.532 10.6997C21.8389 10.7952 19.1303 10.8932 16.4372 10.9887C16.4527 11.0163 16.4681 11.044 16.4681 11.0716C19.5947 11.0716 22.7366 11.0716 25.8631 11.0716C25.9095 11.1018 25.9714 11.1319 26.0179 11.1621C25.5071 11.2199 25.0118 11.2777 24.501 11.3355C25.3214 11.436 26.1262 11.534 26.931 11.632C26.8846 11.6571 26.8382 11.6822 26.7917 11.7074C23.2009 11.5264 19.6101 11.5516 16.0038 11.7049C19.1303 11.7049 22.2723 11.7049 25.3987 11.7049C25.3987 11.725 25.4142 11.7476 25.4142 11.7677C23.139 11.8054 20.8793 11.8456 18.4183 11.8883C20.9412 11.9411 23.2628 11.9888 25.8011 12.0441C23.2319 12.4009 20.4769 12.1572 17.7064 12.2753C18.7589 12.2878 19.5482 12.2979 20.4614 12.3104C20.2448 12.3532 20.1209 12.3783 19.9352 12.416C20.5853 12.416 21.1733 12.416 21.746 12.416C21.746 12.4461 21.7306 12.4788 21.7306 12.509C18.6041 12.4788 15.4776 12.4487 12.3511 12.4185C12.3511 12.4336 12.3357 12.4512 12.3357 12.4662C14.6573 12.5065 16.9944 12.5441 19.316 12.5844C19.3005 12.5919 19.3006 12.5969 19.2851 12.5994C19.2542 12.6045 19.1923 12.6019 19.1613 12.607C19.0839 12.617 19.0065 12.6296 18.7898 12.6622C19.7184 12.6622 20.4459 12.6622 21.1733 12.6622C21.2043 12.6824 21.2353 12.7025 21.2662 12.7226C20.4924 12.7577 19.7339 12.8055 18.9446 12.8256C17.8457 12.8532 16.7313 12.8633 15.6324 12.8784C14.7037 12.8909 13.7906 12.901 12.8309 12.9462C18.6505 13.0794 24.4701 13.21 30.2742 13.3432C30.2587 13.3608 30.2588 13.3759 30.2433 13.3935C25.1666 13.4287 20.0745 13.4638 14.9978 13.499C14.9824 13.5116 14.9823 13.5267 14.9669 13.5392C15.524 13.5568 16.0812 13.5769 16.8706 13.6021C16.2051 13.6171 15.7717 13.6272 14.9978 13.6448C16.7778 13.68 18.2171 13.7076 19.6566 13.7377C19.6566 13.7754 19.6411 13.8131 19.6411 13.8508C18.5422 13.8508 17.4278 13.8508 16.3289 13.8508C16.2979 13.8684 16.2825 13.886 16.2515 13.9036C16.4836 13.9287 16.7158 13.9539 17.0718 13.9941C16.7003 14.0544 16.3289 14.1122 15.9729 14.17C16.267 14.3057 16.5765 14.4514 16.9171 14.6097C16.4991 14.5971 16.0967 14.5821 15.6943 14.5695C15.6788 14.5871 15.6633 14.6047 15.6633 14.6223C17.5052 14.6675 19.347 14.7127 21.1115 14.7554C21.2507 14.7203 21.2043 14.7328 21.1579 14.7429C21.1115 14.7529 21.065 14.763 20.9722 14.7806C21.6068 14.7806 22.2104 14.7806 22.9533 14.7806C22.5508 14.758 22.2723 14.7404 21.9937 14.7228C22.0092 14.7102 22.0092 14.6977 22.0246 14.6851C23.9129 14.7052 25.8012 14.7253 27.674 14.7479C27.674 14.763 27.674 14.7806 27.674 14.7957C26.4048 14.7957 25.1202 14.7957 23.851 14.7957C23.8355 14.8057 23.8046 14.8158 23.7891 14.8258C24.2844 14.8509 24.7797 14.8786 25.4297 14.9112C24.6094 14.9515 23.9283 14.9841 23.2319 15.0168C23.2164 15.0344 23.2009 15.052 23.2009 15.0696C25.4297 15.1726 27.643 15.2756 29.8718 15.3786C29.8563 15.4088 29.8408 15.4389 29.8253 15.4691C29.0824 15.4616 28.324 15.4616 27.5811 15.449C26.7608 15.4339 25.925 15.4214 25.1356 15.3811C24.4236 15.346 23.7736 15.2756 23.0926 15.2228C23.0306 15.253 22.9533 15.2831 22.8914 15.3133C24.6249 15.4314 26.3429 15.5596 28.1074 15.6651C29.1598 15.7279 29.5158 15.8284 28.9741 16.0722C32.7197 16.1074 36.3878 16.1275 40.0406 16.1827C40.9073 16.1953 41.7121 16.3235 42.5324 16.3938C41.6657 16.4164 40.7835 16.4416 39.7465 16.4692C40.0251 16.5069 40.2263 16.532 40.5204 16.5722C34.8401 16.5722 29.2372 16.5722 23.6807 16.5722C23.7426 16.5848 23.9283 16.6275 24.2998 16.7054C22.7675 16.6677 21.4984 16.6376 19.8732 16.5974C20.6162 16.816 21.4674 16.8461 22.3651 16.8637C23.108 16.8788 23.9594 16.8185 24.3618 17.022C24.4856 17.0823 25.6154 17.0798 26.2964 17.1024C27.0239 17.1276 28.0764 17.0447 28.0454 17.3085C28.0454 17.3562 29.2682 17.4115 29.9492 17.4542C30.2588 17.4743 30.785 17.4467 30.9397 17.4794C31.9767 17.6955 33.3233 17.5673 34.5151 17.5874C36.6664 17.6251 38.8179 17.6427 40.9692 17.6678C40.9692 17.703 40.9847 17.7407 40.9847 17.7759C39.7465 17.8086 38.5238 17.8387 37.0844 17.8764C38.2761 18.0825 39.406 17.9342 40.4585 17.9141C41.2633 17.899 42.0681 17.8488 42.873 17.8437C45.5351 17.8211 48.2128 17.8086 50.8749 17.7935C51.138 17.791 51.6178 17.7859 51.6333 17.7935C51.8345 17.9669 52.4072 17.8463 52.8251 17.8463C55.3789 17.8463 57.9327 17.8463 60.4865 17.8463C62.8701 17.8463 65.2381 17.8387 67.6217 17.8513C70.7172 17.8664 73.8282 17.894 76.9237 17.9191C78.3941 17.9267 79.849 17.9342 81.3194 17.9417C81.3039 17.9618 81.3039 17.9819 81.2884 18.0021C79.6168 18.0196 77.9607 18.0372 76.413 18.0523C76.5987 18.0046 76.769 17.9568 76.9547 17.9116C75.9486 17.9769 74.7104 17.9216 73.9365 18.1277C73.7353 18.183 72.6983 18.1428 72.0483 18.1453C70.9648 18.1478 69.8659 18.1453 68.7825 18.1453C68.7825 18.1654 68.7825 18.1855 68.7825 18.2056C71.7697 18.2056 74.7569 18.2056 77.5893 18.2056C77.6667 18.2156 77.5428 18.1981 77.1095 18.1403C81.1337 18.2232 84.9102 18.193 88.7486 18.3941C86.7675 18.6202 84.8482 18.5071 82.9755 18.5122C79.6632 18.5197 76.3511 18.5448 73.0388 18.5599C72.4507 18.5624 71.8625 18.5499 71.2899 18.5423C70.2838 18.5298 69.2623 18.5122 68.2563 18.5071C66.1358 18.4996 63.9999 18.4946 61.8795 18.4946C60.5329 18.4946 59.2019 18.5046 57.8553 18.5046C55.5027 18.5021 53.1656 18.482 50.813 18.4921C48.708 18.5021 46.5876 18.5423 44.4826 18.57C44.4981 18.5926 44.4981 18.6152 44.5136 18.6378C45.9066 18.6227 47.2841 18.5951 48.6771 18.5976C50.8285 18.6051 52.9799 18.6353 55.1313 18.6529C55.8742 18.6579 56.6016 18.6479 57.3445 18.6579C58.722 18.6805 60.0841 18.7157 61.4616 18.7383C62.1271 18.7509 62.7927 18.7459 63.4582 18.7484C64.9595 18.7559 66.4609 18.7785 67.9622 18.771C69.2004 18.7634 70.4232 18.6956 71.6459 18.6931C74.4473 18.6906 77.2488 18.7207 80.0502 18.7232C81.1336 18.7258 82.2326 18.6705 83.3005 18.678C84.9876 18.6906 86.6746 18.7559 88.3617 18.7609C90.6214 18.766 92.8966 18.7383 95.1563 18.7157C97.1994 18.6956 99.4127 18.5674 101.239 18.6654C103.468 18.7835 105.573 18.6755 107.693 18.7408C107.879 18.7459 108.034 18.7685 108.219 18.781C108.204 18.8011 108.188 18.8238 108.173 18.8439C106.269 18.8439 104.381 18.8439 102.477 18.8439C102.477 18.874 102.477 18.9042 102.477 18.9343C103.251 18.9343 104.025 18.9368 104.799 18.9343C109.845 18.9142 114.89 18.8866 119.936 18.8715C122.211 18.864 124.486 18.8841 126.746 18.874C128.155 18.8665 129.563 18.8238 130.972 18.8011C131.188 18.7986 131.42 18.8087 131.637 18.8238C132.473 18.879 133.154 19.0172 134.253 18.874C134.686 18.8187 135.63 18.8941 136.342 18.8966C137.302 18.8966 138.261 18.879 139.221 18.874C140.181 18.8715 141.14 18.8891 142.084 18.874C143.23 18.8564 144.375 18.8112 145.521 18.781C145.753 18.776 146.124 18.766 146.232 18.7886C146.944 18.9494 148.074 18.9268 148.941 18.9318C149.87 18.9368 149.699 18.9971 149.668 19.0876C149.761 19.0549 149.916 18.9921 149.932 18.9946C150.675 19.0424 151.232 19.0047 151.681 18.8941C151.727 18.8816 151.928 18.879 152.052 18.8841C153.786 18.9343 155.535 18.9871 157.423 19.0449C157.175 19.0826 157.098 19.1077 157.005 19.1102C155.705 19.1178 154.405 19.1228 153.089 19.1303C151.928 19.1379 150.736 19.2158 149.653 19.0801C149.576 19.1002 149.498 19.1354 149.436 19.1354C148.105 19.1102 146.79 19.0826 145.149 19.0474C144.159 19.1705 133.247 19.163 132.519 19.0323C131.513 19.0549 130.724 19.0725 129.935 19.0901C129.919 19.0776 129.904 19.0675 129.888 19.0549C130.12 19.0298 130.337 19.0072 130.569 18.9821C129.935 19.0022 129.223 18.9192 128.681 19.0851C128.464 19.1529 127.164 19.1203 126.359 19.1228C124.997 19.1278 123.635 19.1253 122.273 19.1253C122.273 19.1504 122.273 19.1781 122.273 19.2032C124.038 19.2032 125.802 19.2032 127.566 19.2032C128.263 19.2032 128.959 19.2107 129.656 19.2132C130.538 19.2158 131.436 19.2057 132.318 19.2183C133.216 19.2334 134.098 19.2761 134.98 19.3012C135.321 19.3112 135.708 19.3188 136.017 19.2987C137.673 19.2032 139.206 19.2484 140.846 19.3439C141.79 19.3992 142.951 19.3314 144.019 19.3188C144.344 19.3163 144.716 19.2911 144.979 19.3138C146.341 19.4243 147.842 19.4344 149.127 19.3515C151.278 19.2133 153.12 19.369 155.086 19.4595C153.166 19.4595 151.232 19.452 149.313 19.462C146.697 19.4746 144.066 19.4972 141.45 19.5148C136.776 19.5475 132.086 19.5952 127.412 19.6103C125.26 19.6178 123.124 19.5625 120.958 19.555C125.756 19.7636 130.631 19.8264 135.847 19.7384C135.46 19.7786 135.29 19.7987 135.12 19.8138C134.965 19.8264 134.81 19.8339 134.655 19.8716C137.642 20.0299 140.661 19.9093 143.648 19.9093C143.663 19.8842 143.663 19.8616 143.679 19.8364C142.75 19.8264 141.821 19.8188 140.893 19.8088C140.893 19.7937 140.893 19.7786 140.908 19.7661C148.802 19.7309 156.695 19.6957 164.589 19.6605L164.558 19.663C164.883 19.6505 165.193 19.6379 165.162 19.6404C166.028 19.6254 166.524 19.6178 167.003 19.6103C167.963 19.5952 168.907 19.565 169.867 19.565C173.102 19.5575 176.336 19.565 179.571 19.555C180.206 19.5525 180.825 19.4922 181.49 19.457C181.599 19.4696 181.831 19.5198 182.063 19.5198C184.54 19.5198 187.016 19.5123 189.492 19.5098C191.474 19.5073 193.47 19.5123 195.451 19.5148L195.42 19.5198C197.401 19.4344 199.352 19.3791 201.24 19.5801C201.596 19.6178 202.06 19.6429 202.494 19.6455C203.608 19.6505 204.722 19.6379 205.821 19.6329L205.852 19.6404C204.506 19.6078 203.144 19.5776 201.797 19.5449C201.813 19.5098 201.813 19.4771 201.828 19.4419C202.989 19.4419 204.274 19.3866 205.28 19.4545C207.029 19.5751 208.422 19.3389 210.031 19.4243C210.031 19.4042 210.031 19.3841 210.031 19.364C209.35 19.3414 208.654 19.3163 207.694 19.2836C209.629 19.2836 211.269 19.2836 212.91 19.2836C212.91 19.2937 212.91 19.3037 212.91 19.3138C212.167 19.3213 211.424 19.3314 210.681 19.3389C210.65 19.354 210.635 19.3716 210.604 19.3866C211.053 19.4243 211.517 19.4595 211.827 19.4846C211.579 19.5676 211.347 19.6505 211.115 19.7309L211.099 19.7234C211.594 19.7234 212.09 19.7234 212.57 19.7234C212.57 19.7158 212.57 19.7083 212.57 19.7007C212.275 19.6932 211.981 19.6857 211.533 19.6756C212.771 19.4268 214.055 19.4042 215.65 19.4897C216.439 19.5324 217.399 19.4771 218.281 19.4721C219.581 19.4645 220.896 19.4696 222.197 19.457C222.986 19.4495 223.76 19.4243 224.549 19.4093C224.534 19.3791 224.518 19.3515 224.503 19.3213C223.373 19.3389 222.243 19.3565 221.129 19.3741C221.129 19.3464 221.113 19.3188 221.113 19.2912C226.933 19.261 232.752 19.163 238.758 19.2836C238.448 19.3188 238.262 19.3615 238.077 19.359C235.91 19.3439 233.743 19.3188 231.561 19.3012C231.313 19.2987 231.05 19.3364 230.787 19.3414C230.214 19.3565 229.641 19.3791 229.084 19.3741C227.97 19.3615 226.855 19.3314 225.725 19.354C226.871 19.5776 228.403 19.4469 229.703 19.5223C229.688 19.5475 229.672 19.5776 229.657 19.6128C229.796 19.6103 229.858 19.6128 229.874 19.6103C231.065 19.3389 232.644 19.5625 234.022 19.5223C235.461 19.4796 236.993 19.5424 238.603 19.56C238.495 19.6027 238.417 19.6429 238.278 19.7058C240.197 19.7058 242.07 19.7058 243.958 19.7058C243.974 19.6882 244.005 19.6681 244.02 19.6505C242.596 19.6228 241.188 19.5952 239.764 19.5676C239.779 19.555 239.779 19.5424 239.795 19.5299C242.766 19.5299 245.754 19.5274 248.725 19.5324C249.994 19.5349 251.279 19.5349 252.517 19.5676C254.22 19.6128 255.876 19.7007 257.578 19.741C258.646 19.7661 259.745 19.7384 260.829 19.7359C261.695 19.7334 262.562 19.7359 263.46 19.7359C263.553 19.6907 263.677 19.6254 263.738 19.5952C264.218 19.6404 264.729 19.7133 264.837 19.6982C265.967 19.5349 267.144 19.6027 268.32 19.6605C268.382 19.6631 268.397 19.6832 268.444 19.6957C268.506 19.6756 268.552 19.6404 268.629 19.6379C269.558 19.6128 270.533 19.6078 271.446 19.5701C272.7 19.5173 273.18 19.6882 273.845 19.7987C274.449 19.8993 274.929 20.0576 275.78 19.849C275.827 19.8364 276.074 19.8314 276.152 19.8415C277.715 20.0651 279.03 19.8189 280.454 19.7736C282.234 19.7183 284.045 19.6832 285.81 19.6404C285.964 19.751 286.042 19.8138 286.104 19.8591C286.738 19.8163 287.28 19.7812 287.899 19.741C287.62 19.7284 287.326 19.7133 286.816 19.6882C287.388 19.6505 287.682 19.6279 287.992 19.6078C288.425 19.5776 288.952 19.5047 289.277 19.5249C289.973 19.5701 289.338 19.6354 289.246 19.7058C289.122 19.7912 289.431 19.9043 289.71 19.9897C289.772 20.0073 290.499 19.9445 290.917 19.9445C292.465 19.942 294.013 19.9495 295.56 19.9571C295.901 19.9596 296.412 20.0174 296.52 19.9948C297.882 19.7334 299.507 19.9922 301.009 19.9194C302.525 19.8465 304.182 19.8641 305.776 19.854C307.695 19.8415 309.614 19.8415 311.533 19.8314C311.688 19.8314 311.827 19.7862 311.967 19.7636C311.905 19.7384 311.858 19.7133 311.796 19.6857C313.669 19.7183 315.542 19.751 317.26 19.7812C317.09 19.7661 316.749 19.7384 316.424 19.7108C316.455 19.6907 316.471 19.6706 316.502 19.6505C317.105 19.6631 317.724 19.6932 318.313 19.6882C320.479 19.6706 322.646 19.643 324.813 19.6178C325.076 19.6153 325.339 19.6203 325.603 19.6254C327.119 19.6605 327.119 19.6605 328.141 19.4821C327.769 19.447 327.336 19.3716 326.949 19.3791C326.144 19.3917 324.999 19.4042 324.643 19.4947C324.024 19.6505 323.652 19.5399 323.142 19.5073C323.42 19.4947 323.683 19.4821 323.9 19.4721C323.575 19.4017 323.281 19.3389 322.987 19.2761C323.064 19.256 323.142 19.2384 323.203 19.2183C325.974 19.3314 328.698 19.2937 331.407 19.1932C331.407 19.1731 331.407 19.1529 331.407 19.1303C330.586 19.1303 329.751 19.1303 328.93 19.1303C328.93 19.1153 328.93 19.0977 328.946 19.0826C330.292 19.0826 331.639 19.0826 333.001 19.0826C333.001 19.0952 333.016 19.1052 333.016 19.1178C332.645 19.1278 332.258 19.1354 331.886 19.1454C331.871 19.1605 331.855 19.1756 331.825 19.1906C332.304 19.2233 332.769 19.2535 333.357 19.2937C332.444 19.3866 331.778 19.5701 330.571 19.4143C330.478 19.4017 330.246 19.4143 330.091 19.4268C329.379 19.4872 328.667 19.5525 327.816 19.6279C336.158 19.643 344.408 19.5525 352.936 19.6982C350.738 19.457 348.277 19.6103 346.25 19.4369C346.729 19.3314 347.999 19.5148 348.107 19.2685C349.128 19.5852 351.11 19.4168 352.657 19.5073C353.509 19.5575 354.437 19.5751 355.32 19.6078C355.304 19.6254 355.289 19.6455 355.258 19.6631C354.623 19.658 354.004 19.6505 353.338 19.643C354.004 19.7761 355.134 19.8113 355.83 19.7309C356.434 19.6605 356.465 19.6053 355.892 19.55C355.273 19.4897 354.608 19.447 353.957 19.364C355.211 19.364 356.465 19.364 357.564 19.364C358.616 19.4042 359.591 19.4419 360.721 19.4846C360.118 19.5801 359.7 19.6455 359.406 19.6907C361.263 19.7535 363.089 19.8138 364.9 19.8741C364.947 19.8415 365.009 19.8063 365.055 19.7736C363.77 19.7083 362.47 19.643 361.186 19.5801C361.186 19.56 361.201 19.5399 361.201 19.5173C362.145 19.5173 363.105 19.5374 364.018 19.5123C364.9 19.4872 365.72 19.4168 366.696 19.4168C366.417 19.4444 366.138 19.4721 365.86 19.4997C365.875 19.5223 365.875 19.5475 365.891 19.5701C368.568 19.6128 371.261 19.6555 373.939 19.6982C373.955 19.6681 373.986 19.6379 374.001 19.6078C372.639 19.5826 371.277 19.555 369.915 19.5299C369.899 19.5148 369.899 19.4997 369.884 19.4872C370.379 19.4771 370.875 19.4696 371.37 19.4595C372.623 19.4319 373.893 19.3992 375.146 19.3716C375.301 19.3691 375.471 19.3741 375.673 19.3766C375.626 19.4269 375.595 19.4671 375.533 19.5374C376.555 19.3917 377.453 19.3691 378.397 19.4922C378.536 19.5123 378.861 19.5123 379.031 19.4997C380.703 19.364 382.421 19.349 384.201 19.4093C384.356 19.4143 384.541 19.4067 384.712 19.3967C384.758 19.3942 384.789 19.3741 384.866 19.349C383.907 19.3163 382.963 19.2861 382.034 19.2535C382.049 19.2409 382.065 19.2309 382.08 19.2183C383.613 19.1806 385.145 19.1404 386.677 19.1027C386.693 19.1127 386.708 19.1203 386.724 19.1303C386.368 19.1504 385.996 19.1705 385.594 19.1906C386.29 19.2208 386.94 19.251 387.606 19.2786C387.59 19.2962 387.575 19.3138 387.559 19.3288C387.002 19.3414 386.46 19.354 385.81 19.3691C386.275 19.3992 386.646 19.4218 387.002 19.447L386.956 19.4394C388.086 19.6279 389.587 19.5525 390.655 19.5048C392.497 19.4218 394.246 19.4344 396.072 19.447C396.676 19.4495 397.279 19.447 397.883 19.4042C395.608 19.4093 393.379 19.1655 390.995 19.4319C390.949 19.3012 390.918 19.2082 390.856 19.0549C391.46 19.1102 391.862 19.1504 392.342 19.1932C393.921 19.0173 395.716 18.9871 397.372 19.1278C398.332 19.0801 399.152 19.0424 399.957 19.0047C399.957 18.9972 399.972 18.9896 399.972 18.9821C399.013 18.9821 398.038 18.9821 397.078 18.9821C397.063 18.962 397.047 18.9444 397.047 18.9243C397.62 18.9017 398.193 18.874 398.781 18.8564C399.353 18.8388 399.957 18.8338 400.684 18.8213C400.839 18.8414 401.149 18.9117 401.474 18.9117C402.944 18.9142 404.399 18.8966 405.869 18.8891C406.968 18.8816 408.067 18.8866 409.151 18.869C411.194 18.8338 413.237 18.7434 415.264 18.7509C417.044 18.7584 418.731 18.6655 420.48 18.6705C423.359 18.6755 426.253 18.6805 429.132 18.673C431.051 18.668 432.986 18.6428 434.905 18.6303C435.199 18.6278 435.494 18.6454 435.788 18.6554C435.788 18.6755 435.803 18.6956 435.803 18.7157C433.683 18.7534 431.562 18.7936 429.442 18.8313C429.426 18.8414 429.426 18.8489 429.411 18.8589C432.181 18.8589 434.952 18.8589 437.924 18.8589C437.335 18.7936 436.887 18.7434 436.298 18.6755C442.536 18.6328 448.541 18.6102 454.546 18.6755C454.546 18.7107 454.546 18.7459 454.562 18.7836C451.931 18.7836 449.3 18.7836 446.684 18.7836C446.684 18.8012 446.699 18.8213 446.699 18.8388C450.151 18.8388 453.602 18.8388 457.1 18.8388C457.131 18.7484 457.162 18.6906 457.209 18.5675C461.31 18.5675 465.381 18.5675 469.436 18.5675C469.436 18.5524 469.436 18.5373 469.436 18.5222C467.083 18.5222 464.731 18.5273 462.378 18.5197C461.775 18.5172 460.908 18.5976 460.614 18.4092C460.598 18.3991 459.762 18.4192 459.345 18.4418C458.664 18.4795 458.029 18.5323 457.363 18.58C457.317 18.5549 457.271 18.5298 457.209 18.5046C457.518 18.4896 457.828 18.472 458.323 18.4468C456.837 18.4217 455.553 18.3991 454.283 18.3765C454.283 18.3614 454.268 18.3463 454.268 18.3313C455.661 18.3313 457.054 18.3313 458.447 18.3313C458.462 18.3011 458.462 18.2735 458.478 18.2433C457.24 18.2282 456.001 18.2131 454.763 18.1981C454.763 18.1855 454.763 18.1704 454.763 18.1579C456.218 18.1579 457.673 18.1554 459.112 18.1654C459.236 18.1654 459.329 18.2634 459.515 18.3514C459.871 18.3061 460.304 18.2508 460.753 18.1981C460.892 18.183 461.094 18.1679 461.248 18.1704C462.842 18.2157 464.39 18.188 465.969 18.1428C467.13 18.1101 468.353 18.1478 469.544 18.1478C469.993 18.1478 470.427 18.1327 470.875 18.1252C470.86 18.1026 470.86 18.0825 470.844 18.0599C465.365 18.0599 459.886 18.0599 454.423 18.0599C454.423 18.0247 454.423 17.9895 454.407 17.9543C459.143 17.9543 463.879 17.9543 468.616 17.9543C468.631 17.9191 468.631 17.8815 468.647 17.8463C466.975 17.8211 465.319 17.7985 463.647 17.7734C463.632 17.7835 463.616 17.796 463.585 17.8061C463.74 17.8211 463.91 17.8337 464.205 17.8614C463.585 17.8815 463.075 17.8965 462.363 17.9166C462.595 17.8387 462.734 17.7935 462.858 17.7508C461.867 17.7508 460.939 17.7508 460.026 17.7508C460.026 17.7307 460.026 17.7131 460.026 17.693C460.629 17.693 461.295 17.7181 461.836 17.6855C462.487 17.6452 463.028 17.5548 463.709 17.4769C463.802 17.4945 463.957 17.5297 464.127 17.5648C463.864 17.5799 463.601 17.5925 463.353 17.6076C463.369 17.6201 463.384 17.6327 463.4 17.6452C464.344 17.6452 465.303 17.6452 466.248 17.6452C466.248 17.6327 466.263 17.6176 466.263 17.605C465.783 17.6 465.303 17.595 464.808 17.59C466.217 17.404 467.919 17.3337 469.467 17.3462C471.742 17.3638 473.955 17.213 476.277 17.3311C477.128 17.3739 478.258 17.2608 479.249 17.2206C479.233 17.2005 479.233 17.1779 479.218 17.1578C478.738 17.1578 478.274 17.1578 477.794 17.1578C477.794 17.1326 477.778 17.11 477.778 17.0849C479.295 17.0698 480.827 17.0522 482.344 17.0371C482.36 17.0598 482.391 17.0849 482.406 17.1075C481.555 17.1326 480.704 17.1603 479.852 17.1854C481.06 17.2156 482.313 17.301 483.211 17.0698C483.381 17.0246 484.093 17.0346 484.573 17.0346C485.672 17.0296 486.786 17.0321 487.901 17.0321C487.901 17.0623 487.901 17.0924 487.901 17.1226C486.384 17.1226 484.867 17.1226 483.35 17.1226C483.35 17.1527 483.35 17.1804 483.335 17.2105C484.48 17.2105 485.61 17.208 486.755 17.2105C490.083 17.2206 493.411 17.2357 496.738 17.2407C497.961 17.2432 497.311 17.3638 497.125 17.497C497.977 17.5171 498.766 17.5347 499.555 17.5498C499.571 17.5246 499.602 17.4995 499.617 17.4719C498.998 17.4593 498.379 17.4467 497.605 17.4317C499.695 17.2206 500.19 17.2156 501.939 17.311C502.868 17.2909 503.812 17.2733 504.74 17.2457C505.251 17.2281 505.746 17.1904 506.257 17.1603L506.288 17.1628C505.065 17.1628 503.843 17.1628 502.62 17.1628C502.62 17.1276 502.62 17.0924 502.62 17.0572C503.843 17.0572 505.05 17.0572 506.273 17.0572C506.273 17.0397 506.273 17.0195 506.273 17.002C504.384 16.9542 502.496 16.904 500.608 16.8562C500.066 16.8713 499.493 16.9065 498.983 16.8914C498.255 16.8688 497.559 16.811 496.847 16.7657C496.615 16.816 496.398 16.8663 496.057 16.9417C495.051 16.9417 493.829 16.9417 492.606 16.9417C492.606 16.9266 492.59 16.9115 492.59 16.8964C493.504 16.8964 494.417 16.8964 495.33 16.8964C495.361 16.8713 495.392 16.8462 495.423 16.8235C495.036 16.7959 494.649 16.7683 494.355 16.7456C494.757 16.7029 495.222 16.6552 495.671 16.61C495.609 16.5848 495.531 16.5597 495.469 16.5371C494.045 16.5873 492.606 16.6376 491.182 16.6879C491.151 16.6677 491.136 16.6476 491.105 16.625C491.677 16.61 492.234 16.5974 492.807 16.5823C492.823 16.5723 492.823 16.5622 492.838 16.5522C491.29 16.4743 489.743 16.3939 488.117 16.3134C488.195 16.3562 488.257 16.3913 488.442 16.4969C487.591 16.4341 486.972 16.3888 486.399 16.3486C486.167 16.4994 485.734 16.5094 484.712 16.4039C484.279 16.3587 483.49 16.3989 482.917 16.4265C481.926 16.4743 481.06 16.429 480.116 16.3863C479.388 16.3536 478.49 16.3637 477.778 16.4064C477.206 16.4391 476.772 16.5522 476.803 16.3436C476.215 16.3486 475.271 16.3134 475.085 16.3637C474.296 16.5798 474.095 16.4265 473.785 16.3335C473.336 16.3813 472.887 16.4315 472.129 16.5119C472.237 16.4014 472.284 16.3562 472.346 16.3059C472.036 16.2908 471.727 16.2732 471.293 16.2506C471.665 16.2179 471.912 16.1953 472.361 16.1551C472.052 16.1024 471.85 16.0672 471.68 16.0345C471.881 16.0295 472.191 16.0219 472.516 16.0144C472.516 15.9993 472.531 15.9843 472.531 15.9692C471.572 15.9692 470.628 15.9692 469.668 15.9692C474.977 15.7078 480.348 15.7581 485.734 15.9265C485.749 15.8888 485.765 15.8536 485.78 15.8159C484.821 15.7983 483.877 15.7807 482.917 15.7606C482.901 15.748 482.901 15.738 482.886 15.7254C483.521 15.7179 484.171 15.6928 484.79 15.7078C487.019 15.7656 489.247 15.841 491.476 15.9089C492.281 15.934 493.101 15.9516 493.906 15.9717L493.86 15.9692C494.618 15.9943 495.376 16.0169 496.135 16.042C496.166 16.027 496.212 16.0144 496.243 15.9993C495.299 15.9139 494.339 15.7531 493.411 15.7606C492.498 15.7656 491.646 15.7883 490.78 15.733C490.47 15.7129 490.191 15.6827 489.65 15.635C492.73 15.635 495.454 15.6375 498.178 15.6325C498.983 15.6299 499.803 15.5797 500.592 15.5923C503.425 15.6425 506.242 15.7104 509.074 15.7707C509.322 15.7757 509.771 15.7807 509.786 15.7681C510.297 15.4515 511.968 15.635 513.176 15.4942C512.541 15.7832 513.269 15.8536 514.507 15.8812C515.668 15.9064 516.813 15.9642 517.974 16.0069C517.943 16.0345 517.927 16.0596 517.896 16.0873C516.178 16.0421 514.445 15.9943 512.727 15.9491C512.711 15.9692 512.68 15.9868 512.665 16.0069C514.677 16.0823 516.705 16.1602 518.577 16.2305C519.135 16.135 517.339 16.0571 519.289 15.9918C517.556 15.9114 516.302 15.8536 515.033 15.7958C515.033 15.7832 515.018 15.7707 515.018 15.7556C515.312 15.7455 515.621 15.7305 515.915 15.7254C516.085 15.7229 516.41 15.748 516.426 15.7455C516.828 15.5169 517.85 15.6651 518.5 15.6576C519.754 15.645 521.023 15.6852 522.153 15.4716C521.766 15.4817 521.379 15.5018 521.348 15.4917C520.636 15.2455 519.692 15.3887 518.794 15.4365C518.546 15.449 518.283 15.4666 518.036 15.4616C516.674 15.4365 515.327 15.3988 513.965 15.3812C513.377 15.3736 512.789 15.4113 512.201 15.4088C511.581 15.4038 510.962 15.3761 510.343 15.3586C510.359 15.3334 510.374 15.3108 510.39 15.2857C511.21 15.2857 512.03 15.2857 512.835 15.2857C512.835 15.2731 512.851 15.2631 512.851 15.2505C510.777 15.1424 508.718 15.0294 506.644 14.9314C505.901 14.8962 505.096 14.8887 504.322 14.8359C505.468 14.8158 506.629 14.7982 507.774 14.7781C507.774 14.7705 507.789 14.7605 507.789 14.753C506.629 14.7278 505.468 14.7002 504.292 14.6751C504.446 14.5544 504.663 14.474 505.53 14.5318C505.932 14.5595 506.737 14.5645 506.892 14.5243C507.759 14.2981 508.981 14.3961 510.08 14.4037C510.606 14.4062 511.117 14.4715 511.999 14.5369C510.746 14.5369 509.894 14.5369 509.059 14.5369C509.059 14.5469 509.043 14.557 509.043 14.567C509.879 14.5997 510.73 14.6323 511.566 14.665C511.551 14.6901 511.535 14.7128 511.504 14.7379C510.823 14.7228 510.142 14.7077 509.461 14.6926C509.446 14.7203 509.43 14.7504 509.43 14.7781C511.38 14.7957 513.346 14.8108 515.296 14.8283C515.296 14.8158 515.312 14.8032 515.312 14.7907C514.306 14.768 513.315 14.7454 512.309 14.7228C512.309 14.7027 512.309 14.6826 512.309 14.6625C513.439 14.6776 514.569 14.6952 515.699 14.7102C516.024 14.7153 516.349 14.7128 516.674 14.7077C516.983 14.7052 517.277 14.6876 517.571 14.6926C518.361 14.7027 519.15 14.7128 519.924 14.7404C520.404 14.758 520.853 14.8082 521.363 14.8459C521.58 14.7881 521.797 14.7278 522.199 14.6198C521.518 14.5394 520.698 14.4439 519.769 14.3358C520.203 14.3559 520.543 14.371 521.069 14.3936C520.884 14.3182 520.775 14.2755 520.62 14.2052C521.085 14.2479 521.441 14.2805 521.797 14.3107C521.859 14.2981 521.936 14.2856 521.998 14.273C521.611 14.2001 521.209 14.1247 520.822 14.0519C520.992 14.0242 521.24 13.9891 521.332 13.9715C520.574 13.9388 519.816 13.8986 519.042 13.8785C518.283 13.8584 517.509 13.8559 516.643 13.8433C516.782 13.7855 516.89 13.7428 517.014 13.695C516.07 13.6473 515.157 13.6021 514.244 13.5568C514.275 13.5367 514.306 13.5141 514.337 13.494C514.847 13.5166 515.343 13.5543 515.853 13.5568C516.534 13.5594 517.2 13.5217 517.881 13.5192C518.469 13.5166 519.057 13.5418 519.862 13.5594C519.491 13.5191 519.258 13.494 519.026 13.4664C519.057 13.4438 519.073 13.4237 519.104 13.401C519.924 13.4212 520.744 13.4413 521.565 13.4614C521.116 13.3407 520.729 13.2402 520.357 13.1372C520.45 13.1271 520.543 13.1171 520.636 13.1045C519.924 13.0895 519.212 13.0719 518.454 13.0543C519.057 12.9814 519.599 12.8809 520.249 12.8482C521.023 12.808 521.905 12.8256 522.973 12.8181C522.54 12.7779 522.277 12.7527 521.843 12.7125C522.307 12.6799 522.617 12.6572 522.958 12.6346C522.091 12.5442 521.255 12.4562 520.419 12.3683C519.769 12.3456 519.119 12.323 518.485 12.3004C519.073 12.2376 519.552 12.1899 520.094 12.1321C520.11 12.1371 520.264 12.1773 520.326 12.1974C521.379 12.0617 521.58 12.323 522.292 12.3281C521.921 12.3482 521.472 12.3607 521.023 12.3758ZM479.775 14.6901C480.286 14.6751 480.889 14.6851 481.276 14.6374C482.236 14.5167 484.155 14.5519 485.006 14.7329C483.706 14.7555 482.437 14.7203 481.106 14.7555C478.692 14.8208 476.231 14.8158 473.785 14.8409C473.77 14.8183 473.77 14.7932 473.754 14.7705C474.714 14.758 475.689 14.7454 476.649 14.7329C477.701 14.7178 478.753 14.7027 479.806 14.6876C478.583 14.6876 477.376 14.6876 476.153 14.6876C476.153 14.655 476.169 14.6198 476.169 14.5871C477.67 14.5871 479.187 14.5871 480.982 14.5871C480.425 14.6323 480.1 14.6625 479.775 14.6901ZM255.148 0.972482C255.489 0.758891 256.371 0.879508 257.021 0.887046C257.532 0.894586 258.105 0.972486 258.492 0.944844C260.132 0.834279 261.293 1.05541 262.717 1.09812C261.278 1.13079 259.869 1.13833 258.461 1.13079C257.486 1.12577 256.526 1.11069 255.566 1.08556C255.396 1.08305 255.288 1.01269 255.148 0.972482C254.684 0.974996 254.204 0.982533 253.74 0.980021C252.657 0.972482 251.558 0.959922 250.474 0.952382C250.134 0.94987 249.793 0.959918 249.468 0.964944C249.468 0.939816 249.453 0.914693 249.453 0.892077C251.217 0.856896 252.982 0.819199 254.746 0.784018C254.762 0.801608 254.777 0.819199 254.792 0.839301C254.607 0.869456 254.436 0.899611 254.173 0.94233C254.529 0.95238 254.839 0.962432 255.148 0.972482ZM502.001 13.9086C501.645 13.9287 501.134 13.9313 500.979 13.974C500.484 14.1046 499.463 14.1273 498.72 14.0066C498.89 13.9941 499.076 13.984 499.323 13.9664C497.806 13.9488 496.398 13.9313 494.989 13.9137C495.005 13.8986 495.005 13.881 495.02 13.8659C495.562 13.8232 496.119 13.778 496.909 13.7152C496.181 13.6548 495.825 13.6272 495.315 13.587C496.924 13.5267 496.878 13.5292 497.419 13.7729C497.528 13.8207 498.008 13.8433 498.333 13.876C498.348 13.8785 498.441 13.8584 498.503 13.8483C498.348 13.8132 498.193 13.7755 497.837 13.695C499.37 13.695 500.623 13.695 501.893 13.695C501.893 13.7101 501.908 13.7227 501.908 13.7378C500.917 13.7554 499.927 13.7704 498.952 13.788C498.952 13.8106 498.967 13.8307 498.967 13.8534C499.989 13.8534 500.995 13.8534 502.016 13.8534C502.372 13.8282 502.744 13.8031 503.084 13.778C502.96 13.7378 502.852 13.7001 502.62 13.6247C503.92 13.6197 504.678 13.7855 505.994 13.7478C507.681 13.6976 509.569 13.8408 511.365 13.9086C511.612 13.9187 511.814 13.974 512.03 14.0092C511.984 14.0242 511.937 14.0393 511.876 14.0544C510.034 13.9991 508.192 13.9413 506.118 13.8785C506.644 13.9589 506.969 14.0066 507.279 14.0544C506.443 14.18 505.607 14.1976 504.508 14.0544C505.251 14.0468 505.746 14.0418 506.242 14.0368C506.257 14.0142 506.257 13.9916 506.273 13.9689C505.855 13.9589 505.421 13.9313 505.019 13.9438C504.168 13.9715 503.347 14.0217 502.512 14.0619C502.481 14.0443 502.45 14.0293 502.419 14.0117C502.543 13.9991 502.682 13.9865 502.852 13.9715C502.558 13.9488 502.279 13.9287 502.001 13.9086ZM519.769 3.91755C518.81 3.89745 517.85 3.87483 516.89 3.85473C516.875 3.86478 516.875 3.87735 516.859 3.8874C517.478 3.91755 518.098 3.9452 518.717 3.97535C518.717 3.98792 518.717 4.00299 518.717 4.01556C518.19 4.03566 517.649 4.05576 517.122 4.07335C517.122 4.08591 517.122 4.09848 517.138 4.11105C518.515 4.1412 519.893 4.17135 521.27 4.19899C521.255 4.21407 521.24 4.23166 521.24 4.24674C520.775 4.26433 520.326 4.28192 519.537 4.31207C520.187 4.34976 520.497 4.36736 520.806 4.38495C520.791 4.395 520.775 4.40505 520.76 4.41258C518.98 4.38494 517.184 4.3573 515.404 4.32966C515.404 4.31961 515.404 4.30956 515.42 4.29951C516.209 4.28946 516.983 4.2794 518.175 4.26433C516.38 4.0834 514.987 3.91756 513.129 4.0231C514.275 3.92258 515.389 3.83463 516.503 3.7517C517.153 3.70899 519.367 3.82458 519.769 3.91755C520.76 3.71904 521.626 3.97032 522.555 3.94268C522.509 3.97535 522.478 4.01053 522.462 4.02561C521.967 4.00551 521.595 3.98792 521.209 3.97033C521.162 3.99043 521.131 4.01305 521.085 4.03315C521.58 4.0633 522.075 4.09345 522.571 4.12361C522.555 4.13869 522.524 4.15376 522.509 4.16884C521.348 4.13617 520.187 4.10351 519.026 4.07084C519.026 4.05325 519.026 4.03315 519.026 4.01556C519.522 4.00802 520.017 4.00299 520.512 3.99545C520.528 3.98037 520.528 3.96781 520.543 3.95274C520.28 3.94017 520.017 3.93012 519.769 3.91755ZM507.016 6.00071C507.526 6.02835 508.053 6.05347 508.517 6.0786C508.347 6.02583 508.176 5.97558 508.022 5.93286C509.012 5.96553 509.833 5.99066 510.668 6.0183C510.699 5.99317 510.73 5.97055 510.761 5.94542C509.848 5.89265 508.935 5.83737 507.991 5.78209C509.152 5.78209 510.189 5.75696 511.148 5.78963C511.999 5.81978 512.773 5.91276 513.594 5.97809C513.547 5.99819 513.501 6.01579 513.454 6.03589C512.758 6.00825 512.046 5.9806 511.133 5.94291C511.845 6.26958 513.145 6.0585 514.058 6.1364C511.705 6.21179 509.43 6.42035 506.954 6.21932C506.985 6.1364 507.016 6.06352 507.047 5.99065C506.35 5.99065 505.654 5.99065 504.957 5.99065C504.957 6.00573 504.957 6.02081 504.957 6.03337C505.267 6.04594 505.576 6.06102 505.886 6.07358C503.611 6.23189 502.604 5.77455 500.53 5.8223C500.561 5.79717 500.592 5.77203 500.639 5.74691C501.382 5.76198 502.125 5.77707 502.991 5.79214C502.403 5.61876 502.976 5.60619 503.595 5.61624C504.601 5.6288 505.607 5.64891 506.613 5.66901C506.907 5.67403 507.201 5.69665 507.48 5.70921C507.464 5.72178 507.449 5.73686 507.433 5.74942C506.629 5.76199 505.808 5.77204 504.849 5.78711C505.715 5.87757 506.366 5.93788 507.016 6.00071ZM501.784 2.72395C501.769 2.77169 501.753 2.81944 501.738 2.86718C501.567 2.86216 501.289 2.86467 501.258 2.85211C500.794 2.6159 499.695 2.62595 498.58 2.62595C498.147 2.62595 497.729 2.61841 497.296 2.6159C496.924 2.61339 496.568 2.6159 496.197 2.6159C498.178 2.50785 500.082 2.49779 501.8 2.73149C502.465 2.71641 503.131 2.67872 503.796 2.68626C505.483 2.70385 507.17 2.74154 508.857 2.77169C508.873 2.75913 508.873 2.74405 508.888 2.73149C506.907 2.67621 504.926 2.61841 502.651 2.55559C503.177 2.52292 503.549 2.48021 503.905 2.48523C506.133 2.51288 508.362 2.54805 510.591 2.58575C510.87 2.59077 511.133 2.62344 511.411 2.64103C511.303 2.66113 511.195 2.68123 511.086 2.70133C510.56 2.72395 510.034 2.74908 509.492 2.77169C509.492 2.78174 509.507 2.7918 509.507 2.80185C509.956 2.81441 510.405 2.82949 510.87 2.84205C510.885 2.86216 510.885 2.87975 510.9 2.89985C510.56 2.9099 510.204 2.93754 509.879 2.93C507.186 2.86718 504.493 2.79682 501.784 2.72395ZM480.023 3.30945C477.097 3.30945 474.188 3.30945 471.262 3.30945C471.262 3.28683 471.247 3.26672 471.247 3.24411C472.284 3.22149 473.336 3.1838 474.373 3.1838C475.673 3.18129 476.974 3.19888 478.258 3.22401C478.862 3.23657 479.434 3.28431 480.023 3.31447C480.58 3.25416 481.137 3.19385 481.803 3.12098C477.624 3.12098 473.507 3.12098 469.42 3.12098C469.374 3.04057 469.328 2.96016 469.25 2.83451C471.68 2.91493 474.249 2.72144 476.432 2.90237C477.438 2.88729 478.212 2.87472 479.001 2.86467C479.017 2.88226 479.032 2.89985 479.032 2.91744C478.723 2.93755 478.413 2.95764 478.103 2.97775C480.951 2.91744 483.381 3.33708 486.245 3.17124C485.177 3.15616 484.109 3.14108 483.025 3.126C483.041 3.08329 483.072 3.03806 483.087 2.99534C486.059 3.03303 489.031 3.07073 492.002 3.10591C492.002 3.12601 491.987 3.14359 491.987 3.1637C491.569 3.17124 491.151 3.18129 490.749 3.18883C490.733 3.21647 490.718 3.24411 490.702 3.26924C491.569 3.28432 492.436 3.29939 493.302 3.31447C493.302 3.33206 493.287 3.34714 493.287 3.36473C492.544 3.36473 491.801 3.36473 491.074 3.36473C491.058 3.38735 491.058 3.40996 491.043 3.43509C493.256 3.46524 495.454 3.49539 497.667 3.52555C497.667 3.54565 497.652 3.56324 497.652 3.58335C497.28 3.58837 496.909 3.60345 496.537 3.59842C496.197 3.5934 495.856 3.57078 495.516 3.5557C495.5 3.56575 495.469 3.57581 495.454 3.58837C495.81 3.62857 496.181 3.66879 496.599 3.71904C496.104 3.77935 495.732 3.82709 495.609 3.84217C495.067 3.7894 494.726 3.74668 494.355 3.72155C493.179 3.64616 491.94 3.71904 490.749 3.68888C490.13 3.6738 489.495 3.65119 488.829 3.62858C488.551 3.6537 488.086 3.69894 487.467 3.75673C487.529 3.6713 487.545 3.64114 487.545 3.6336C486.972 3.66124 486.43 3.71653 485.982 3.69893C485.471 3.68134 485.022 3.59842 484.558 3.54565C484.496 3.56073 484.449 3.57581 484.387 3.59088C484.558 3.63109 484.743 3.66878 484.898 3.70396C483.18 3.66626 481.539 3.62858 479.899 3.59088C479.945 3.48535 479.992 3.3974 480.023 3.30945ZM489.789 14.2931C490.486 14.3434 490.47 14.3434 490.609 14.5017C490.64 14.5318 490.841 14.562 491.012 14.5771C491.089 14.5846 491.306 14.567 491.399 14.5519C491.956 14.459 494.03 14.4162 494.757 14.4514C495.407 14.4841 496.135 14.4715 496.816 14.4791C496.816 14.459 496.816 14.4389 496.831 14.4187C496.646 14.4087 496.444 14.3986 495.934 14.3685C498.859 14.4087 501.459 14.4464 504.044 14.4841C504.106 14.5017 504.152 14.5193 504.214 14.5369C503.626 14.5846 503.038 14.6323 502.341 14.6901C502.759 14.7329 503.115 14.768 503.549 14.8133C502.744 14.8359 502.109 14.8535 501.181 14.8786C501.738 14.954 502.016 14.9917 502.326 15.0319C500.546 15.2606 489.387 15.2982 485.13 15.0922C485.703 15.0495 486.198 15.0118 486.709 14.9716C486.554 14.8434 485.718 14.6323 484.945 14.562C485.548 14.5695 485.92 14.5745 486.307 14.5796C486.368 14.557 486.43 14.5343 486.508 14.5117C485.935 14.4514 485.362 14.3886 484.975 14.3484C485.579 14.2931 486.198 14.2353 486.817 14.1775C486.802 14.1599 486.786 14.1423 486.755 14.1247C483.784 14.0996 480.827 14.0745 477.856 14.0494C477.84 14.0745 477.809 14.0971 477.794 14.1222C479.914 14.1599 482.019 14.1976 484.14 14.2328C484.14 14.2529 484.124 14.2755 484.124 14.2956C481.23 14.2705 478.336 14.2454 475.457 14.2202C475.457 14.1976 475.472 14.175 475.472 14.1524C476.679 14.1574 476.664 14.1549 477.531 13.9916C477.655 13.9664 477.902 13.9463 478.088 13.9488C479.899 13.9614 481.694 13.979 483.505 13.9941C486.183 14.0142 488.86 14.0293 491.538 14.0519C491.739 14.0544 491.925 14.0896 492.126 14.1097C492.095 14.1323 492.08 14.1574 492.049 14.18C491.197 14.1725 490.346 14.1549 489.51 14.1599C488.659 14.165 487.684 14.1298 486.926 14.2856C488.984 14.3936 489.603 14.5343 489.216 14.7831C489.65 14.7831 490.083 14.7831 490.3 14.7831C490.16 14.7052 489.99 14.6349 489.913 14.5595C489.804 14.4715 489.82 14.3785 489.789 14.2931ZM136.482 1.06545C135.491 1.0755 134.624 1.08556 133.773 1.09561C132.117 1.11571 130.476 1.13079 128.82 1.15592C128.108 1.16597 127.288 1.24387 126.715 1.20366C125.492 1.11571 124.301 1.14587 123.078 1.1509C121.53 1.15843 119.982 1.1534 118.419 1.1534C119.069 1.04535 119.874 0.937302 120.756 0.914685C122.025 0.882018 123.372 0.942323 124.641 0.909656C127.427 0.836783 130.182 0.997607 132.953 0.91971C133.278 0.909658 133.634 0.977508 134.005 0.992584C134.33 1.00515 134.686 1.00012 135.027 0.995092C135.723 0.982528 136.435 0.949865 137.132 0.952377C137.906 0.954891 138.71 1.02274 139.438 1.00012C140.506 0.967457 141.125 1.0353 141.775 1.18859C139.949 1.18859 138.262 1.18859 136.497 1.18859C136.482 1.18356 136.482 1.1333 136.482 1.06545ZM500.685 3.43257C502.883 3.72909 503.378 3.72658 505.886 3.45519C506.273 3.41247 507.062 3.39488 507.356 3.43509C508.037 3.53058 508.734 3.56324 509.585 3.5356C509.554 3.60345 509.523 3.65371 509.523 3.64617C510.514 3.65622 511.38 3.66627 512.263 3.67632C512.263 3.69391 512.263 3.7115 512.263 3.72909C511.907 3.76427 511.535 3.80197 511.024 3.85222C511.597 3.86227 511.984 3.86981 512.386 3.87484C510.962 3.92258 509.538 3.93766 508.115 3.9653C505.607 4.01555 503.347 3.69642 500.794 3.8095C500.763 3.8095 500.716 3.7894 500.608 3.76427C500.886 3.73663 501.15 3.7115 501.598 3.6713C501.072 3.65371 500.716 3.64366 500.376 3.63109C500.5 3.55571 500.592 3.4954 500.685 3.43257ZM181.676 19.271C181.692 19.3012 181.692 19.3288 181.707 19.359C180.902 19.359 180.098 19.354 179.293 19.359C177.621 19.369 175.95 19.3841 174.278 19.3942C172.281 19.4093 170.285 19.4268 168.288 19.4344C165.363 19.4444 162.438 19.4344 159.512 19.4545C158.073 19.4645 155.86 19.4017 155.024 19.261C157.593 19.261 160.054 19.2484 162.515 19.266C164.295 19.2761 166.059 19.3439 167.824 19.3489C170.037 19.354 172.235 19.3163 174.448 19.3062C175.965 19.2987 177.482 19.3037 178.999 19.2987C179.881 19.2962 180.779 19.2811 181.676 19.271ZM239.655 0.997612C241.002 0.635762 241.497 0.603092 243.416 0.688528C243.602 0.696068 243.834 0.701096 244.02 0.691044C245.924 0.598069 247.704 0.69607 249.406 0.761403C248.818 1.07048 247.595 1.00766 246.326 0.957406C245.351 0.919713 244.33 0.884535 243.339 0.889561C242.24 0.899613 241.126 0.952381 239.655 0.997612ZM523.128 4.28946C524.103 4.40002 524.939 4.49802 525.79 4.59603C525.836 4.57844 525.898 4.56084 525.945 4.54074C525.821 4.49049 525.713 4.43771 525.589 4.38745C525.651 4.36735 525.728 4.34474 525.79 4.32463C526.811 4.37992 527.833 4.4352 529.18 4.50556C528.468 4.53571 528.096 4.5533 527.91 4.56084C528.499 4.66136 529.102 4.7669 529.768 4.87998C529.149 4.95034 528.978 5.12372 527.725 4.96541C527.013 4.87495 525.805 4.89506 525.558 4.67644C525.558 4.67393 525.48 4.67141 525.434 4.67141C524.474 4.64125 523.515 4.60859 522.571 4.57843C522.772 4.47792 522.927 4.39751 523.128 4.28946ZM421.997 1.08557C421.997 1.09814 421.997 1.1107 421.997 1.12326C419.799 1.1509 417.601 1.19865 415.388 1.19865C413.252 1.19865 411.132 1.1509 408.996 1.12326C408.996 1.11572 408.98 1.1107 408.98 1.10316C410.884 1.08055 412.788 1.06044 414.893 1.03783C414.351 0.972492 413.995 0.929772 413.639 0.887053C413.67 0.869463 413.686 0.851874 413.717 0.83177C416.147 0.83177 418.577 0.83177 421.007 0.83177C421.007 0.851874 421.022 0.871981 421.022 0.892085C419.737 0.892085 418.437 0.892085 417.153 0.892084C417.137 0.917212 417.122 0.942341 417.106 0.969982C418.747 1.00767 420.372 1.04536 421.997 1.08557ZM425.665 0.942338C425.681 0.957413 425.712 0.969981 425.727 0.985059C427.585 0.985059 429.442 0.985059 431.299 0.985059C431.175 1.06798 430.928 1.13331 430.649 1.13834C429.101 1.16598 427.538 1.18357 425.975 1.19362C425.062 1.19865 424.272 1.02526 424.504 0.859416C424.752 0.693568 425.387 0.816699 425.882 0.821725C426.222 0.826751 426.578 0.806645 426.919 0.804133C428.436 0.794082 429.953 0.78403 431.485 0.779004C431.671 0.779004 431.856 0.809157 432.042 0.826749C432.042 0.839313 432.027 0.85439 432.027 0.866954C429.906 0.894595 427.786 0.919721 425.665 0.942338ZM135.212 18.5172C135.212 18.5373 135.212 18.5599 135.212 18.58C129.563 18.58 123.914 18.58 118.264 18.58C123.898 18.4217 129.548 18.472 135.212 18.5172ZM458.23 12.8809C456.976 12.9136 455.723 12.9487 454.392 12.9839C454.639 13.0191 454.825 13.0467 455.042 13.0769C453.788 13.19 449.687 13.1322 449.176 13.0065C452.086 12.7125 455.212 12.8909 458.23 12.8809ZM207.137 19.1379C207.106 19.168 207.075 19.1957 207.044 19.2258C202.819 19.2007 198.593 19.1781 194.368 19.1529C194.368 19.1303 194.368 19.1077 194.383 19.0826C194.554 19.0776 194.724 19.07 194.894 19.07C198.036 19.06 201.178 19.0449 204.305 19.0474C205.249 19.0499 206.193 19.1077 207.137 19.1379ZM486.709 5.0609C486.693 5.03829 486.663 5.01567 486.647 4.99557C486.198 4.983 485.734 4.97044 485.285 4.95787C487.823 4.78198 490.176 4.79203 490.702 4.93274C490.191 4.94782 489.634 4.9629 489.093 4.97797C489.108 4.99556 489.123 5.01316 489.139 5.03075C489.619 5.04331 490.083 5.05587 490.563 5.07095C490.547 5.09105 490.532 5.11115 490.532 5.13377C488.644 5.14885 486.74 5.16644 484.852 5.18151C484.836 5.1589 484.836 5.1388 484.821 5.11618C485.455 5.09357 486.074 5.07849 486.709 5.0609ZM290.53 0.806635C291.861 0.806636 293.038 0.806636 294.229 0.806636C294.245 0.831763 294.26 0.854382 294.26 0.87951C293.734 0.899613 293.208 0.93479 292.682 0.939816C291.273 0.954894 289.849 0.962439 288.441 0.954899C288.255 0.954899 287.976 0.846844 287.961 0.786536C287.961 0.741305 288.332 0.650841 288.503 0.653355C289.354 0.668433 290.205 0.706126 291.227 0.741307C290.902 0.773974 290.778 0.78402 290.53 0.806635ZM260.318 1.41726C257.563 1.46249 254.777 1.55546 252.27 1.24136C255.009 1.18608 257.609 1.38459 260.318 1.41726ZM515.079 4.46787C515.76 4.47541 516.612 4.5332 517.076 4.48294C518.392 4.33971 519.398 4.50305 520.497 4.54828C521.1 4.5709 521.642 4.63875 522.168 4.68398C520.311 4.82721 518.283 4.79956 515.079 4.46787ZM264.497 1.2288C264.497 1.22126 264.497 1.21372 264.497 1.20618C268.568 1.20618 272.638 1.20618 276.724 1.20618C276.477 1.29162 276.337 1.34187 276.182 1.39967C272.36 1.34439 268.428 1.28659 264.497 1.2288ZM500.453 17.0623C500.438 17.0874 500.438 17.11 500.422 17.1351C496.413 17.1351 492.405 17.1351 488.396 17.1351C488.396 17.11 488.396 17.0874 488.396 17.0623C492.42 17.0623 496.444 17.0623 500.453 17.0623ZM465.768 16.321C465.752 16.2833 465.721 16.2456 465.706 16.2079C467.563 16.3637 469.003 16.1049 470.705 16.1174C470.813 16.1174 470.906 16.1451 470.999 16.1602C471.077 16.1752 471.154 16.1903 471.231 16.2104C470.999 16.2381 470.813 16.2607 470.473 16.2984C470.891 16.3361 471.216 16.3662 471.541 16.3938C471.448 16.424 471.34 16.4542 471.247 16.4843C469.42 16.4265 467.594 16.3737 465.768 16.321ZM532.724 5.00059C533.405 5.07598 534.055 5.15137 534.721 5.22675C534.705 5.24434 534.69 5.26193 534.674 5.27952C533.297 5.26444 531.935 5.24937 530.557 5.23429C530.573 5.21419 530.573 5.19408 530.588 5.17398C530.959 5.13377 531.331 5.09357 531.811 5.04583C531.331 5.00562 531.021 4.98049 530.371 4.92521C531.61 4.89505 532.507 4.74177 533.126 4.98301C532.987 4.99054 532.832 4.99808 532.724 5.00059ZM525.31 7.95319C525.31 7.9356 525.31 7.92052 525.326 7.90294C526.347 7.92555 527.369 7.94816 528.39 7.96826C529.288 7.98585 530.046 8.04617 530.046 8.22458C530.046 8.31504 529.644 8.40299 529.427 8.49346C529.04 8.21956 528.096 8.21704 526.935 8.24217C526.44 8.25222 525.883 8.19694 525.372 8.17181C525.388 8.15673 525.403 8.14165 525.418 8.12657C526.75 8.14416 528.081 8.15924 529.412 8.17683C529.427 8.15422 529.458 8.13161 529.474 8.10899C528.081 8.05622 526.688 8.00344 525.31 7.95319ZM19.4554 13.0266C19.4708 13.004 19.4708 12.9839 19.4863 12.9613C23.1235 13.0015 26.7453 13.0417 30.3826 13.0844C30.3671 13.1171 30.3516 13.1472 30.3361 13.1799C26.6989 13.1271 23.0771 13.0769 19.4554 13.0266ZM432.955 1.30921C432.955 1.32931 432.955 1.34942 432.94 1.36953C430.37 1.36952 427.801 1.36952 425.232 1.36952C427.786 1.23634 430.355 1.2087 432.955 1.30921ZM362.486 19.163C362.501 19.1479 362.517 19.1328 362.532 19.1178C364.622 19.1178 366.711 19.1278 368.801 19.1127C369.807 19.1052 370.054 19.1932 370.302 19.2962C367.64 19.251 365.07 19.2082 362.486 19.163ZM343.046 19.3665C340.879 19.4042 338.697 19.4394 336.53 19.4771C336.514 19.4419 336.499 19.4042 336.468 19.3691C338.666 19.3238 340.863 19.2786 343.046 19.2334C343.046 19.3213 343.046 19.364 343.046 19.3665ZM309.212 19.2962C308.469 19.3791 308.082 19.4218 307.695 19.4671C307.71 19.4771 307.741 19.4872 307.757 19.4972C308.113 19.4821 308.469 19.4696 308.825 19.4545C309.072 19.5148 309.305 19.5701 309.723 19.6731C308.376 19.6178 307.339 19.5751 306.534 19.5424C306.317 19.4495 306.178 19.3841 305.977 19.2987C306.952 19.2962 307.912 19.2962 309.212 19.2962ZM305.559 19.3188C304.754 19.545 302.866 19.5977 301.519 19.4796C302.077 19.462 302.494 19.447 302.912 19.4319C302.912 19.4218 302.897 19.4093 302.897 19.3992C302.556 19.3942 302.2 19.3892 301.86 19.3841C301.86 19.3615 301.875 19.3414 301.875 19.3188C302.99 19.3188 304.12 19.3188 305.559 19.3188ZM486.895 2.18117C486.879 2.15856 486.879 2.13594 486.864 2.11333C488.953 2.11333 491.043 2.11333 493.132 2.11333C493.132 2.13594 493.132 2.15856 493.132 2.18117C491.058 2.18117 488.969 2.18117 486.895 2.18117ZM165.533 19.0826C163.831 19.0399 162.298 19.0022 160.921 18.967C163.072 18.967 165.378 18.967 167.669 18.967C167.669 18.9846 167.669 19.0022 167.654 19.0198C166.88 19.0424 166.075 19.065 165.533 19.0826ZM500.159 5.33731C498.936 5.38505 498.116 5.42024 497.28 5.45291C497.605 5.39009 498.008 5.37249 498.348 5.3348C498.627 5.30465 498.843 5.25188 499.246 5.17901C498.178 5.16393 497.265 5.14885 496.352 5.13628C496.367 5.11367 496.367 5.09106 496.382 5.06844C497.714 5.08352 499.045 5.0986 500.701 5.11619C500.113 5.17649 499.788 5.20916 499.385 5.25187C499.617 5.27952 499.788 5.2971 500.159 5.33731ZM459.917 3.13103C459.097 3.10339 458.648 3.09837 458.23 3.07324C457.936 3.05565 457.704 3.01041 457.441 2.97775C457.766 2.96518 458.106 2.93754 458.431 2.94256C458.911 2.9501 459.391 2.98026 459.855 3.00036C459.871 2.98529 459.886 2.97021 459.917 2.95262C459.747 2.93754 459.577 2.92498 459.406 2.9099C459.468 2.8898 459.546 2.86969 459.608 2.84959C460.18 2.91241 460.753 2.97775 461.341 3.04308C460.645 3.0858 460.103 3.12098 459.917 3.13103ZM56.9421 2.05049C56.9267 2.07562 56.9112 2.10326 56.8957 2.12839C55.1776 2.08064 53.3978 2.15854 51.6952 2.07813C51.7107 2.04547 51.7262 2.01531 51.7416 1.98264C53.4751 2.00777 55.2086 2.02787 56.9421 2.05049ZM373.784 19.2711C373.769 19.251 373.753 19.2334 373.738 19.2133C376.276 19.2133 378.83 19.2133 381.368 19.2133C381.368 19.2334 381.368 19.251 381.368 19.2711C378.846 19.2711 376.323 19.2711 373.784 19.2711ZM527.276 5.42024C527.879 5.48809 528.684 5.57855 529.381 5.65645C528.839 5.70168 528.56 5.74691 528.251 5.74942C527.848 5.75445 527.4 5.73435 527.013 5.71173C526.873 5.70419 526.703 5.6464 526.75 5.61876C526.827 5.56096 527.028 5.50819 527.276 5.42024ZM514.6 4.33217C513.129 4.29699 511.489 4.2593 509.693 4.21658C511.814 4.06079 513.516 4.11607 514.6 4.33217ZM531.269 8.86285C530.232 8.92567 529.303 8.98346 528.375 9.04126C528.344 9.02869 528.313 9.01864 528.282 9.00607C528.468 8.98094 528.653 8.95581 528.808 8.93571C528.514 8.86033 528.251 8.78746 527.941 8.70956C528.994 8.7573 529.938 8.80002 531.269 8.86285ZM153.383 18.6554C153.383 18.6705 153.383 18.6856 153.383 18.6981C151.495 18.6981 149.591 18.6981 147.703 18.6981C147.703 18.683 147.703 18.668 147.703 18.6554C149.591 18.6554 151.495 18.6554 153.383 18.6554ZM473.166 12.2577C473.182 12.2301 473.197 12.1999 473.212 12.1723C475.689 12.1949 478.181 12.22 480.657 12.2426C480.657 12.2476 480.657 12.2527 480.642 12.2577C478.165 12.2577 475.658 12.2577 473.166 12.2577ZM475.039 3.42503C476.494 3.42503 477.794 3.42503 479.125 3.42503C478.537 3.60093 476.54 3.60345 475.039 3.42503ZM336.839 19.2585C336.236 19.447 335.508 19.5022 334.518 19.4419C334.301 19.4294 334.1 19.3816 334.022 19.3414C333.991 19.3238 334.301 19.266 334.471 19.2635C335.214 19.2535 335.957 19.2585 336.839 19.2585ZM110.974 18.487C113.017 18.487 114.689 18.487 116.361 18.487C116.345 18.5122 116.33 18.5398 116.314 18.5649C114.612 18.5524 112.863 18.6328 110.974 18.487ZM509.554 15.1022C509.538 15.1324 509.523 15.1625 509.492 15.1927C507.759 15.16 506.041 15.1249 504.307 15.0922C504.322 15.0671 504.338 15.0419 504.353 15.0193C506.087 15.047 507.82 15.0746 509.554 15.1022ZM302.943 19.1555C302.928 19.1756 302.928 19.1932 302.912 19.2133C301.055 19.2082 299.167 19.251 297.356 19.1555C299.229 19.1555 301.086 19.1555 302.943 19.1555ZM487.111 12.8457C487.111 12.8608 487.111 12.8759 487.111 12.8909C485.347 12.8909 483.582 12.8909 481.834 12.8909C481.834 12.8759 481.834 12.8608 481.849 12.8457C483.598 12.8457 485.347 12.8457 487.111 12.8457ZM280.717 19.6128C282.219 19.5651 283.658 19.3716 285.237 19.5324C283.736 19.56 282.234 19.5852 280.717 19.6128ZM191.334 1.55798C191.334 1.53787 191.334 1.51777 191.319 1.49766C193.176 1.49766 195.018 1.49766 196.875 1.49766C196.875 1.51777 196.875 1.53787 196.875 1.55798C195.033 1.55798 193.192 1.55798 191.334 1.55798ZM525.14 5.00813C525.093 5.03828 525.032 5.07096 524.985 5.10111C523.608 5.02572 522.23 4.94783 520.853 4.87244C520.899 4.84731 520.945 4.81967 520.992 4.79454C522.369 4.8649 523.762 4.93777 525.14 5.00813ZM356.14 1.15844C358.075 1.05542 358.523 1.08808 358.725 1.31926C357.92 1.31926 357.13 1.31926 356.078 1.31926C356.542 1.28659 356.743 1.27152 357.115 1.24388C356.713 1.2087 356.48 1.1886 356.14 1.15844ZM488.953 16.7884C490.563 16.7758 492.095 16.7632 493.627 16.7507C493.086 16.8914 490.609 16.9115 488.953 16.7884ZM506.195 13.2628C506.226 13.288 506.242 13.3156 506.273 13.3407C504.802 13.4111 503.347 13.3181 501.877 13.2628C503.301 13.2628 504.756 13.2628 506.195 13.2628ZM530.201 7.77226C530.944 7.77226 531.625 7.77226 532.306 7.77226C532.352 7.79488 532.399 7.82001 532.43 7.84262C531.811 7.90042 531.192 7.95821 530.48 8.02355C530.356 7.90042 530.278 7.84262 530.201 7.77226ZM373.784 1.30921C375.069 1.29664 376.354 1.28157 377.855 1.2665C376.477 1.52532 375.084 1.31675 373.784 1.30921ZM208.406 1.51023C208.422 1.52531 208.422 1.54039 208.437 1.55546C206.626 1.55546 204.8 1.55546 202.989 1.55546C202.989 1.54038 202.989 1.52531 203.004 1.51023C204.784 1.51023 206.595 1.51023 208.406 1.51023ZM193.811 19.075C193.811 19.0926 193.811 19.1102 193.795 19.1253C191.83 19.1253 189.879 19.1253 187.914 19.1253C187.914 19.1077 187.914 19.0901 187.914 19.075C189.895 19.075 191.845 19.075 193.811 19.075ZM505.081 4.13366C505.081 4.09346 505.081 4.05073 505.081 4.01053C506.257 4.02812 507.418 4.0432 508.594 4.06079C508.594 4.08592 508.579 4.11105 508.579 4.13366C507.403 4.13366 506.242 4.13366 505.081 4.13366ZM28.2931 14.5821C29.6396 14.4489 31.6827 14.4765 32.6423 14.6223C31.2338 14.6097 29.8873 14.5971 28.2931 14.5821ZM294.477 1.29162C294.477 1.31172 294.477 1.33182 294.477 1.35193C293.115 1.35193 291.753 1.35193 290.375 1.35193C290.375 1.33182 290.375 1.31172 290.375 1.29162C291.753 1.29162 293.115 1.29162 294.477 1.29162ZM132.69 1.42228C133.556 1.36197 134.361 1.12827 135.661 1.37453C134.469 1.39464 133.572 1.4072 132.69 1.42228ZM482.855 13.3659C482.855 13.391 482.84 13.4186 482.84 13.4438C481.354 13.4237 479.883 13.4036 478.397 13.386C478.413 13.3634 478.413 13.3407 478.428 13.3206C479.899 13.3357 481.369 13.3508 482.855 13.3659ZM295.406 19.4495C295.406 19.4394 295.406 19.4294 295.406 19.4193C296.427 19.3917 297.449 19.3665 298.424 19.3414C298.439 19.3892 298.47 19.452 298.501 19.5173C297.449 19.4922 296.427 19.4696 295.406 19.4495ZM294.663 1.47757C294.663 1.49265 294.663 1.50772 294.663 1.5228C293.301 1.5228 291.939 1.5228 290.592 1.5228C290.592 1.50772 290.592 1.49265 290.592 1.47757C291.939 1.47757 293.301 1.47757 294.663 1.47757ZM494.293 12.1496C494.293 12.1697 494.293 12.1873 494.293 12.2074C493.256 12.2074 492.219 12.2074 491.167 12.2074C491.167 12.1873 491.167 12.1697 491.167 12.1496C492.204 12.1496 493.256 12.1496 494.293 12.1496ZM498.317 13.4463C498.317 13.4614 498.317 13.4764 498.333 13.4915C497.311 13.4739 496.29 13.4538 495.082 13.4337C495.779 13.3633 496.228 13.3156 496.429 13.2955C497.156 13.3533 497.729 13.401 498.317 13.4463ZM342.984 19.1027C344.624 19.1027 345.956 19.1027 347.565 19.1027C347.024 19.1881 346.745 19.2334 346.389 19.2912C345.723 18.977 344.238 19.2082 342.984 19.1027ZM120.663 1.88716C120.663 1.86705 120.663 1.84695 120.663 1.82685C122.072 1.82685 123.496 1.82685 124.904 1.82685C124.904 1.83439 124.904 1.84193 124.904 1.84947C123.496 1.86203 122.072 1.87459 120.663 1.88716ZM248.601 19.3389C247.239 19.4218 245.893 19.4595 244.361 19.2786C246.017 19.3012 247.301 19.3188 248.601 19.3389ZM532.151 4.51561C532.105 4.53572 532.058 4.55833 532.012 4.57843C531.037 4.51813 529.814 4.55833 529.257 4.32463C530.217 4.38745 531.176 4.45279 532.151 4.51561ZM478.552 14.4439C478.552 14.4288 478.552 14.4137 478.568 14.4012C479.976 14.4012 481.4 14.4012 482.809 14.4012C482.809 14.4162 482.793 14.4313 482.793 14.4439C481.369 14.4439 479.961 14.4439 478.552 14.4439ZM513.981 14.3333C513.965 14.3057 513.965 14.278 513.95 14.2479C514.971 14.2378 515.993 14.2278 517.014 14.2177C517.03 14.2403 517.03 14.263 517.045 14.2856C516.024 14.3032 515.002 14.3182 513.981 14.3333ZM504.09 2.31435C501.846 2.48523 501.428 2.48271 500.716 2.31435C501.753 2.31435 502.852 2.31435 504.09 2.31435ZM502.512 11.8984C502.512 11.9285 502.512 11.9562 502.512 11.9863C501.397 11.9612 500.283 11.9361 499.168 11.9109C499.184 11.8858 499.215 11.8582 499.23 11.833C500.329 11.8531 501.413 11.8757 502.512 11.8984ZM304.212 19.1957C304.212 19.1806 304.228 19.1655 304.228 19.1504C305.544 19.1504 306.844 19.1504 308.159 19.1504C308.159 19.1655 308.159 19.1806 308.144 19.1957C306.828 19.1957 305.513 19.1957 304.212 19.1957ZM518.593 13.3332C518.593 13.3634 518.577 13.391 518.577 13.4211C517.618 13.4061 516.674 13.391 515.714 13.3759C515.729 13.3407 515.76 13.303 515.776 13.2679C516.705 13.2905 517.649 13.3106 518.593 13.3332ZM398.61 0.972488C398.208 1.18357 397.31 1.10065 396.413 1.09562C396.846 0.859416 397.898 1.01521 398.61 0.972488ZM486.353 2.06558C486.338 2.09323 486.338 2.12338 486.322 2.15102C485.424 2.15102 484.527 2.15102 483.629 2.15102C483.629 2.13092 483.644 2.11082 483.644 2.09071C484.558 2.08318 485.455 2.07564 486.353 2.06558ZM513.346 9.21966C513.3 9.25484 513.238 9.28751 513.191 9.32269C512.293 9.29505 511.38 9.2649 510.483 9.23726C510.514 9.20962 510.544 9.18449 510.591 9.15684C511.504 9.17695 512.417 9.19956 513.346 9.21966ZM281.166 1.46751C281.151 1.43234 281.12 1.39967 281.104 1.36449C281.894 1.35444 282.683 1.34439 283.472 1.33685C283.488 1.37203 283.503 1.40721 283.503 1.44238C282.73 1.44992 281.94 1.45998 281.166 1.46751ZM336.762 1.21875C336.777 1.19613 336.777 1.17603 336.793 1.15341C338.232 1.16598 339.672 1.18105 341.096 1.19362C341.08 1.20116 341.08 1.2087 341.065 1.21875C339.641 1.21875 338.201 1.21875 336.762 1.21875ZM507 13.0593C507 13.0869 507.016 13.1146 507.016 13.1422C505.607 13.1422 504.183 13.1422 502.775 13.1422C502.775 13.1322 502.775 13.1221 502.775 13.1096C504.168 13.092 505.576 13.0744 507 13.0593ZM263.088 1.47505C263.104 1.50521 263.119 1.53537 263.135 1.56552C262.237 1.56552 261.339 1.56552 260.442 1.56552C260.426 1.54793 260.426 1.53285 260.411 1.51526C261.293 1.50269 262.191 1.48762 263.088 1.47505ZM149.715 1.0931C149.699 1.07551 149.699 1.0554 149.684 1.03782C150.814 1.03782 151.959 1.03782 153.089 1.03782C153.089 1.0554 153.089 1.07551 153.089 1.0931C151.959 1.0931 150.845 1.0931 149.715 1.0931Z" fill="url(#paint0_linear_6687_1202)"/>
<defs>
<linearGradient id="paint0_linear_6687_1202" x1="529.449" y1="20.0026" x2="357.405" y2="-236.205" gradientUnits="userSpaceOnUse">
<stop stop-color="#FDD925"/>
<stop offset="0.294518" stop-color="#FF9559"/>
<stop offset="0.682384" stop-color="#7C91FF"/>
<stop offset="1" stop-color="#7E33FF"/>
</linearGradient>
</defs>
</svg>
