<svg xmlns="http://www.w3.org/2000/svg" width="159" height="34" viewBox="0 0 159 34" fill="none">
  <path d="M145.058 15.3967C144.765 15.2885 144.468 15.189 144.175 15.0765C143.758 14.9121 143.221 15.0332 142.99 14.4101C142.963 14.4534 142.937 14.4923 142.91 14.5356C142.95 14.6178 142.99 14.7043 143.039 14.7995C142.524 14.7173 142.027 14.6394 141.53 14.5572C141.517 14.5875 141.508 14.6135 141.495 14.6438C141.708 14.7519 141.921 14.8645 142.089 14.951C141.974 14.951 141.721 15.0289 141.641 14.938C141.117 14.3279 140.31 14.4577 139.68 14.1418C139.693 14.0899 139.706 14.0423 139.715 13.9903C140.123 14.0423 140.527 14.0899 140.935 14.1418C140.94 14.1288 140.944 14.1158 140.949 14.1028C140.807 14.0423 140.669 13.9817 140.527 13.9211C140.532 13.8908 140.536 13.8605 140.536 13.8302C140.891 13.8778 141.246 13.9254 141.601 13.973C141.61 13.9557 141.619 13.9384 141.628 13.9254C141.548 13.8778 141.472 13.8259 141.393 13.7783C141.388 13.7437 141.388 13.7134 141.384 13.6788C141.694 13.6398 142 13.6009 142.311 13.5619C142.307 13.5273 142.307 13.4927 142.302 13.4581C141.952 13.5706 141.632 13.3109 141.242 13.5057C141.024 13.6139 140.678 13.4408 140.403 13.3153C140.603 13.285 140.802 13.2547 141.002 13.2244C141.002 13.2028 140.998 13.1811 140.993 13.1595C140.691 13.1595 140.39 13.1595 140.026 13.1595C140.132 13.2936 140.208 13.3845 140.35 13.5619C139.839 13.4884 139.422 13.4105 139.001 13.3758C138.446 13.3326 137.887 13.3369 137.332 13.2936C137.204 13.285 137.079 13.1811 136.96 13.034C138.384 13.0037 139.813 12.9734 141.237 12.9474C141.237 12.9085 141.242 12.8652 141.242 12.8263C140.887 12.7484 140.527 12.6662 140.172 12.5883C140.172 12.5666 140.172 12.5493 140.177 12.5277C140.669 12.5277 141.166 12.5277 141.659 12.5277C141.663 12.4758 141.668 12.4238 141.676 12.3719C141.57 12.3719 141.459 12.3676 141.353 12.3719C141.18 12.3762 141.006 12.4022 140.833 12.3935C140.678 12.3849 140.518 12.3416 140.332 12.3113C140.381 12.2075 140.412 12.1339 140.438 12.0776C140.119 12.0084 139.808 11.9392 139.493 11.8699C139.498 11.844 139.498 11.8137 139.502 11.7877C139.835 11.8267 140.172 11.8656 140.505 11.9045C140.505 11.8656 140.505 11.831 140.505 11.792C140.625 11.8007 140.745 11.805 140.86 11.8137C140.86 11.792 140.864 11.7661 140.864 11.7444C140.061 11.6189 139.258 11.4934 138.331 11.3463C138.726 11.2814 139.027 11.2338 139.325 11.1862C139.325 11.1473 139.329 11.1083 139.329 11.0694C139.156 11.078 138.987 11.0953 138.814 11.0953C138.593 11.0953 138.362 11.1083 138.144 11.0607C137.949 11.0174 137.772 10.8919 137.599 10.7102C138.042 10.7102 138.482 10.7102 138.925 10.7102C138.384 10.2558 137.767 10.6193 137.204 10.4765C137.204 10.4376 137.204 10.3986 137.204 10.3554C137.488 10.3554 137.776 10.377 138.06 10.351C138.584 10.3078 139.107 10.3856 139.635 10.1693C140.008 10.0178 140.483 10.113 140.909 10.1303C141.237 10.1433 141.566 10.2039 141.907 10.2428C141.765 10.2645 141.628 10.2861 141.495 10.3078C141.503 10.3554 141.508 10.403 141.517 10.4506C141.818 10.3813 142.129 10.3424 142.413 10.2299C142.644 10.1347 142.83 9.90098 143.061 9.81876C143.287 9.74087 143.554 9.7928 143.798 9.76684C143.979 9.7452 144.161 9.65865 144.343 9.65433C144.605 9.64567 144.867 9.68895 145.133 9.70625C145.32 9.71924 145.506 9.72356 145.697 9.73222C145.701 9.69327 145.706 9.65432 145.706 9.61538C145.506 9.6024 145.306 9.58942 145.107 9.57643C145.107 9.5548 145.107 9.53749 145.111 9.51585C145.475 9.48556 145.839 9.45527 146.203 9.4293C146.203 9.40767 146.203 9.39036 146.203 9.36872C144.481 9.36872 142.755 9.36872 141.033 9.36872C141.033 9.34276 141.033 9.31679 141.033 9.2865C141.659 9.21294 142.289 9.10042 142.915 9.08311C143.549 9.0658 144.188 9.16101 144.827 9.16533C145.692 9.16966 146.562 9.19995 147.418 9.0961C148.208 9.0009 148.98 8.74991 149.766 8.5119C148.976 8.49459 148.186 8.48161 147.401 8.45565C146.726 8.43401 146.03 8.48594 145.382 8.33448C144.441 8.11379 143.505 8.16572 142.56 8.12244C141.699 8.0835 140.842 7.97098 139.986 7.958C139.604 7.95368 139.223 8.12244 138.837 8.19168C138.743 8.20899 138.637 8.14841 138.433 8.09648C138.686 8.03157 138.841 7.99262 139.063 7.94069C138.628 7.58152 138.167 7.65942 137.732 7.55556C138.025 7.55556 138.313 7.55556 138.624 7.55556C138.464 7.49065 138.326 7.43439 138.184 7.37814C138.193 7.34352 138.198 7.30457 138.206 7.26995C138.522 7.3089 138.837 7.34785 139.152 7.38247C139.156 7.3565 139.161 7.33486 139.165 7.3089C139.112 7.27428 139.058 7.23966 139.005 7.20072C139.107 7.05359 139.294 7.12282 139.946 7.55556C139.831 7.59451 139.733 7.62912 139.64 7.65942C139.662 7.6724 139.684 7.68971 139.702 7.70269C140.403 7.70269 141.104 7.70269 141.805 7.70269C141.81 7.66374 141.81 7.6248 141.814 7.59018C141.113 7.45603 140.407 7.32188 139.706 7.18774C139.702 7.1661 139.697 7.14013 139.693 7.1185C140.816 7.06657 141.943 7.01464 143.065 6.95838C143.07 6.91511 143.07 6.87617 143.074 6.83289C142.963 6.78097 142.852 6.72471 142.657 6.63383C142.915 6.65547 143.079 6.66845 143.243 6.68143C143.247 6.66412 143.252 6.65114 143.256 6.63383C143.132 6.57758 143.003 6.517 142.835 6.4391C142.923 6.36121 142.981 6.31361 142.959 6.33525C142.094 6.26168 141.175 6.18379 140.257 6.11023C139.928 6.08426 139.595 6.07993 139.263 6.04964C138.783 6.00637 138.309 5.94579 137.834 5.89386C137.834 5.85924 137.838 5.82029 137.838 5.78567C139.662 5.78567 141.481 5.78567 143.305 5.78567C143.309 5.75538 143.309 5.72076 143.314 5.69047C142.866 5.65585 142.413 5.59094 141.965 5.58661C140.745 5.57796 139.524 5.62124 138.3 5.5996C137.674 5.59094 137.053 5.47843 136.427 5.43948C136.276 5.43083 136.116 5.53901 135.961 5.59094C135.881 5.61691 135.797 5.66451 135.717 5.65585C135.349 5.61258 134.98 5.53469 134.612 5.50873C134.035 5.46545 133.458 5.44381 132.882 5.4265C132.469 5.41352 132.052 5.42218 131.635 5.42218C131.648 5.39621 131.688 5.32698 131.746 5.22745C131.324 5.19283 130.92 5.17551 130.516 5.12359C129.873 5.04569 129.234 4.95049 128.595 4.84664C127.836 4.72114 127.082 4.54805 126.319 4.4615C126.008 4.42688 125.684 4.59132 125.36 4.63027C125.152 4.65623 124.934 4.64325 124.73 4.59998C124.162 4.47448 123.603 4.3187 123.04 4.1759C122.72 4.52209 122.165 4.14993 121.859 4.59998C121.815 4.66489 121.606 4.60863 121.473 4.60863C121.495 4.47016 121.513 4.32735 121.535 4.20186C121.127 4.40957 120.954 3.92058 120.643 3.81673C120.413 3.73884 120.177 3.67825 119.942 3.622C119.774 3.58305 119.601 3.57439 119.432 3.54843C119.396 3.5441 119.361 3.52247 119.325 3.52247C118.966 3.50516 118.607 3.49218 118.221 3.47487C118.158 3.51381 118.039 3.66527 117.919 3.66527C117.457 3.66094 116.996 3.61334 116.534 3.57007C116.108 3.53112 115.682 3.4792 115.256 3.43592C114.711 3.38399 114.165 3.34072 113.588 3.37101C113.845 3.45323 114.107 3.53978 114.364 3.622C114.351 3.66527 114.338 3.70422 114.325 3.74749C113.823 3.57439 113.322 3.4013 112.82 3.22821C112.829 3.17628 112.834 3.12435 112.842 3.06809C113.552 3.06809 114.262 3.06809 114.999 3.06809C114.963 2.90798 114.564 2.92097 114.932 2.63103C113.978 2.5142 113.118 2.41034 112.177 2.29783C112.301 2.40601 112.372 2.47092 112.452 2.54016C111.755 2.63103 111.072 2.72191 110.358 2.81711C111.245 3.0681 112.11 3.31476 112.98 3.56142C112.971 3.62633 112.962 3.69123 112.953 3.75182C111.831 3.69123 110.708 3.62632 109.59 3.56574C109.59 3.50516 109.59 3.4489 109.59 3.38832C109.883 3.38832 110.176 3.38832 110.557 3.38832C110.1 3.07242 109.723 3.23686 109.341 3.28446C108.995 3.32774 108.645 3.34072 108.294 3.34505C108.214 3.34505 108.139 3.21955 108.05 3.20225C107.895 3.17195 107.735 3.18061 107.58 3.17628C107.424 3.17195 107.265 3.17628 107.069 3.17628C107.171 3.25417 107.256 3.31475 107.349 3.38399C107.078 3.41428 106.825 3.46621 106.572 3.46189C106.47 3.46189 106.368 3.34505 106.288 3.20225C106.107 3.22821 105.925 3.25417 105.738 3.28014C105.734 3.23686 105.725 3.19359 105.72 3.15464C106.479 2.895 107.305 3.11137 108.072 2.85173C108.006 2.80413 107.921 2.74787 107.842 2.68729C107.85 2.66133 107.859 2.63536 107.868 2.6094C108.139 2.70027 108.414 2.79114 108.707 2.88635C108.654 2.95559 108.605 3.01617 108.472 3.18926C108.862 3.16763 109.159 3.15032 109.474 3.13733C109.448 3.00318 109.43 2.92962 109.403 2.80413C109.692 2.86904 109.949 2.92529 110.211 2.98155C110.216 2.93828 110.224 2.89933 110.229 2.85606C109.297 2.38005 108.219 2.70893 107.251 2.37139C107.393 2.44929 107.531 2.5315 107.673 2.6094C107.668 2.63536 107.664 2.657 107.655 2.68296C107.069 2.52285 106.484 2.35841 105.898 2.1983C105.885 2.23292 105.876 2.26321 105.862 2.29783C106.142 2.42765 106.426 2.55747 106.754 2.70893C106.67 2.76085 106.603 2.83442 106.541 2.83009C105.689 2.79547 104.837 2.75653 103.981 2.70893C103.892 2.7046 103.812 2.61805 103.728 2.57045C103.71 2.60074 103.697 2.63536 103.679 2.66565C103.772 2.72623 103.857 2.7998 103.954 2.84307C104.065 2.895 104.185 2.91664 104.416 2.9902C104.225 3.09839 104.145 3.14166 104.048 3.19359C104.154 3.27148 104.238 3.33639 104.345 3.41861C103.972 3.76913 103.524 3.59171 103.129 3.68258C102.508 3.82106 101.887 3.73451 101.265 3.75182C100.977 3.76047 100.657 3.9552 100.418 3.87298C99.7211 3.62632 99.0067 3.81673 98.3367 3.68258C97.8885 3.59171 97.4226 3.68691 96.9877 3.47919C97.0764 3.47919 97.1696 3.47919 97.2584 3.47919C97.2628 3.45756 97.2628 3.43592 97.2673 3.41428C97.1297 3.39265 96.9921 3.37101 96.8546 3.34937C96.7836 3.43159 96.7081 3.57872 96.6371 3.57872C96.4552 3.57439 96.2777 3.49218 96.0958 3.46621C95.5988 3.39265 95.1018 3.33639 94.6093 3.26716C94.5161 3.25417 94.4273 3.20657 94.3341 3.17628C94.698 3.0854 95.0574 3.0681 95.4124 3.08973C95.6387 3.10271 95.8606 3.1633 96.078 3.21955C96.189 3.24984 96.2866 3.31908 96.3887 3.37101C96.3842 3.41428 96.3798 3.46188 96.3753 3.50516C96.5351 3.45323 96.6948 3.4013 96.8546 3.34505C97.001 3.26716 97.1608 3.10272 97.2894 3.12868C97.6444 3.19792 97.9595 3.20224 98.3012 3.03348C98.5053 2.93395 98.7715 2.96857 99.0111 2.94693C99.02 2.91231 99.0245 2.87769 99.0333 2.84307C98.7671 2.75653 98.5008 2.66998 98.2346 2.58343C98.3322 2.53583 98.4432 2.48391 98.5497 2.43198C98.5452 2.39736 98.5408 2.36274 98.5363 2.32812C97.7465 2.62238 96.9566 2.57045 96.1668 2.35841C96.1624 2.39736 96.1535 2.43198 96.149 2.47092C96.2644 2.50987 96.3842 2.54449 96.4996 2.58343C96.4996 2.60507 96.4996 2.62671 96.4996 2.64834C96.291 2.63536 96.078 2.62671 95.8695 2.59641C95.8295 2.59209 95.7674 2.50554 95.7674 2.45794C95.7674 2.41034 95.8251 2.33245 95.8695 2.31946C95.976 2.2935 96.0869 2.29783 96.1978 2.26754C95.692 2.26754 95.1906 2.26754 94.6181 2.26754C94.9376 2.41899 95.2172 2.55314 95.5988 2.73489C94.5338 2.91664 93.5621 2.69162 92.4926 2.70893C92.7855 2.81278 92.9719 2.87769 93.1583 2.9426C93.1538 2.9902 93.1494 3.03348 93.1449 3.08108C92.9453 3.05944 92.7411 3.05944 92.5548 2.99886C92.4616 2.96857 92.4039 2.82576 92.3285 2.73489C92.3506 2.69161 92.3684 2.65267 92.3906 2.60939C91.7427 2.53583 91.0904 2.46226 90.4426 2.3887C90.4426 2.33244 90.447 2.27619 90.447 2.21561C91.1171 2.13339 91.7915 2.05117 92.4616 1.97328C92.4616 1.96029 92.4616 1.94731 92.4571 1.93433C91.7383 1.93433 91.0239 1.93433 90.2961 1.93433C90.5136 1.87375 90.7354 1.81316 90.9573 1.75258C90.9529 1.72662 90.9484 1.70498 90.9396 1.67901C90.1941 1.77422 89.4486 1.87375 88.712 1.96895C89.1735 2.14204 89.6305 2.31514 90.1586 2.50987C89.4087 2.61805 88.7519 2.70893 88.0952 2.80413C88.0952 2.83442 88.0952 2.86471 88.0952 2.895C88.2949 2.90798 88.4946 2.92096 88.7386 2.93395C88.5522 3.21522 88.6366 3.30177 88.9161 3.34505C89.4397 3.43159 89.9589 3.57007 90.4781 3.69123C90.4869 3.64363 90.4958 3.60036 90.5047 3.55276C90.0521 3.45323 89.5995 3.35803 89.0625 3.24119C89.2223 3.18061 89.3022 3.15032 89.4885 3.07675C89.209 3.03348 89.0271 3.00751 88.8451 2.97722C88.8496 2.95558 88.8496 2.92962 88.854 2.90798C89.3022 2.90798 89.7503 2.90798 90.203 2.90798C90.203 2.93828 90.2074 2.96424 90.2074 2.99453C90.1098 3.02482 90.0166 3.05511 89.919 3.08108C90.1985 3.16763 90.4692 3.42294 90.7399 3.05511C90.7931 2.98155 91.0549 3.05944 91.2147 3.10271C91.4454 3.1633 91.6629 3.31476 91.8936 3.32774C92.6435 3.36236 93.3979 3.34072 94.1478 3.36235C94.2853 3.36668 94.4229 3.46188 94.5605 3.51814C94.5516 3.55708 94.5427 3.59603 94.5338 3.63498C94.099 3.63498 93.6597 3.63498 93.2248 3.63498C93.034 3.63498 92.8476 3.63498 92.6568 3.63498C92.4793 3.63931 92.3063 3.64796 92.1288 3.64796C91.938 3.64796 91.7871 3.59171 91.5785 3.77345C91.4099 3.92058 91.015 3.77778 90.7221 3.77778C90.4159 3.77778 90.1053 3.78643 89.7991 3.81673C89.4752 3.84702 89.1469 4.04175 88.8629 3.69989C88.8362 3.6696 88.7652 3.65662 88.7209 3.6696C88.2195 3.79942 87.7402 3.77345 87.2743 3.47054C87.3009 3.52679 87.3275 3.58305 87.3497 3.63498C87.2077 3.6696 87.0657 3.69989 86.9371 3.73018C86.9859 3.51381 87.0169 3.37101 87.0569 3.17628C87.3364 3.24984 87.6426 3.32341 87.9443 3.4013C87.5627 2.9902 87.0702 2.9902 86.5954 2.92962C86.2936 2.89067 85.9963 2.83874 85.6946 2.82143C85.4283 2.80413 85.1621 2.84307 84.8959 2.83009C84.603 2.81278 84.3101 2.77383 84.0217 2.71758C83.5469 2.62671 83.0721 2.51419 82.5884 2.45361C83.0987 2.84307 83.822 2.65267 84.3856 3.1633C83.2318 3.17195 82.1757 3.15464 81.0708 2.96424C81.1951 2.76518 81.2617 2.66132 81.3371 2.53583C81.4702 2.58776 81.6166 2.64401 81.7941 2.71325C81.6433 2.46659 81.6477 2.44928 80.9333 2.28484C80.6227 2.21128 80.2943 2.21993 79.9748 2.09877C80.3786 2.05982 80.7824 2.02088 81.1818 1.9776C79.9482 1.7396 78.6924 2.1983 77.4633 1.82182C78.1999 1.62276 78.9675 2.08579 79.6953 1.67469C79.3979 1.70498 79.0962 1.7396 78.79 1.76989C78.8566 1.65738 78.9143 1.56218 78.972 1.46265L78.9808 1.4713C78.1821 1.50592 77.3834 1.56218 76.5846 1.57516C76.0078 1.58381 75.4309 1.54054 74.8585 1.49726C74.5479 1.4713 74.2373 1.40639 73.9355 1.33715C73.8557 1.31984 73.7935 1.22031 73.6826 1.12078C73.7181 1.26359 73.7403 1.36312 73.7669 1.47563C73.5184 1.5665 73.1679 1.59247 73.088 1.99059C72.7064 1.96029 72.3159 1.93866 71.9298 1.89106C71.6902 1.86076 71.3974 2.01222 71.2243 1.68334C71.2066 1.64872 71.0823 1.6617 71.0069 1.67036C70.4478 1.71796 69.8931 1.76123 69.334 1.82182C69.2541 1.83047 69.1787 1.92135 69.1032 2.04684C70.146 1.54487 71.0823 2.23724 72.0807 2.27186C71.4905 2.41034 70.8959 2.53583 70.2836 2.41034C69.9996 2.35408 69.7112 2.31946 69.4227 2.27619C69.2497 2.25023 69.0589 2.27186 68.908 2.1983C68.7616 2.12473 68.6551 1.95597 68.5131 1.81316C68.695 1.74825 68.8281 1.70065 68.9612 1.65305C68.6151 1.63141 68.269 1.60545 67.9273 1.58381C68.2912 1.40639 68.6506 1.26791 68.9568 1.6617C69.2275 1.63574 69.4982 1.58814 69.7688 1.58381C70.3679 1.57083 70.9714 1.57949 71.6237 1.57949C71.5394 1.64007 71.4994 1.66603 71.4595 1.69632C71.4639 1.72662 71.4728 1.75258 71.4772 1.78287C71.7834 1.70931 72.0852 1.61411 72.3958 1.56218C72.6665 1.5189 72.946 1.52756 73.2256 1.51025C73.2211 1.45832 73.2123 1.40639 73.2078 1.35446C72.0896 1.35446 70.9758 1.35446 69.8576 1.35446C69.8532 1.31984 69.8487 1.28522 69.8443 1.24628C70.0262 1.19435 70.2037 1.14675 70.3856 1.09482C70.3013 0.995293 70.2259 0.904419 70.0839 0.731327C70.0972 0.913074 70.1061 0.995293 70.115 1.11213C69.6268 1.11213 69.1387 1.11213 68.5708 1.11213C68.6551 1.07751 68.7172 1.05155 68.8104 1.0126C68.4864 0.882782 68.2113 0.774597 67.9229 0.662086C68.1847 0.614486 68.4332 0.571213 68.6861 0.523613C68.6861 0.506302 68.6817 0.49332 68.6817 0.476009C68.3489 0.476009 68.0117 0.476009 67.6434 0.476009C67.6167 0.722671 67.5945 0.96933 67.5635 1.26792C67.0842 1.21599 66.6006 1.12078 66.1213 1.12078C65.6998 1.12078 65.2827 1.23762 64.8611 1.28955C64.6969 1.30687 64.5283 1.2809 64.3597 1.27224L64.3686 1.28522C63.9603 0.9174 63.5077 1.08184 63.1527 1.31119C62.9575 1.43668 62.8643 1.43236 62.6824 1.38043C62.5359 1.33715 62.3629 1.38043 62.2076 1.35879C62.0878 1.34148 61.9724 1.28522 61.857 1.24628C61.6174 1.24628 61.3778 1.24628 61.1382 1.24628C61.2846 1.09915 61.431 0.999622 61.5775 1.00828C61.6706 1.0126 61.7594 1.16839 61.8481 1.25494C62.1854 1.12079 62.5182 0.965003 62.8599 0.852493C63.0019 0.804889 63.1705 0.843833 63.3923 0.843833C63.0196 0.506301 62.6469 0.597179 62.3052 0.653434C61.826 0.735652 61.36 0.891437 60.8764 1.01693C60.9119 1.0602 60.9695 1.14242 61.0317 1.22464C61.0228 1.25926 61.0095 1.29821 61.0006 1.33283C60.7832 1.30686 60.5657 1.2809 60.3084 1.25061C60.0155 1.44966 59.6028 1.31552 59.2212 1.31552C58.8263 1.31552 58.4314 1.25061 58.0231 1.21599C58.0098 1.1554 57.9921 1.06886 57.9832 1.03424C58.174 0.943366 58.3648 0.852493 58.5778 0.748634C58.3692 0.458701 57.9388 0.783252 57.9166 0.363498C58.3559 0.272624 58.7508 0.190406 59.1413 0.108188C59.1413 0.0735658 59.1413 0.0346216 59.1413 3.18431e-06C58.7198 3.16555e-06 58.2982 3.14678e-06 57.8234 3.12565e-06C57.7036 0.268298 55.9819 0.900088 55.2364 0.843833C55.2941 0.926055 55.3341 0.98231 55.3873 1.04722C54.9658 1.04722 54.5531 1.04722 54.1404 1.04722C54.0783 1.04722 53.9984 1.00395 53.9585 1.02991C53.4926 1.35879 53.0577 0.904418 52.6273 1.0602C52.6539 0.861144 52.6716 0.731326 52.6894 0.60583L52.7027 0.618812C52.3122 0.856818 51.7398 0.969329 51.7309 0.796233C51.8108 0.778922 51.8907 0.761619 51.9705 0.748633C51.9217 0.679397 51.8774 0.614486 51.833 0.549575C50.9633 0.8698 49.5921 0.973655 48.9842 0.835181C49.0507 0.939036 49.0862 1.05155 49.1351 1.0602C49.4013 1.09049 49.672 1.11213 49.9427 1.10348C50.6881 1.07751 51.4336 1.02558 52.1835 1.00828C52.2723 1.00395 52.361 1.13377 52.4498 1.20301C52.361 1.27224 52.2856 1.38475 52.188 1.40639C51.5135 1.57516 50.8612 1.31985 50.1956 1.27224C49.9693 1.25494 49.7385 1.3761 49.5034 1.39774C49.3347 1.41072 49.1572 1.36312 48.9842 1.34581C48.8466 1.33283 48.7091 1.31984 48.5715 1.30686C48.5626 1.34148 48.5582 1.3761 48.5493 1.41072C48.6736 1.45399 48.8023 1.49294 49.0374 1.57083C48.5049 1.85211 48.0213 1.62276 47.582 1.74392C47.5997 1.64439 47.6086 1.58814 47.6175 1.52756C47.826 1.50592 48.0656 1.47996 48.3008 1.45832C48.3008 1.4237 48.2964 1.39341 48.2964 1.35879C48.008 1.35879 47.724 1.35879 47.4355 1.35879C47.4311 1.33283 47.4311 1.30686 47.4267 1.28522C47.542 1.25926 47.6619 1.22897 47.8482 1.18569C47.2447 0.969329 46.6767 1.58381 46.1354 1.15108C45.7582 1.19002 45.3455 1.23762 44.9284 1.26359C44.8707 1.26792 44.8042 1.13809 44.6977 1.02126C44.3161 1.02126 43.8546 1.02126 43.3088 1.02126C43.4552 0.947692 43.5351 0.913069 43.6105 0.874125C43.6016 0.835177 43.5928 0.796233 43.5839 0.757289C42.7541 1.07751 41.8666 0.874125 41.028 1.22897C41.4495 1.22897 41.8666 1.22897 42.2882 1.22897C40.4556 1.45832 38.6318 1.83047 36.7725 1.65738C36.8435 1.6444 36.9101 1.63574 36.9811 1.62276C37.2518 1.5665 37.5269 1.57949 37.802 1.52756C38.5253 1.38475 39.2796 1.42803 40.0207 1.37177C40.2825 1.35446 40.5399 1.27224 40.8017 1.22031C40.7972 1.18569 40.7884 1.1554 40.7839 1.12078C40.2337 1.1554 39.6834 1.20301 39.1332 1.22031C38.1259 1.2506 37.1186 1.26792 36.1114 1.26792C35.6099 1.26792 35.1041 1.16839 34.6071 1.20301C34.1989 1.2333 33.8039 1.41072 33.4001 1.50592C33.1783 1.55785 32.9431 1.6141 32.7168 1.5968C31.9979 1.55352 31.2835 1.47563 30.5646 1.41504C30.5602 1.45399 30.5513 1.49294 30.5469 1.53189C30.68 1.55785 30.8087 1.57948 30.9418 1.60545C30.9463 1.63574 30.9463 1.66603 30.9507 1.69632C30.396 1.76556 29.8413 1.83912 29.2867 1.90836C29.2822 1.89105 29.2778 1.86942 29.2734 1.85211C29.4331 1.80018 29.5929 1.74392 29.7526 1.69199C29.1048 1.81749 28.5146 1.39773 27.8623 1.51457C27.1922 1.63574 26.5 1.64872 25.8167 1.70498C25.8078 1.74825 25.7945 1.7872 25.7856 1.83047C25.9232 1.92135 26.0607 2.01222 26.2781 2.15935C26.003 2.17233 25.7856 2.18531 25.5637 2.1983C25.5593 2.17233 25.5549 2.14637 25.5504 2.1204C25.5992 2.09011 25.648 2.05549 25.7013 2.0252C25.6835 2.00789 25.6702 1.9776 25.6525 1.97327C25.404 1.91702 25.151 1.86941 24.9026 1.81749C24.8404 1.80451 24.7517 1.76556 24.7251 1.79152C24.339 2.14204 23.9707 1.73527 23.5847 1.76988C23.1942 1.80451 22.7948 1.71796 22.3999 1.68767C22.3954 1.64007 22.3866 1.59247 22.3821 1.54919C22.7105 1.47563 23.0389 1.34581 23.3717 1.33283C24.5786 1.28523 25.79 1.28522 26.997 1.24628C27.5561 1.22897 28.1108 1.14675 28.6699 1.11646C28.8385 1.10781 29.0071 1.18137 29.1802 1.18137C29.7171 1.18137 30.254 1.16839 30.791 1.1554C30.8176 1.1554 30.8442 1.11213 30.8664 1.05155C30.4626 1.15541 30.1076 0.861143 29.6683 1.00828C29.3222 1.12079 28.9051 0.956343 28.5146 0.952017C27.9555 0.939035 27.3919 0.969328 26.8328 0.960672C26.6331 0.956346 26.429 0.843836 26.2338 0.852491C25.9187 0.865473 25.6081 0.952017 25.2975 0.990965C24.2503 1.11213 23.203 1.2809 22.1514 1.31984C21.1752 1.35879 20.1723 1.37177 19.2227 1.17271C18.5083 1.02125 17.9226 1.19867 17.3013 1.41937C17.2081 1.45399 17.146 1.58814 17.044 1.70498C16.5514 1.65738 15.9923 1.60112 15.4598 1.54919C15.8636 0.99529 16.5115 1.39773 17.0129 1.1078C16.3917 1.1078 15.7704 1.1078 15.0516 1.1078C15.238 1.17704 15.3489 1.22031 15.5575 1.2982C15.3489 1.36744 15.2291 1.43668 15.1093 1.44101C14.2573 1.47563 13.4098 1.47995 12.5578 1.53188C11.1378 1.6141 9.71787 1.71796 8.2979 1.82614C7.16637 1.91702 6.03484 2.03818 4.89887 2.12906C4.7125 2.14204 4.5217 2.06415 4.33089 2.0252C4.33089 1.99058 4.33533 1.95163 4.33533 1.91702C5.19174 1.72661 6.03929 1.49727 6.90457 1.36311C7.81867 1.22031 8.74608 1.16839 9.66905 1.07751C9.66461 1.03424 9.66461 0.990964 9.66017 0.952016C9.01232 1.00827 8.3689 1.05155 7.72106 1.12078C7.08206 1.19002 6.43865 1.26791 5.79965 1.35879C5.14293 1.45399 4.49063 1.5665 3.83391 1.67469C3.18161 1.77854 2.52933 1.8824 1.82822 1.99924C1.81934 1.84778 1.82822 1.71796 1.79715 1.60112C1.76608 1.48428 1.70839 1.31984 1.62409 1.28955C1.5309 1.25493 1.3179 1.31551 1.29129 1.38908C1.04279 2.0252 0.465928 2.3584 1.33421e-06 2.91663C0.221879 2.95558 0.363878 2.96423 0.497011 3.00751C0.643434 3.05511 0.785432 3.13733 0.92299 3.21089C0.989549 3.24551 1.04723 3.29744 1.10935 3.34504C1.13153 3.26715 1.13599 3.1806 1.17592 3.12002C1.27799 2.95991 1.37116 2.78249 1.51315 2.6743C1.57971 2.62237 1.74834 2.71758 1.89478 2.74787C1.61522 3.02049 1.39778 3.23686 1.10048 3.52679C1.36672 3.58305 1.51315 3.59603 1.64629 3.64363C1.80159 3.70421 1.94801 3.79509 2.09889 3.86865C2.16545 3.90327 2.23645 3.9552 2.29857 3.95087C2.33408 3.94654 2.39176 3.8297 2.38289 3.77345C2.3252 3.35803 2.62694 3.36235 2.9198 3.17627C2.83994 3.37533 2.79555 3.46188 2.77336 3.55708C2.65355 4.08502 2.67131 4.10666 3.19492 4.12829C3.31917 4.13262 3.43897 4.16291 3.56322 4.18455C3.67415 4.20186 3.78066 4.2235 3.89159 4.24081C3.79398 4.7298 3.80728 4.73845 4.29096 4.77307C4.54833 4.79038 4.80126 4.84663 5.05419 4.95482C4.92107 4.95482 4.77907 4.97645 4.65038 4.95049C4.21996 4.86827 3.87827 4.80336 3.50997 5.27071C3.27922 5.56497 2.68463 5.54766 2.24533 5.65152C2.11664 5.68181 1.97464 5.65585 1.73946 5.65585C2.04564 5.96309 2.29413 6.2184 2.49825 6.42179C2.40062 6.91078 2.3385 7.32188 2.22313 7.71566C2.16989 7.89741 2.00571 8.04022 1.89034 8.20033C1.82378 8.2912 1.70841 8.37775 1.69508 8.47295C1.61522 9.21726 1.6729 9.94858 1.90808 10.6583C1.9214 10.7015 1.97908 10.7318 2.05451 10.8011C1.89034 10.9482 1.73946 11.0867 1.58415 11.2295C1.8149 11.5886 1.5309 11.8353 1.3046 12.0949C1.8859 12.4411 2.2542 12.8695 2.12552 13.6225C2.10332 13.7393 2.3385 13.9038 2.44057 14.0249C2.18764 14.1721 1.94357 14.3105 1.62409 14.4966C1.82376 14.5832 1.92139 14.6264 2.0412 14.6784C1.93471 14.7736 1.83264 14.8601 1.69508 14.9813C1.86371 15.0938 2.00127 15.189 2.1832 15.3145C2.07227 15.4486 1.97022 15.5698 1.88146 15.678C1.96134 15.8684 2.17877 16.167 2.11664 16.2665C1.96578 16.5002 1.68178 16.643 1.4111 16.8507C1.48654 17.3007 2.02789 17.2358 2.35182 17.5258C2.15657 17.6556 1.97464 17.7724 1.79715 17.8893C1.83708 17.8979 1.87701 17.9066 1.91696 17.9152C1.94801 18.0753 2.04564 18.2614 1.99683 18.3869C1.85483 18.7461 1.66403 19.0879 1.4688 19.4211C1.37117 19.5899 1.34454 19.6808 1.49097 19.8582C1.71727 20.1308 1.96133 20.4467 1.65515 20.8492C1.59303 20.9314 1.5531 21.0958 1.58859 21.1867C1.81046 21.7579 1.36227 22.169 1.3046 22.684C1.36671 22.7619 1.44659 22.8571 1.55309 22.9869C1.38004 23.0128 1.26022 23.0302 1.23804 23.0302C1.32678 23.1989 1.45104 23.3893 1.52203 23.597C1.6241 23.887 1.59303 24.2288 1.93471 24.4019C2.01459 24.4409 2.05452 24.6616 2.0412 24.7957C2.01901 25.0943 2.09445 25.302 2.38289 25.3929C2.46275 25.4189 2.53819 25.4708 2.61807 25.5141C2.60031 25.5573 2.57813 25.6049 2.56038 25.6482C2.33408 25.7348 2.10777 25.8256 1.88145 25.9122C1.88145 25.9381 1.87701 25.9598 1.87701 25.9857C2.09001 25.9987 2.31189 25.9857 2.51601 26.0333C2.65356 26.0636 2.80443 26.1588 2.89319 26.2713C3.01743 26.4358 3.08842 26.6435 3.18605 26.8296C3.39461 27.2234 3.34135 27.3705 2.93312 27.5436C2.8355 27.5869 2.74231 27.6388 2.64912 27.6907C2.65799 27.7253 2.66245 27.7556 2.67131 27.7902C2.96861 27.7902 3.26149 27.7902 3.5721 27.7902C3.70966 28.0888 3.87828 28.4047 3.99808 28.7423C4.0824 28.9889 4.03358 29.2183 3.89159 29.4866C3.62091 29.9972 3.82945 30.2871 4.45068 30.352C4.33089 30.4559 4.2244 30.5468 4.12233 30.6333C4.13564 30.6636 4.14896 30.6939 4.16226 30.7199C4.36638 30.6593 4.57051 30.5987 4.81456 30.5251C4.91663 30.7026 4.95212 31.0271 5.30267 31.0358C5.34705 31.0358 5.38254 31.2132 5.43579 31.2997C5.49791 31.3993 5.5556 31.5421 5.64435 31.581C5.9594 31.7065 6.02153 31.9791 6.06146 32.2734L6.0526 32.2647C6.36321 32.07 6.36321 32.07 6.98 32.308C6.74481 32.6326 6.70932 32.6412 6.44751 32.4119C6.4697 32.5027 6.47414 32.6109 6.52295 32.6931C6.55846 32.758 6.69601 32.8446 6.70488 32.8359C7.02881 32.4854 7.37936 32.7667 7.72105 32.771C7.90298 32.7754 8.08492 32.7321 8.27127 32.7148C8.30678 32.758 8.34227 32.8013 8.37778 32.8489C8.16478 32.9744 7.95178 33.0956 7.74323 33.2211C7.7876 33.286 7.83197 33.3509 7.87634 33.4201C8.33339 33.2946 8.78601 33.1345 9.25194 33.0523C9.65129 32.9787 10.0684 32.9831 10.4767 32.9744C11.0313 32.9614 11.5904 32.9831 12.1451 32.9701C12.651 32.9571 13.1568 32.9225 13.6627 32.8792C14.0221 32.8489 14.3815 32.7667 14.741 32.7624C15.0427 32.758 15.3445 32.8403 15.6462 32.8835L15.6329 32.8706C16.0278 32.823 16.4272 32.771 16.8221 32.7234C16.8842 32.7148 16.9818 32.7061 17.004 32.7407C17.3368 33.2254 17.8338 32.9658 18.3264 33.061C18.1622 33.26 18.0246 33.4288 17.8871 33.5932C17.896 33.6192 17.9048 33.6495 17.9137 33.6754C18.3663 33.5456 18.8145 33.3812 19.276 33.299C19.6531 33.2341 20.0481 33.26 20.4341 33.2557C21.224 33.2514 22.0138 33.273 22.7992 33.2427C23.7621 33.2038 24.7206 33.1259 25.6835 33.0653C25.7945 33.0566 25.9054 33.0783 26.0607 33.0869C25.9808 33.1865 25.932 33.247 25.8122 33.3985C26.3891 33.3509 26.8816 33.5759 27.3742 33.2254C27.5517 33.0999 27.8179 33.1259 28.0487 33.0263C28.488 32.8403 28.9982 32.8403 29.4819 32.7667C29.4952 32.8013 29.513 32.8359 29.5263 32.8662C29.3843 33.0307 29.2467 33.1951 29.1048 33.3639C29.1181 33.3942 29.1358 33.4245 29.1491 33.4547C29.6195 33.3119 30.0854 33.1302 30.5691 33.0393C30.9108 32.9744 31.2702 33.0263 31.6207 33.022C32.4328 33.0177 33.2493 33.0436 34.0613 33.0047C34.7092 32.9744 35.3526 32.8316 36.0004 32.81C36.3732 32.797 36.7503 32.9355 37.1275 32.9744C37.589 33.022 38.0372 33.1302 38.5075 32.8576C38.7738 32.7061 39.1598 32.7797 39.4926 32.7624C39.6524 32.7537 39.8121 32.7797 40.0074 32.7883C39.963 32.6931 39.9408 32.6326 39.9098 32.572C40.1094 32.572 40.2958 32.572 40.5354 32.572C40.4289 32.7364 40.3491 32.8662 40.1982 33.0956C40.744 32.9355 41.1877 32.758 41.6492 32.6802C42.0264 32.6152 42.4257 32.6239 42.8118 32.6542C43.9611 32.7451 45.1059 32.8706 46.2552 32.6499C46.4859 32.6066 46.73 32.6542 46.9696 32.6672C47.2669 32.6802 47.5687 32.6931 47.866 32.7148C48.0346 32.7278 48.2875 32.572 48.292 32.9441C48.292 32.9701 48.3763 33.0134 48.4206 33.0134C48.82 33.0134 49.246 33.0956 49.6054 32.9744C50.2133 32.7624 50.8035 32.9095 51.3981 32.9182C51.6067 32.9225 51.8197 32.9355 52.0282 32.9484C52.8669 32.9874 53.7056 33.0307 54.5442 33.0653C54.8371 33.0783 55.1344 33.0653 55.3429 33.0653C55.0723 33.286 54.7528 33.55 54.3623 33.8702C55.2098 34.0649 55.9021 33.8529 56.6653 33.6452C56.2215 33.498 55.8621 33.3769 55.4761 33.247C55.8577 32.9268 56.2837 32.9311 56.7052 32.9355C56.754 32.9355 56.8295 32.9441 56.8428 32.9787C57.1001 33.5197 57.5616 33.3293 57.9699 33.3379C58.0054 33.3379 58.0453 33.3466 58.1518 33.3639C57.9787 33.5673 57.8279 33.7447 57.6814 33.9178C57.6903 33.9437 57.6992 33.974 57.7081 34C58.174 33.8745 58.631 33.7187 59.1058 33.6322C59.483 33.5629 59.8735 33.5716 60.2596 33.5673C61.0228 33.5586 61.7816 33.5976 62.5448 33.5586C63.2814 33.524 64.0136 33.3898 64.7546 33.3509C65.5445 33.3076 66.3343 33.3206 67.1242 33.3119C67.5945 33.3076 68.0649 33.3119 68.6018 33.3119C68.6018 33.1215 68.6018 32.9268 68.6018 32.6931C69.8354 32.6455 71.1089 32.6152 72.3825 32.546C73.2078 32.5027 74.0287 32.3729 74.8496 32.3383C75.4487 32.3123 76.0522 32.3772 76.6556 32.4075C76.9441 32.4205 77.2325 32.4551 77.5209 32.4768C78.79 32.572 80.0591 32.6715 81.3326 32.758C82.0027 32.8013 82.6727 32.8273 83.3472 32.8532C84.4033 32.8922 85.4594 32.9138 86.5155 32.9658C87.7624 33.0263 89.0137 33.1172 90.2606 33.1821C91.4277 33.2427 92.5947 33.2427 93.7573 33.3466C94.8711 33.4461 95.9582 33.273 97.0587 33.2038C97.569 33.1735 98.0793 33.1994 98.5896 33.1865C99.5702 33.1648 100.551 33.1562 101.532 33.0956C102.33 33.048 103.125 32.9268 103.923 32.8619C104.695 32.797 105.468 32.7797 106.235 32.7061C107.052 32.6282 107.868 32.4984 108.685 32.4162C109.026 32.3816 109.377 32.4335 109.719 32.4248C110.477 32.4119 111.241 32.4119 111.995 32.3556C112.763 32.295 113.53 32.1695 114.293 32.0787C115.048 31.9878 115.807 31.8666 116.561 31.8277C117.502 31.7757 118.447 31.8017 119.392 31.7844C119.725 31.7757 120.053 31.7281 120.386 31.7065C121.123 31.6589 121.864 31.62 122.6 31.5724C123.022 31.5421 123.443 31.4901 123.869 31.4598C124.091 31.4469 124.317 31.4728 124.539 31.4685C125.218 31.4555 125.902 31.4339 126.581 31.4209C126.887 31.4166 127.197 31.4122 127.504 31.4296C127.93 31.4555 128.324 31.4988 128.764 31.2997C129.132 31.1353 129.616 31.2738 130.051 31.2651C130.241 31.2608 130.428 31.2132 130.619 31.1872C130.619 31.1526 130.619 31.118 130.619 31.0834C130.13 31.0271 129.642 30.9665 129.154 30.9103C129.159 30.88 129.163 30.8497 129.163 30.8237C129.749 30.8237 130.33 30.8237 130.987 30.8237C130.907 30.7242 130.871 30.6809 130.818 30.6117C131.706 30.3088 132.602 30.6117 133.516 30.5295C133.463 30.4343 133.427 30.365 133.37 30.2655C134.102 30.2655 134.812 30.2655 135.526 30.2655C135.526 30.2482 135.526 30.2265 135.526 30.2092C135.291 30.153 135.051 30.0924 134.816 30.0361C134.821 29.9842 134.825 29.9366 134.83 29.8847C135.908 29.8414 136.986 29.7981 138.069 29.7592C138.073 29.7419 138.078 29.7289 138.082 29.7116C137.541 29.6034 136.995 29.4952 136.454 29.387C136.458 29.3308 136.463 29.2789 136.471 29.2226C136.596 29.2139 136.742 29.1577 136.84 29.2096C137.173 29.3827 137.488 29.3351 137.843 29.2875C138.459 29.2053 139.085 29.2139 139.737 29.1837C139.671 28.7639 139.835 28.7293 140.194 28.7682C141.113 28.8634 142.04 28.8764 142.963 28.9197C142.968 28.8764 142.977 28.8331 142.981 28.7899C142.888 28.7682 142.799 28.7379 142.706 28.725C142.599 28.712 142.489 28.712 142.307 28.7033C142.453 28.5865 142.546 28.5172 142.639 28.4437C142.546 28.4004 142.435 28.3528 142.231 28.2576C142.4 28.2273 142.493 28.21 142.582 28.1927L142.573 28.2013C142.307 28.1711 142.04 28.1235 141.774 28.1148C141.228 28.0932 140.683 28.0888 140.137 28.0845C139.604 28.0845 139.072 28.1061 138.539 28.0975C138.326 28.0932 138.113 28.0283 137.9 27.9893C137.905 27.9547 137.909 27.9157 137.909 27.8811C138.672 27.8552 139.44 27.8422 140.203 27.7903C140.94 27.7427 141.716 28.1537 142.52 27.5479C142.289 27.483 142.147 27.4094 142 27.4051C140.909 27.3662 139.817 27.3186 138.726 27.3272C138.016 27.3316 137.31 27.4224 136.6 27.4744C136.551 27.4787 136.503 27.4657 136.449 27.3965C136.738 27.3705 137.031 27.3489 137.319 27.3229C137.323 27.3013 137.328 27.2753 137.332 27.2537C137.159 27.2234 136.982 27.1585 136.809 27.1671C136.196 27.1931 135.557 27.3792 134.98 27.245C134.302 27.0849 133.689 27.4484 133.046 27.3186C132.939 27.2969 132.846 27.219 132.695 27.1411C133.09 27.1022 133.392 27.0762 133.698 27.0459C133.694 27.007 133.694 26.9681 133.689 26.9291C133.299 26.9291 132.908 26.9291 132.518 26.9291C132.518 26.9075 132.518 26.8858 132.518 26.8642C133.254 26.8253 133.991 26.782 134.728 26.743C134.728 26.7127 134.728 26.6781 134.728 26.6478C133.192 26.6478 131.661 26.6478 130.126 26.6478C130.122 26.6348 130.122 26.6219 130.117 26.6089C130.516 26.5267 130.916 26.4185 131.32 26.3709C132.314 26.2497 133.303 26.1242 134.302 26.0636C135.273 26.0031 136.245 26.0377 137.217 26.0074C137.741 25.9901 138.264 25.9252 138.788 25.8776C139.072 25.8516 139.351 25.8127 139.635 25.7175C139.032 25.7175 138.428 25.7175 137.825 25.7175C137.82 25.7045 137.82 25.6915 137.82 25.6828C137.936 25.6525 138.051 25.6179 138.167 25.5876C137.789 25.4448 137.346 25.7824 136.946 25.2977C138.326 25.0986 139.649 24.9082 140.975 24.7222C140.984 24.7481 140.989 24.7698 140.998 24.7957C140.935 24.7654 140.873 24.7395 140.798 24.7049C140.842 24.6659 140.86 24.6356 140.878 24.6356C140.989 24.6313 141.1 24.6313 141.215 24.6313C141.286 24.9255 141.992 24.9385 143.065 24.627C142.781 24.6529 142.497 24.6746 142.213 24.7005C142.213 24.6746 142.209 24.6486 142.209 24.6183C144.019 24.3976 145.825 24.1726 147.636 23.9519C147.636 23.9129 147.631 23.8697 147.631 23.8307C147.56 23.8221 147.485 23.8134 147.414 23.8134C147.05 23.8134 146.606 23.6793 146.34 23.8524C146.043 24.0471 145.75 23.9822 145.47 24.0514C144.982 24.1769 144.468 24.1726 143.962 24.2159C143.46 24.2591 142.959 24.3067 142.457 24.3154C141.641 24.3284 140.825 24.3024 140.008 24.3111C139.32 24.3154 138.637 24.3414 137.949 24.3587C137.847 24.363 137.749 24.3716 137.63 24.3803C137.98 24.1423 137.98 24.1683 138.415 24.2072C138.597 24.2245 138.783 24.0904 138.974 24.0731C139.338 24.0341 139.702 24.0341 140.066 23.9995C140.212 23.9865 140.367 24.0211 140.478 23.7961C140.541 23.6663 140.829 23.6576 141.015 23.597C141.024 23.6317 141.038 23.6706 141.046 23.7052C140.909 23.7701 140.771 23.8307 140.634 23.8956C140.638 23.9216 140.638 23.9432 140.643 23.9692C140.993 23.9692 141.339 23.9779 141.69 23.9692C142.205 23.9562 142.719 23.9389 143.234 23.9129C143.545 23.9 143.9 23.9562 144.161 23.8221C144.778 23.5148 145.391 23.7831 145.998 23.7269C146.695 23.6663 147.396 23.623 148.097 23.5841C148.497 23.5624 148.892 23.5581 149.291 23.5451C149.535 23.5365 149.779 23.5451 150.019 23.5192C150.214 23.4975 150.405 23.5235 150.591 23.3158C150.724 23.1643 151.066 23.2206 151.319 23.186C151.656 23.1427 151.993 23.1037 152.326 22.9826C149.038 23.4456 145.732 23.411 142.431 23.424C142.426 23.385 142.426 23.3417 142.422 23.3028C142.95 23.2465 143.483 23.1903 144.011 23.134C144.019 23.1124 144.028 23.0907 144.037 23.0648C143.758 22.9393 143.483 22.8181 143.203 22.6926C143.207 22.6623 143.207 22.6364 143.212 22.6061C143.749 22.6061 144.286 22.6061 144.907 22.6061C144.663 22.4676 144.49 22.3681 144.312 22.2686C143.607 22.4763 142.919 22.5368 142.298 22.0608C142.302 22.0132 142.311 21.9656 142.315 21.918C142.981 22.0349 143.642 22.156 144.308 22.2729C144.366 22.2729 144.428 22.2729 144.579 22.2729C144.45 22.169 144.388 22.1171 144.326 22.0695C144.334 22.0392 144.343 22.0046 144.352 21.9743C144.654 22.0522 144.956 22.1344 145.257 22.2123C145.262 22.1647 145.271 22.1128 145.275 22.0652C144.725 21.9959 144.17 21.931 143.593 21.8575C143.7 21.8142 143.798 21.7796 143.895 21.7406C143.855 21.6844 143.824 21.6411 143.829 21.6454C144.37 21.5545 144.907 21.4593 145.444 21.3685C145.448 21.3901 145.453 21.4117 145.457 21.4377C145.346 21.4723 145.235 21.5113 145.129 21.5459C146.185 21.6584 147.228 21.7493 148.333 21.468C147.911 21.3641 147.587 21.2819 147.259 21.1997C147.272 21.1434 147.285 21.0872 147.294 21.0309C147.694 21.0006 148.084 21.0136 148.417 21.3122C148.608 21.481 148.692 21.4766 148.972 21.3036C149.029 21.2646 149.136 21.3079 149.22 21.3122C149.34 21.3209 149.46 21.3338 149.579 21.3425C149.584 21.2949 149.593 21.2473 149.597 21.1954C148.972 21.0785 148.341 20.966 147.716 20.8492C147.716 20.8232 147.72 20.7973 147.72 20.7713C148.057 20.8016 148.399 20.8881 148.727 20.8449C149.069 20.8016 149.398 20.6371 149.717 20.4381C148.727 20.3948 147.751 20.741 146.775 20.3818C147.671 20.278 148.572 20.1698 149.424 20.0703C149.713 19.9967 149.966 19.9361 150.218 19.8712C150.218 19.8539 150.218 19.8366 150.218 19.8193C149.269 19.8712 148.324 19.9231 147.374 19.9707C147.37 19.9058 147.365 19.8409 147.361 19.7717C149.757 19.5726 152.158 19.3692 154.563 19.1658C154.177 18.9711 153.791 18.9322 153.347 19.0144C152.996 19.0793 152.615 18.9884 152.189 18.9625C152.304 18.9019 152.371 18.8673 152.464 18.8197C152.353 18.7634 152.26 18.7201 152.135 18.6595C152.628 18.5946 153.085 18.534 153.546 18.4778C153.546 18.4562 153.546 18.4345 153.542 18.4129C153.245 18.4129 152.947 18.4129 152.65 18.4129C152.65 18.3696 152.65 18.3263 152.65 18.2874C153.311 18.2874 153.977 18.2917 154.638 18.2874C155.006 18.2831 155.379 18.2484 155.747 18.2571C155.978 18.2614 156.213 18.361 156.444 18.3523C156.945 18.3307 157.442 18.2614 157.944 18.2138L157.935 18.2225C157.74 18.1835 157.549 18.1489 157.354 18.11C157.287 18.097 157.216 18.084 157.158 17.9801C157.771 17.9369 158.383 17.8893 158.996 17.846C158.996 17.8027 159 17.7595 159 17.7162C157.287 17.4565 155.557 17.4349 153.817 17.4522C153.946 17.4782 154.075 17.5085 154.208 17.5344C154.212 17.5561 154.212 17.5777 154.217 17.595C154.119 17.6037 154.026 17.6123 153.928 17.6166C153.276 17.6426 152.623 17.6599 151.971 17.6989C151.718 17.7162 151.47 17.7984 151.217 17.8114C150.951 17.8287 150.884 17.6599 150.986 17.331C150.653 17.4219 150.36 17.4998 150.134 17.5604C150.325 17.6037 150.573 17.6556 150.822 17.7119C150.817 17.7551 150.813 17.7984 150.809 17.8417C149.553 17.8979 148.297 17.9542 147.046 18.0104C147.041 17.9845 147.041 17.9585 147.037 17.9325C147.663 17.8676 148.288 17.7984 148.914 17.7335C148.914 17.6902 148.914 17.6469 148.914 17.6037C147.929 17.5734 146.944 17.5431 145.963 17.5128C145.967 17.4955 145.967 17.4738 145.972 17.4565C146.629 17.37 147.285 17.2575 147.942 17.2012C148.279 17.1709 148.625 17.2575 148.963 17.2358C149.575 17.1926 150.187 17.0801 150.804 17.0498C151.434 17.0195 152.069 17.0541 152.703 17.0627C152.921 17.0627 153.138 17.0627 153.475 17.0627C153.316 16.9502 153.258 16.9113 153.196 16.868C153.196 16.8377 153.196 16.8074 153.196 16.7771C154.026 16.7771 154.851 16.7771 155.681 16.7771C155.681 16.7209 155.681 16.6646 155.685 16.6127C154.625 16.5218 153.564 16.431 152.428 16.3314C152.73 16.2492 152.947 16.1583 153.174 16.1324C153.44 16.1021 153.693 16.1237 153.977 16.2103C154.35 16.3228 154.798 16.1886 155.21 16.1367C155.477 16.1064 155.743 16.0025 156.009 15.9939C156.48 15.9809 156.95 16.0025 157.42 16.0328C157.687 16.0501 157.948 16.1021 158.223 16.0588C158.148 16.0328 158.068 16.0025 157.993 15.9766C157.993 15.9506 157.993 15.929 157.988 15.903C158.268 15.8597 158.552 15.8165 158.831 15.7732C158.836 15.7386 158.836 15.704 158.84 15.6693C158.046 15.5828 157.256 15.4746 156.462 15.4227C156.071 15.3967 155.672 15.5179 155.277 15.5222C154.509 15.5265 153.742 15.4919 152.974 15.4789C152.876 15.4789 152.779 15.5438 152.686 15.5395C152.566 15.5395 152.45 15.5006 152.393 15.4876C152.078 15.5395 151.785 15.6564 151.523 15.6088C150.973 15.5092 150.485 15.7732 149.961 15.8121C149.788 15.8251 149.575 15.9117 149.446 15.8381C148.812 15.4746 148.115 15.5958 147.445 15.5222C146.921 15.466 146.385 15.5049 145.856 15.4876C145.581 15.4789 145.311 15.4357 145.036 15.4097C144.867 15.44 144.703 15.4919 144.534 15.4962C144.201 15.5049 143.869 15.4789 143.54 15.4876C142.551 15.5092 141.566 15.5482 140.576 15.5525C140.194 15.5525 139.799 15.5309 139.453 15.1717C139.76 15.189 140.017 15.1977 140.323 15.215C140.239 15.0981 140.203 15.0419 140.092 14.8818C140.793 15.0332 141.384 15.1587 142.023 15.2972C142.014 15.3058 142.076 15.2063 142.147 15.202C142.444 15.1717 142.746 15.1371 143.043 15.1674C143.722 15.2063 144.388 15.3102 145.058 15.3967ZM84.4965 3.69123C84.5764 3.79942 84.6518 3.91193 84.7583 4.05906C84.39 4.00713 84.0661 3.95953 83.6978 3.9076C84.0084 3.82538 84.2524 3.76047 84.4965 3.69123C84.5409 3.68258 84.5808 3.6696 84.705 3.63498C84.4255 3.57007 84.2258 3.52247 84.0261 3.47487C84.2436 3.41861 84.4699 3.45756 84.6562 3.37966C84.9846 3.23686 85.171 3.47487 85.4062 3.60469C85.4949 3.65661 85.5925 3.69989 85.6813 3.74749C85.6103 3.6393 85.5437 3.53112 85.4683 3.41861C85.4949 3.39265 85.526 3.37101 85.5526 3.34505C85.8676 3.06377 86.0806 3.11137 86.3424 3.45756C86.4356 3.58305 86.6042 3.64796 86.7285 3.73883C86.3957 3.73883 86.0363 3.73883 85.6724 3.73883C85.6103 3.99415 85.3263 4.1283 85.1665 3.91626C84.958 3.63931 84.7139 3.75614 84.4965 3.69123ZM137.341 12.4498C137.07 12.8306 136.769 12.5104 136.467 12.4671C136.494 12.5493 136.507 12.6013 136.525 12.6532C136.467 12.6489 136.405 12.6532 136.356 12.6315C136.232 12.5753 136.112 12.4584 135.988 12.4584C135.509 12.4498 135.029 12.4801 134.55 12.4844C134.484 12.4844 134.417 12.4368 134.35 12.4108C134.75 12.3286 135.162 12.3979 135.509 12.2724C136.01 12.0906 136.463 12.32 136.942 12.3027C137.088 12.2983 137.239 12.3892 137.386 12.4368C137.767 12.4584 138.149 12.4801 138.53 12.4974C138.53 12.532 138.526 12.5666 138.526 12.6013C138.189 12.6013 137.856 12.6099 137.519 12.5926C137.461 12.5883 137.399 12.4974 137.341 12.4498ZM55.9287 1.87807C55.7867 1.91269 55.6402 1.93866 55.5071 1.99491C55.445 2.02088 55.4095 2.11175 55.3119 2.22859C54.9436 2.18532 54.491 2.12906 54.0339 2.07713C54.0384 2.05117 54.0384 2.02088 54.0428 1.99491C54.3534 1.99491 54.664 1.99491 55.0723 1.99491C54.9214 1.93866 54.8637 1.91702 54.7838 1.8824C55.1876 1.63141 55.5559 1.80451 55.9287 1.87807C56.1417 1.79152 56.3502 1.70065 56.612 1.58814C55.4228 1.58814 54.3046 1.58814 53.1864 1.58814C53.1864 1.54919 53.1864 1.51025 53.1864 1.46698C54.6241 1.46698 56.0618 1.46698 57.4995 1.46698C57.4995 1.49294 57.5039 1.5189 57.5039 1.54487C57.2333 1.5665 56.9581 1.59247 56.6875 1.6141C56.6875 1.6444 56.6875 1.67469 56.6875 1.7093C56.8339 1.73527 56.9803 1.76123 57.1312 1.7872C57.1268 1.81749 57.1268 1.84778 57.1223 1.87807C56.723 1.87807 56.3236 1.87807 55.9287 1.87807ZM40.0118 1.90836C40.0029 1.86509 39.9985 1.82182 39.9896 1.77854C40.105 1.74825 40.2204 1.69632 40.3402 1.68334C41.0812 1.59679 41.8267 1.51025 42.5678 1.44101C42.9405 1.40639 43.3132 1.39341 43.686 1.40639C44.4181 1.43236 45.1503 1.48861 45.878 1.52756C46.1043 1.54054 46.3262 1.52756 46.5525 1.52756C46.1576 1.59247 45.7671 1.63142 45.3766 1.68767C45.1192 1.72229 44.7909 1.69632 44.6223 1.85211C44.4181 2.04251 44.2495 1.99058 44.0498 1.99058C43.8901 1.99058 43.7303 1.98193 43.5662 1.98193C43.1002 1.98193 42.6343 2.00357 42.1728 1.98193C42.0752 1.9776 41.9865 1.83047 41.8711 1.72229C41.3253 2.1507 40.6552 1.81316 40.0118 1.90836ZM119.84 4.3663C119.822 4.38361 119.898 4.25812 119.947 4.2711C120.279 4.34034 120.67 4.35332 120.923 4.55238C121.327 4.86827 121.691 4.94184 122.059 4.72547C122.223 4.84664 122.352 4.94184 122.516 5.063C122.556 4.90722 122.578 4.81202 122.587 4.78605C123.519 4.78605 124.42 4.78605 125.351 4.78605C125.671 5.06733 126.119 5.063 126.554 5.09329C126.674 5.10195 126.794 5.09329 126.913 5.09329C126.913 5.12791 126.913 5.15821 126.913 5.19283C126.754 5.21446 126.598 5.26206 126.439 5.25341C125.826 5.22312 125.218 5.16686 124.61 5.14522C123.9 5.11926 123.19 5.14523 122.485 5.10628C121.775 5.06301 121.069 4.9678 120.359 4.88558C120.293 4.87693 120.213 4.84664 120.169 4.79904C120.071 4.68652 119.987 4.56103 119.84 4.3663ZM34.5982 2.17233C32.8721 2.17233 31.1814 2.17233 29.4908 2.17233C29.4908 2.11175 29.4864 2.05116 29.4864 1.99058C30.2762 1.94298 31.0616 1.87374 31.8515 1.85211C32.4106 1.8348 32.9697 1.92134 33.5244 1.8824C33.906 1.86076 34.2654 1.79585 34.5982 2.17233ZM8.57745 2.10309C8.57301 2.06415 8.56859 2.02087 8.56859 1.98193C9.10994 1.90836 9.64685 1.80451 10.1927 1.77421C10.6453 1.74825 11.1068 1.82182 11.5638 1.82614C11.9232 1.82614 12.2782 1.78719 12.5356 1.76988C12.6776 1.93432 12.7619 2.02953 12.8285 2.10309C12.2605 2.3411 11.6659 1.96462 11.0446 2.25455C10.6497 2.4363 10.1039 2.25022 9.62467 2.23291C9.62467 2.18531 9.62024 2.13771 9.62024 2.08578C9.89536 2.04684 10.1705 2.00356 10.4722 1.96029C9.79773 1.73094 9.21201 2.30648 8.57745 2.10309ZM139.218 15.0159C139.2 15.0592 139.183 15.1025 139.165 15.1457C138.996 15.0419 138.832 14.8818 138.65 14.8515C138.446 14.8169 138.229 14.9077 138.002 14.9423C137.945 14.8601 137.874 14.7519 137.798 14.6438C137.794 14.6827 137.789 14.726 137.785 14.7649C137.545 14.8212 137.306 14.8991 137.062 14.925C136.889 14.9467 136.64 14.8169 136.538 14.9034C136.214 15.1717 135.979 14.9294 135.708 14.8125C135.877 14.7909 136.05 14.7693 136.303 14.739C136.165 14.6697 136.112 14.6438 135.957 14.5659C136.773 14.5659 137.474 14.5659 138.18 14.5659C138.291 14.5659 138.411 14.5702 138.517 14.5399C138.797 14.462 139.023 14.5139 139.196 14.8125C139.134 14.8471 139.072 14.8774 138.996 14.9164C139.076 14.951 139.147 14.9813 139.218 15.0159ZM41.4895 3.64363C41.7024 3.58737 41.8755 3.50948 42.053 3.50083C42.6565 3.47919 43.2555 3.12002 43.8723 3.45755C43.9167 3.48352 44.0409 3.46621 44.0454 3.44457C44.1164 3.16762 44.3294 3.29744 44.4714 3.28879C44.7465 3.27148 45.026 3.27581 45.2967 3.31475C45.4432 3.33639 45.5807 3.4489 45.7227 3.51814C45.705 3.56141 45.6872 3.60036 45.6739 3.64363C44.2939 3.64363 42.9139 3.64363 41.4895 3.64363ZM12.8906 1.84778C13.9556 1.84778 15.0383 1.84778 16.1165 1.84778C16.1165 1.90403 16.121 1.96462 16.121 2.02087C15.979 2.03818 15.8414 2.05982 15.6994 2.06847C15.5175 2.08145 15.3356 2.07713 15.1537 2.09011C14.954 2.10742 14.7543 2.14637 14.5502 2.15935C14.2529 2.18098 13.9511 2.19397 13.6538 2.19829C13.3432 2.20262 13.0503 2.12473 12.8906 1.84778ZM77.2103 3.02915C77.2103 3.05511 77.2103 3.08541 77.2103 3.11137C77.0994 3.15464 76.9663 3.17195 76.8864 3.24984C76.7488 3.38832 76.7666 3.4013 76.6601 3.25417C76.6246 3.20657 76.5314 3.15031 76.5003 3.16762C75.9545 3.48785 75.4132 3.15031 74.8851 3.11137C74.5568 3.08541 74.1974 2.97289 73.8424 2.9426C73.7092 2.92962 73.5806 2.895 73.4474 2.86904C73.4519 2.84307 73.4563 2.81711 73.4607 2.79547C74.1796 2.79547 74.894 2.79547 75.6173 2.79547C75.6084 2.83875 75.5951 2.92962 75.5818 3.02482C76.1454 3.02915 76.6778 3.02915 77.2103 3.02915ZM35.4014 3.70421C35.4102 3.75181 35.4191 3.79509 35.4236 3.84269C34.4296 4.0504 33.4179 4.07637 32.3884 3.99415C32.6591 3.85567 32.9386 3.76047 33.2226 3.6869C33.2981 3.66959 33.4223 3.6869 33.4667 3.73883C33.6531 3.96818 33.8084 3.90327 33.9814 3.7345C34.0302 3.6869 34.1057 3.6393 34.1678 3.64363C34.5805 3.65661 34.9887 3.68258 35.4014 3.70421ZM11.0269 4.11531C11.0313 4.12397 11.0313 4.13262 11.0358 4.1456C9.8643 4.30139 8.69727 4.45284 7.5258 4.60863C7.60567 4.44852 7.72106 4.33168 7.84529 4.31437C8.39996 4.23215 8.95908 4.15858 9.51817 4.12397C10.0152 4.09367 10.521 4.11531 11.0269 4.11531ZM136.516 13.8865C136.52 13.8519 136.525 13.8216 136.529 13.7869C136.738 13.7653 136.96 13.6917 137.159 13.7307C137.412 13.7783 137.683 13.735 137.914 13.9773C138.047 14.1158 138.357 14.1202 138.584 14.1028C138.863 14.0855 138.921 14.0812 139.076 14.4274C138.286 14.3019 137.536 14.1851 136.791 14.0682C136.791 14.0509 136.791 14.0379 136.795 14.0206C137.044 14.0206 137.292 14.0206 137.541 14.0206C137.541 14.0033 137.541 13.9817 137.545 13.9644C137.199 13.9384 136.858 13.9124 136.516 13.8865ZM9.18982 3.98116C9.18538 3.94654 9.1765 3.91193 9.17206 3.87731C9.86873 3.78643 10.561 3.69556 11.2754 3.60036C11.2354 4.08502 11.6171 3.83403 11.8345 3.98116C10.9204 3.98116 10.0551 3.98116 9.18982 3.98116ZM58.4846 1.97327C58.4979 2.00356 58.5112 2.03818 58.529 2.06848C58.3071 2.09877 58.0852 2.12906 57.8856 2.15502C58.0897 1.49727 58.6443 1.65738 59.0615 1.62276C59.5185 1.58381 60.0421 1.37177 60.4548 1.83913C60.335 1.86942 60.2063 1.8824 60.0998 1.83913C59.6161 1.62276 59.128 1.77854 58.6399 1.79585C58.5822 1.80018 58.5334 1.91269 58.4846 1.97327ZM16.0944 2.3887C15.3001 2.55746 14.5013 2.82576 13.7559 2.41466C14.5013 2.42332 15.2956 2.15502 16.0944 2.3887ZM136.476 13.9124C136.489 13.9427 136.503 13.973 136.511 14.0076C136.463 14.0509 136.418 14.0899 136.361 14.1418C136.432 14.1634 136.498 14.1851 136.511 14.1894C136.471 14.2716 136.427 14.3582 136.374 14.4663C135.93 14.3365 135.429 14.1937 134.909 14.0423C135.424 13.6874 135.97 14.1461 136.476 13.9124ZM49.2061 2.37139C49.2061 2.33677 49.2016 2.29783 49.2016 2.26321C49.3969 2.26321 49.5965 2.27186 49.7918 2.26321C50.2045 2.23724 50.6305 2.24157 51.0298 2.15502C51.3138 2.09444 51.3582 2.06415 51.4425 2.40168C50.697 2.43197 49.9471 2.54449 49.2061 2.37139ZM66.7603 2.23724C66.3033 2.1983 65.935 2.16801 65.5755 2.13771C65.5755 2.06415 65.5755 1.99058 65.5755 1.92135C65.8107 1.95597 66.0193 1.98193 66.3388 2.02953C66.1923 1.93433 66.1435 1.89971 66.0681 1.85211C66.7204 1.81316 67.3327 1.77854 67.9451 1.7396C67.9451 1.76556 67.9495 1.79585 67.9495 1.82182C67.4836 1.90404 67.0177 1.98193 66.5074 2.0728C66.5961 2.13339 66.6405 2.15935 66.7603 2.23724ZM26.8151 2.07713C26.8106 2.03386 26.8062 1.99058 26.8018 1.94298C27.4895 1.89105 28.1818 1.8348 28.8696 1.78287C28.874 1.82614 28.8784 1.86509 28.8829 1.90836C28.2173 2.21128 27.5029 1.99491 26.8151 2.07713ZM78.8743 2.67431C79.3536 2.50554 79.8062 2.25455 80.2899 2.60939C80.2011 2.87336 79.9615 2.89067 79.7441 2.86471C79.4601 2.83442 79.1805 2.74787 78.8743 2.67431ZM137.656 7.97098C137.559 8.28688 136.307 8.2739 135.655 7.97098C136.329 7.97098 136.977 7.97098 137.656 7.97098ZM77.1704 2.79547C77.6807 2.71758 78.2087 2.62671 78.7146 2.89067C78.1865 2.96857 77.6496 3.27581 77.1704 2.79547ZM139.826 8.9706C139.378 9.20428 139.05 8.94031 138.712 8.67202C138.881 8.65471 139.045 8.71096 139.209 8.72827C139.28 8.7326 139.351 8.64605 139.431 8.62009C139.542 8.58114 139.662 8.55518 139.777 8.53354C139.799 8.52921 139.831 8.57681 139.879 8.61576C139.804 8.68933 139.737 8.75424 139.666 8.81915C139.733 8.87973 139.782 8.92733 139.826 8.9706ZM45.3988 2.4839C45.381 2.44063 45.3677 2.39303 45.35 2.34975C44.924 2.24157 44.4669 2.37572 44.0409 2.25022C44.6178 2.19397 45.1902 2.13771 45.7671 2.08146C45.7848 2.12473 45.8026 2.17233 45.8203 2.21561C45.6828 2.30648 45.5408 2.39735 45.3988 2.4839ZM38.0549 2.27619C38.0549 2.25888 38.0549 2.23724 38.0505 2.21993C38.3079 2.19829 38.5652 2.16368 38.8226 2.15069C39.08 2.13771 39.3418 2.14637 39.5991 2.14637C39.5814 2.15502 39.5193 2.17666 39.4216 2.21561C39.5725 2.30648 39.6568 2.35841 39.8077 2.44928C39.1643 2.3887 38.6096 2.33244 38.0549 2.27619ZM47.0007 3.34937C46.5348 3.61767 46.0866 3.58305 45.9446 3.34937C46.2996 3.34937 46.6501 3.34937 47.0007 3.34937ZM150.684 18.6119C151.448 18.3869 151.9 18.4172 152.024 18.7374C151.572 18.6985 151.133 18.6552 150.684 18.6119ZM133.889 15.0635C133.884 15.1241 133.88 15.1847 133.876 15.2409C133.361 15.1674 132.846 15.0938 132.331 15.0202C132.522 14.951 132.713 14.938 132.899 14.9553C133.086 14.9726 133.268 15.0202 133.45 15.0419C133.596 15.0635 133.742 15.0592 133.889 15.0635ZM19.418 2.68728C19.4135 2.73056 19.4135 2.7695 19.4091 2.81278C19.0097 3.00318 18.6814 2.73489 18.3175 2.66132C18.3264 2.61372 18.3308 2.56612 18.3397 2.51419C18.7036 2.57045 19.0585 2.6267 19.418 2.68728ZM104.518 3.4013C104.895 3.4013 105.272 3.4013 105.756 3.4013C105.317 3.64796 105.317 3.64796 104.518 3.4013ZM32.3973 2.54448C32.8676 2.26753 33.0851 2.2935 33.3912 2.66565C33.054 2.62237 32.7478 2.58776 32.3973 2.54448ZM137.634 11.9089C137.967 11.9089 138.269 11.9089 138.584 11.9089C138.477 12.2334 138.104 12.2334 137.634 11.9089ZM16.2009 2.00356C16.6357 1.96894 16.9641 1.94298 17.3413 1.91269C16.9907 2.36706 16.649 2.168 16.2009 2.00356ZM136.818 25.6612C136.818 25.6872 136.818 25.7131 136.818 25.7348C136.498 25.7348 136.174 25.7348 135.85 25.7348C135.864 25.7045 135.886 25.6352 135.903 25.5833C136.214 25.6093 136.516 25.6352 136.818 25.6612ZM48.2742 1.95164C48.2831 1.98626 48.292 2.02087 48.3008 2.05549C47.8393 2.1204 47.3823 2.18531 46.9208 2.25455C46.9164 2.22859 46.9164 2.20262 46.9119 2.17666C47.3645 2.10309 47.8172 2.02953 48.2742 1.95164ZM138.783 8.99224C138.34 8.99224 137.936 8.99224 137.448 8.99224C137.936 8.86242 138.34 8.76289 138.783 8.99224ZM46.8143 3.83836C46.4948 3.95953 46.2596 4.05473 46.0156 4.12829C45.9845 4.13695 45.918 4.02444 45.8647 3.96818C45.918 3.92491 45.9668 3.84702 46.0245 3.84269C46.2463 3.8297 46.4682 3.83836 46.8143 3.83836ZM119.294 4.06339C119.281 4.08935 119.272 4.11964 119.259 4.14561C118.993 4.08502 118.726 4.02444 118.505 3.97684C118.549 3.87731 118.584 3.79509 118.638 3.68258C118.837 3.79509 119.068 3.92924 119.294 4.06339Z" fill="url(#paint0_linear_6528_760)"/>
  <defs>
    <linearGradient id="paint0_linear_6528_760" x1="155.893" y1="34.0044" x2="3.05999" y2="-5.41642" gradientUnits="userSpaceOnUse">
      <stop stop-color="#533CA3"/>
      <stop offset="0.294518" stop-color="#BF5AB8"/>
      <stop offset="0.682384" stop-color="#ED641F"/>
      <stop offset="1" stop-color="#FFE322"/>
    </linearGradient>
  </defs>
</svg>
