<svg width="44" height="44" viewBox="0 0 44 44" fill="none" xmlns="http://www.w3.org/2000/svg">
<g id="Polygon (MATIC)">
<circle id="Polygon (MATIC)_2" cx="22" cy="22" r="22" fill="#EDF0F4"/>
<g id="Polygon (MATIC)_3">
<path id="Polygon (MATIC)_4" d="M28.6007 17.5815C28.1316 17.3116 27.5285 17.3116 26.9924 17.5815L23.2396 19.8076L20.693 21.2242L17.0072 23.4503C16.5381 23.7201 15.9349 23.7201 15.3988 23.4503L12.5172 21.6964C12.0481 21.4266 11.713 20.8869 11.713 20.2798V16.9069C11.713 16.3672 11.9811 15.8276 12.5172 15.4903L15.3988 13.8038C15.8679 13.534 16.4711 13.534 17.0072 13.8038L19.8888 15.5577C20.3579 15.8276 20.693 16.3672 20.693 16.9743V19.2005L23.2396 17.7164V15.4228C23.2396 14.8832 22.9715 14.3435 22.4354 14.0062L17.0742 10.8357C16.6051 10.5658 16.002 10.5658 15.4658 10.8357L9.97062 14.0737C9.4345 14.3435 9.16644 14.8832 9.16644 15.4228V21.7639C9.16644 22.3035 9.4345 22.8432 9.97062 23.1805L15.3988 26.351C15.8679 26.6208 16.4711 26.6208 17.0072 26.351L20.693 24.1924L23.2396 22.7083L26.9254 20.5496C27.3945 20.2798 27.9976 20.2798 28.5337 20.5496L31.4154 22.2361C31.8845 22.5059 32.2195 23.0456 32.2195 23.6527V27.0256C32.2195 27.5652 31.9515 28.1049 31.4154 28.4422L28.6007 30.1287C28.1316 30.3985 27.5285 30.3985 26.9924 30.1287L24.1107 28.4422C23.6416 28.1724 23.3066 27.6327 23.3066 27.0256V24.8669L20.76 26.351V28.5771C20.76 29.1168 21.0281 29.6564 21.5642 29.9937L26.9924 33.1643C27.4615 33.4341 28.0646 33.4341 28.6007 33.1643L34.0289 29.9937C34.498 29.7239 34.8331 29.1842 34.8331 28.5771V22.1686C34.8331 21.6289 34.5651 21.0893 34.0289 20.752L28.6007 17.5815Z" fill="#8247E5"/>
</g>
</g>
</svg>
