<svg xmlns="http://www.w3.org/2000/svg" width="32" height="32" viewBox="0 0 32 32" fill="none">
  <g opacity="0.7">
    <path d="M29.8666 7.39967C28.8458 7.853 27.7493 8.15807 26.5984 8.29567C27.7738 7.59167 28.6752 6.477 29.0997 5.14793C28.001 5.79967 26.7829 6.27327 25.4858 6.52927C24.448 5.42313 22.9696 4.73193 21.3333 4.73193C18.1909 4.73193 15.6437 7.2802 15.6437 10.4215C15.6437 10.8674 15.6949 11.3026 15.7909 11.7175C11.0624 11.4807 6.87037 9.21513 4.0629 5.77193C3.57437 6.61247 3.29383 7.58953 3.29383 8.6338C3.29383 10.6071 4.29757 12.349 5.82397 13.3687C4.8917 13.3389 4.01383 13.0829 3.2469 12.6573C3.2469 12.6818 3.2469 12.7042 3.2469 12.7287C3.2469 15.4861 5.20743 17.7858 7.81117 18.3074C7.33437 18.4375 6.8309 18.5069 6.31143 18.5069C5.94557 18.5069 5.58823 18.4706 5.24157 18.4055C5.96583 20.6658 8.06717 22.3117 10.5568 22.3575C8.6101 23.8839 6.15677 24.7938 3.4901 24.7938C3.03143 24.7938 2.5781 24.7671 2.13223 24.7138C4.65063 26.3277 7.6405 27.2695 10.8544 27.2695C21.3205 27.2695 27.0421 18.5997 27.0421 11.0807C27.0421 10.8343 27.0368 10.589 27.0261 10.3447C28.1386 9.54153 29.104 8.53993 29.8666 7.39967Z" fill="black"/>
  </g>
</svg>
